<?xml version="1.0" encoding="UTF-8" standalone="no"?>
<!DOCTYPE svg PUBLIC "-//W3C//DTD SVG 1.1//EN" "http://www.w3.org/Graphics/SVG/1.1/DTD/svg11.dtd">
<svg width="100%" height="100%" viewBox="0 0 90 30" version="1.1" xmlns="http://www.w3.org/2000/svg" xmlns:xlink="http://www.w3.org/1999/xlink" xml:space="preserve" xmlns:serif="http://www.serif.com/" style="fill-rule:evenodd;clip-rule:evenodd;stroke-linejoin:round;stroke-miterlimit:2;">
    <g transform="matrix(0.373253,0,0,0.468278,-105.484,-110.301)">
        <path d="M318.39,241.77L290.57,241.77L290.57,271.99L335.73,271.99L318.39,241.77Z" style="fill:rgb(58,58,70);fill-rule:nonzero;"/>
    </g>
    <g transform="matrix(0.373253,0,0,0.381723,-105.484,-86.7591)">
        <path d="M521.24,273.67C521.24,263.12 502.67,254.49 492.12,254.49L349.98,254.49C348.11,254.49 346.3,254.77 344.58,255.28L344.42,255.32C344.34,255.35 344.25,255.37 344.17,255.4L285.11,273.67L285.11,280.58L518.59,280.58C520.24,278.43 521.24,276.1 521.24,273.67Z" style="fill:rgb(78,78,94);fill-rule:nonzero;"/>
    </g>
    <g transform="matrix(0.373253,0,0,0.381723,-105.484,-86.7591)">
        <path d="M345.46,292.29C346.91,292.64 348.42,292.85 349.97,292.85L492.11,292.85C500.22,292.85 513.08,287.74 518.58,280.58L285.1,280.58L285.1,282.7L345.45,292.29L345.46,292.29Z" style="fill:rgb(58,58,70);fill-rule:nonzero;"/>
    </g>
    <g transform="matrix(0.373253,0,0,0.381723,-105.484,-86.7591)">
        <path d="M493.56,289.05L362.21,289.05C361.22,289.05 360.41,288.25 360.41,287.25C360.41,286.25 361.21,285.45 362.21,285.45L493.56,285.45C494.55,285.45 495.36,286.25 495.36,287.25C495.36,288.25 494.56,289.05 493.56,289.05Z" style="fill:rgb(78,78,94);fill-rule:nonzero;"/>
    </g>
    <g transform="matrix(0.373253,0,0,0.381723,-105.484,-86.7591)">
        <path d="M345.57,271.14L322.87,271.14C321.88,271.14 321.07,270.33 321.07,269.34C321.07,268.35 321.88,267.54 322.87,267.54L345.57,267.54C346.56,267.54 347.37,268.34 347.37,269.34C347.37,270.34 346.57,271.14 345.57,271.14Z" style="fill:rgb(58,58,70);fill-rule:nonzero;"/>
    </g>
    <g transform="matrix(0.373253,0,0,0.381723,-105.484,-86.7591)">
        <path d="M380.93,271.14L358.23,271.14C357.24,271.14 356.43,270.33 356.43,269.34C356.43,268.35 357.24,267.54 358.23,267.54L380.93,267.54C381.92,267.54 382.73,268.34 382.73,269.34C382.73,270.34 381.93,271.14 380.93,271.14Z" style="fill:rgb(58,58,70);fill-rule:nonzero;"/>
    </g>
    <g transform="matrix(0.373253,0,0,0.381723,-105.484,-86.7591)">
        <path d="M416.29,271.14L393.59,271.14C392.6,271.14 391.79,270.33 391.79,269.34C391.79,268.35 392.6,267.54 393.59,267.54L416.29,267.54C417.28,267.54 418.09,268.34 418.09,269.34C418.09,270.34 417.29,271.14 416.29,271.14Z" style="fill:rgb(58,58,70);fill-rule:nonzero;"/>
    </g>
    <g transform="matrix(0.373253,0,0,0.381723,-105.484,-86.7591)">
        <path d="M451.65,271.14L428.95,271.14C427.96,271.14 427.15,270.33 427.15,269.34C427.15,268.35 427.95,267.54 428.95,267.54L451.65,267.54C452.64,267.54 453.45,268.34 453.45,269.34C453.45,270.34 452.65,271.14 451.65,271.14Z" style="fill:rgb(58,58,70);fill-rule:nonzero;"/>
    </g>
    <g transform="matrix(0.373253,0,0,0.381723,-105.484,-86.7591)">
        <path d="M487,271.14L464.3,271.14C463.31,271.14 462.5,270.33 462.5,269.34C462.5,268.35 463.31,267.54 464.3,267.54L487,267.54C487.99,267.54 488.8,268.34 488.8,269.34C488.8,270.34 488,271.14 487,271.14Z" style="fill:rgb(58,58,70);fill-rule:nonzero;"/>
    </g>
    <g transform="matrix(0.373253,0,0,0.884741,-104.507,-230.068)">
        <path d="M314.79,285.45L298.93,292.85L285.11,292.85L296.39,282.91L314.79,285.45Z" style="fill:rgb(58,58,70);fill-rule:nonzero;"/>
    </g>
    <g transform="matrix(0.373253,0,0,0.468278,-105.484,-110.301)">
        <path d="M318.16,243.15L288.02,243.15C286.41,243.15 285.11,241.85 285.11,240.24C285.11,238.63 286.41,237.33 288.02,237.33L318.16,237.33C319.77,237.33 321.07,238.63 321.07,240.24C321.07,241.85 319.77,243.15 318.16,243.15Z" style="fill:rgb(58,58,70);fill-rule:nonzero;"/>
    </g>
    <g transform="matrix(0.373253,0,0,0.556446,-105.484,-131.226)">
        <path d="M419.93,237.33L395.8,237.33C393.58,237.33 391.78,239.13 391.78,241.35L391.78,254.5L448.47,254.5L443.58,248.53C437.77,241.44 429.09,237.33 419.93,237.33Z" style="fill:rgb(58,58,70);fill-rule:nonzero;"/>
    </g>
    <g transform="matrix(0.373253,0,0,0.381723,-105.484,-86.7591)">
        <rect x="357.31" y="251.4" width="50.62" height="3.1" style="fill:rgb(58,58,70);"/>
    </g>
    <g transform="matrix(0.373253,0,0,0.381723,-105.484,-86.7591)">
        <rect x="444.08" y="250.35" width="48.29" height="0.54" style="fill:rgb(58,58,70);"/>
        <rect x="461.58" y="250.89" width="0.38" height="3.87" style="fill:rgb(58,58,70);"/>
        <rect x="464.12" y="250.89" width="0.38" height="3.87" style="fill:rgb(58,58,70);"/>
        <rect x="466.65" y="250.89" width="0.38" height="3.87" style="fill:rgb(58,58,70);"/>
        <rect x="469.19" y="250.89" width="0.38" height="3.87" style="fill:rgb(58,58,70);"/>
        <rect x="451.49" y="250.89" width="0.38" height="3.87" style="fill:rgb(58,58,70);"/>
        <rect x="448.77" y="250.89" width="0.38" height="3.87" style="fill:rgb(58,58,70);"/>
        <rect x="454.03" y="250.89" width="0.38" height="3.87" style="fill:rgb(58,58,70);"/>
        <rect x="456.56" y="250.89" width="0.38" height="3.87" style="fill:rgb(58,58,70);"/>
        <rect x="459.1" y="250.89" width="0.38" height="3.87" style="fill:rgb(58,58,70);"/>
        <rect x="471.72" y="250.89" width="0.38" height="3.87" style="fill:rgb(58,58,70);"/>
        <rect x="474.26" y="250.89" width="0.38" height="3.87" style="fill:rgb(58,58,70);"/>
        <rect x="476.79" y="250.89" width="0.38" height="3.87" style="fill:rgb(58,58,70);"/>
        <rect x="479.33" y="250.89" width="0.38" height="3.87" style="fill:rgb(58,58,70);"/>
        <rect x="481.86" y="250.89" width="0.38" height="3.87" style="fill:rgb(58,58,70);"/>
        <rect x="484.39" y="250.89" width="0.38" height="3.87" style="fill:rgb(58,58,70);"/>
        <rect x="486.93" y="250.89" width="0.38" height="3.87" style="fill:rgb(58,58,70);"/>
        <rect x="489.46" y="250.89" width="0.38" height="3.87" style="fill:rgb(58,58,70);"/>
        <rect x="492" y="250.89" width="0.38" height="3.87" style="fill:rgb(58,58,70);"/>
    </g>
    <g transform="matrix(0.373253,0,0,0.381723,-105.484,-86.7591)">
        <rect x="357.4" y="246.98" width="47.92" height="0.54" style="fill:rgb(58,58,70);"/>
        <g transform="matrix(-1,-7.65714e-16,7.65714e-16,-1,775.54,498.92)">
            <rect x="387.59" y="247.52" width="0.37" height="3.87" style="fill:rgb(58,58,70);"/>
        </g>
        <g transform="matrix(-1,-7.65714e-16,7.65714e-16,-1,770.51,498.92)">
            <rect x="385.07" y="247.52" width="0.37" height="3.87" style="fill:rgb(58,58,70);"/>
        </g>
        <g transform="matrix(-1,-7.65714e-16,7.65714e-16,-1,765.48,498.92)">
            <rect x="382.56" y="247.52" width="0.37" height="3.87" style="fill:rgb(58,58,70);"/>
        </g>
        <g transform="matrix(-1,-7.65714e-16,7.65714e-16,-1,760.45,498.92)">
            <rect x="380.04" y="247.52" width="0.37" height="3.87" style="fill:rgb(58,58,70);"/>
        </g>
        <g transform="matrix(-1,-7.65714e-16,7.65714e-16,-1,795.57,498.92)">
            <rect x="397.6" y="247.52" width="0.37" height="3.87" style="fill:rgb(58,58,70);"/>
        </g>
        <g transform="matrix(-1,-7.65714e-16,7.65714e-16,-1,800.96,498.92)">
            <rect x="400.29" y="247.52" width="0.37" height="3.87" style="fill:rgb(58,58,70);"/>
        </g>
        <g transform="matrix(-1,-7.65714e-16,7.65714e-16,-1,790.54,498.92)">
            <rect x="395.08" y="247.52" width="0.37" height="3.87" style="fill:rgb(58,58,70);"/>
        </g>
        <g transform="matrix(-1,-7.65714e-16,7.65714e-16,-1,785.51,498.92)">
            <rect x="392.57" y="247.52" width="0.37" height="3.87" style="fill:rgb(58,58,70);"/>
        </g>
        <g transform="matrix(-1,-7.65714e-16,7.65714e-16,-1,780.48,498.92)">
            <rect x="390.05" y="247.52" width="0.37" height="3.87" style="fill:rgb(58,58,70);"/>
        </g>
        <g transform="matrix(-1,-7.65714e-16,7.65714e-16,-1,755.42,498.92)">
            <rect x="377.53" y="247.52" width="0.37" height="3.87" style="fill:rgb(58,58,70);"/>
        </g>
        <g transform="matrix(-1,-7.65714e-16,7.65714e-16,-1,750.39,498.92)">
            <rect x="375.01" y="247.52" width="0.37" height="3.87" style="fill:rgb(58,58,70);"/>
        </g>
        <g transform="matrix(-1,-7.65714e-16,7.65714e-16,-1,745.36,498.92)">
            <rect x="372.49" y="247.52" width="0.37" height="3.87" style="fill:rgb(58,58,70);"/>
        </g>
        <g transform="matrix(-1,-7.65714e-16,7.65714e-16,-1,740.33,498.92)">
            <rect x="369.98" y="247.52" width="0.37" height="3.87" style="fill:rgb(58,58,70);"/>
        </g>
        <g transform="matrix(-1,-7.65714e-16,7.65714e-16,-1,735.3,498.92)">
            <rect x="367.46" y="247.52" width="0.37" height="3.87" style="fill:rgb(58,58,70);"/>
        </g>
        <g transform="matrix(-1,-7.65714e-16,7.65714e-16,-1,730.27,498.92)">
            <rect x="364.95" y="247.52" width="0.37" height="3.87" style="fill:rgb(58,58,70);"/>
        </g>
        <g transform="matrix(-1,-7.65714e-16,7.65714e-16,-1,725.24,498.92)">
            <rect x="362.43" y="247.52" width="0.37" height="3.87" style="fill:rgb(58,58,70);"/>
        </g>
        <g transform="matrix(-1,-7.65714e-16,7.65714e-16,-1,720.21,498.92)">
            <rect x="359.92" y="247.52" width="0.37" height="3.87" style="fill:rgb(58,58,70);"/>
        </g>
        <g transform="matrix(-1,-7.65714e-16,7.65714e-16,-1,715.18,498.92)">
            <rect x="357.4" y="247.52" width="0.37" height="3.87" style="fill:rgb(58,58,70);"/>
        </g>
    </g>
</svg>
