<?xml version="1.0" encoding="UTF-8" standalone="no"?>
<!DOCTYPE svg PUBLIC "-//W3C//DTD SVG 1.1//EN" "http://www.w3.org/Graphics/SVG/1.1/DTD/svg11.dtd">
<svg width="100%" height="100%" viewBox="0 0 30 180" version="1.1" xmlns="http://www.w3.org/2000/svg" xmlns:xlink="http://www.w3.org/1999/xlink" xml:space="preserve" xmlns:serif="http://www.serif.com/" style="fill-rule:evenodd;clip-rule:evenodd;stroke-linejoin:round;stroke-miterlimit:2;">
    <g transform="matrix(3.83481e-17,0.626272,-0.626272,3.83481e-17,45.6241,-9.65936)">
        <path d="M223.57,72.77L29.17,72.77L21.87,48.49L266.46,48.49L223.57,72.77Z" style="fill:rgb(121,121,145);fill-rule:nonzero;"/>
    </g>
    <g transform="matrix(3.83481e-17,0.626272,-0.626272,3.83481e-17,45.6241,-9.65936)">
        <path d="M287.08,45.52L21.18,45.52L22.48,51.01L274.79,51.01C277.2,51.01 279.58,50.58 281.84,49.75L287.45,47.67C288.61,47.24 288.3,45.52 287.06,45.52L287.08,45.52Z" style="fill:rgb(78,78,94);fill-rule:nonzero;"/>
    </g>
    <g transform="matrix(3.83481e-17,0.626272,-0.626272,3.83481e-17,45.6241,-9.65936)">
        <path d="M302.18,43.01L15.7,43.01C15.01,43.01 14.45,43.57 14.45,44.26C14.45,44.95 15.01,45.52 15.7,45.52L302.18,45.52C302.87,45.52 303.43,44.96 303.43,44.27C303.43,43.58 302.87,43.01 302.18,43.01Z" style="fill:rgb(21,21,26);fill-rule:nonzero;"/>
    </g>
    <g transform="matrix(3.83481e-17,0.626272,-0.626272,3.83481e-17,45.6241,-9.65936)">
        <path d="M170.97,49.74L179.3,55.33L206.11,55.33L211.93,49.52L170.97,49.74Z" style="fill:rgb(104,104,125);fill-rule:nonzero;"/>
    </g>
    <g transform="matrix(3.83481e-17,0.626272,-0.626272,3.83481e-17,45.6241,-9.65936)">
        <path d="M26.34,63.36L31.79,55.33L46.05,55.33L52.21,49.17L22.13,49.17L26.34,63.36Z" style="fill:rgb(78,78,94);fill-rule:nonzero;"/>
    </g>
    <g transform="matrix(3.83481e-17,0.626272,-0.626272,3.83481e-17,45.6241,-9.65936)">
        <path d="M90.57,62.72L55.32,62.72L51.47,58.87C52.97,57.37 53.82,56.52 55.32,55.02L90.57,55.02C92.07,56.52 92.92,57.37 94.42,58.87C92.92,60.37 92.07,61.22 90.57,62.72Z" style="fill:rgb(78,78,94);fill-rule:nonzero;"/>
    </g>
    <g transform="matrix(3.83481e-17,0.626272,-0.857041,5.24786e-17,55.5495,-9.65936)">
        <path d="M102.5,43.01L38.38,43.01L47.97,30.01L102.5,30.01L102.5,43.01Z" style="fill:rgb(121,121,145);fill-rule:nonzero;"/>
    </g>
    <g transform="matrix(3.83481e-17,0.626272,-0.626272,3.83481e-17,45.6241,-9.65936)">
        <path d="M118.13,43.01L92.03,43.01L95.93,34.26L118.13,34.26L118.13,43.01Z" style="fill:rgb(104,104,125);fill-rule:nonzero;"/>
    </g>
    <g transform="matrix(3.83481e-17,0.626272,-0.626272,3.83481e-17,45.6241,-9.65936)">
        <path d="M27.83,68.32L231.43,68.32L223.57,72.77L29.17,72.77L27.83,68.32Z" style="fill:rgb(78,78,94);fill-rule:nonzero;"/>
    </g>
    <g transform="matrix(3.83481e-17,0.626272,-0.626272,3.83481e-17,45.6241,-9.65936)">
        <rect x="52.21" y="32.47" width="40.67" height="1.79"/>
    </g>
    <g transform="matrix(3.83481e-17,0.626272,-0.626272,3.83481e-17,45.6241,-9.65936)">
        <rect x="52.21" y="35.61" width="40.67" height="1.79"/>
    </g>
    <g transform="matrix(3.83481e-17,0.626272,-0.626272,3.83481e-17,45.6241,-9.65936)">
        <rect x="52.21" y="38.76" width="40.67" height="1.79"/>
    </g>
    <g transform="matrix(0.626272,0,0,0.626272,-84.5996,59.1962)">
        <g transform="matrix(6.12323e-17,1,-1,6.12323e-17,207.935,-109.945)">
            <path d="M151,42.14C150.98,41.62 151.38,41.17 151.91,41.15C152.43,41.13 152.88,41.53 152.9,42.06C152.92,42.58 152.52,43.03 151.99,43.05C151.47,43.07 151.02,42.67 151,42.14Z" style="fill:rgb(45,64,87);fill-rule:nonzero;"/>
        </g>
        <g transform="matrix(6.12323e-17,1,-1,6.12323e-17,207.935,-109.945)">
            <path d="M131.09,42.12C131.07,41.6 131.47,41.15 132,41.13C132.52,41.11 132.97,41.51 132.99,42.04C133.01,42.56 132.61,43.01 132.08,43.03C131.56,43.05 131.11,42.65 131.09,42.12Z" style="fill:rgb(45,64,87);fill-rule:nonzero;"/>
        </g>
        <g transform="matrix(6.12323e-17,1,-1,6.12323e-17,207.935,-109.945)">
            <path d="M151.82,39.28L138.19,39.91L145.54,38.15C145.63,38.13 145.72,38.12 145.81,38.11L148.73,37.97C148.97,37.96 149.2,38.01 149.41,38.11L151.82,39.27L151.82,39.28Z" style="fill:rgb(45,64,87);fill-rule:nonzero;"/>
        </g>
        <g transform="matrix(6.12323e-17,1,-1,6.12323e-17,207.935,-109.945)">
            <path d="M124.86,37.08L128.31,36.92L133.48,39.51L127.76,41.15L124.86,37.08Z" style="fill:rgb(45,64,87);fill-rule:nonzero;"/>
        </g>
        <g transform="matrix(6.12323e-17,1,-1,6.12323e-17,207.935,-109.945)">
            <path d="M152.2,41.79L133.63,42.65C132.76,42.69 127.81,42.22 127.77,41.35C127.73,40.48 132.62,39.55 133.49,39.51L152.06,38.65C152.93,38.61 157.5,39.1 157.54,39.97C157.58,40.84 153.07,41.75 152.21,41.79L152.2,41.79Z" style="fill-rule:nonzero;"/>
        </g>
        <g transform="matrix(6.12323e-17,1,-1,6.12323e-17,207.935,-109.945)">
            <path d="M134.37,42.23L148.89,40.92L148.84,39.83L135.08,41.62L134.37,42.23Z" style="fill:rgb(68,98,133);fill-rule:nonzero;"/>
        </g>
    </g>
    <g transform="matrix(0.626272,0,0,0.626272,-84.5996,59.1962)">
        <g transform="matrix(6.12323e-17,1,-1,6.12323e-17,207.935,-109.945)">
            <path d="M191.76,42.14C191.74,41.62 192.14,41.17 192.67,41.15C193.19,41.13 193.64,41.53 193.66,42.06C193.68,42.58 193.28,43.03 192.75,43.05C192.23,43.07 191.78,42.67 191.76,42.14Z" style="fill:rgb(45,64,87);fill-rule:nonzero;"/>
        </g>
        <g transform="matrix(6.12323e-17,1,-1,6.12323e-17,207.935,-109.945)">
            <path d="M171.85,42.12C171.83,41.6 172.23,41.15 172.76,41.13C173.28,41.11 173.73,41.51 173.75,42.04C173.77,42.56 173.37,43.01 172.84,43.03C172.32,43.05 171.87,42.65 171.85,42.12Z" style="fill:rgb(45,64,87);fill-rule:nonzero;"/>
        </g>
        <g transform="matrix(6.12323e-17,1,-1,6.12323e-17,207.935,-109.945)">
            <path d="M192.58,39.28L178.95,39.91L186.3,38.15C186.39,38.13 186.48,38.12 186.57,38.11L189.49,37.97C189.73,37.96 189.96,38.01 190.17,38.11L192.58,39.27L192.58,39.28Z" style="fill:rgb(45,64,87);fill-rule:nonzero;"/>
        </g>
        <g transform="matrix(6.12323e-17,1,-1,6.12323e-17,207.935,-109.945)">
            <path d="M165.62,37.08L169.07,36.92L174.24,39.51L168.52,41.15L165.62,37.08Z" style="fill:rgb(45,64,87);fill-rule:nonzero;"/>
        </g>
        <g transform="matrix(6.12323e-17,1,-1,6.12323e-17,207.935,-109.945)">
            <path d="M192.96,41.79L174.39,42.65C173.52,42.69 168.57,42.22 168.53,41.35C168.49,40.48 173.38,39.55 174.25,39.51L192.82,38.65C193.69,38.61 198.26,39.1 198.3,39.97C198.34,40.84 193.83,41.75 192.97,41.79L192.96,41.79Z" style="fill-rule:nonzero;"/>
        </g>
        <g transform="matrix(6.12323e-17,1,-1,6.12323e-17,207.935,-109.945)">
            <path d="M175.13,42.23L189.65,40.92L189.6,39.83L175.83,41.62L175.13,42.23Z" style="fill:rgb(68,98,133);fill-rule:nonzero;"/>
        </g>
    </g>
    <g transform="matrix(0.626272,0,0,0.626272,-84.5996,59.1962)">
        <g transform="matrix(6.12323e-17,1,-1,6.12323e-17,207.935,-109.945)">
            <path d="M232.52,42.14C232.5,41.62 232.9,41.17 233.42,41.15C233.94,41.13 234.39,41.53 234.41,42.06C234.43,42.58 234.03,43.03 233.5,43.05C232.98,43.07 232.53,42.67 232.51,42.14L232.52,42.14Z" style="fill:rgb(45,64,87);fill-rule:nonzero;"/>
        </g>
        <g transform="matrix(6.12323e-17,1,-1,6.12323e-17,207.935,-109.945)">
            <path d="M212.61,42.12C212.59,41.6 212.99,41.15 213.52,41.13C214.04,41.11 214.49,41.51 214.51,42.04C214.53,42.56 214.13,43.01 213.6,43.03C213.08,43.05 212.63,42.65 212.61,42.12Z" style="fill:rgb(45,64,87);fill-rule:nonzero;"/>
        </g>
        <g transform="matrix(6.12323e-17,1,-1,6.12323e-17,207.935,-109.945)">
            <path d="M233.34,39.28L219.71,39.91L227.06,38.15C227.15,38.13 227.24,38.12 227.33,38.11L230.25,37.97C230.49,37.96 230.72,38.01 230.93,38.11L233.34,39.27L233.34,39.28Z" style="fill:rgb(45,64,87);fill-rule:nonzero;"/>
        </g>
        <g transform="matrix(6.12323e-17,1,-1,6.12323e-17,207.935,-109.945)">
            <path d="M206.38,37.08L209.82,36.92L215,39.51L209.28,41.15L206.38,37.08Z" style="fill:rgb(45,64,87);fill-rule:nonzero;"/>
        </g>
        <g transform="matrix(6.12323e-17,1,-1,6.12323e-17,207.935,-109.945)">
            <path d="M233.72,41.79L215.15,42.65C214.28,42.69 209.33,42.22 209.29,41.35C209.25,40.48 214.14,39.55 215.01,39.51L233.58,38.65C234.45,38.61 239.02,39.1 239.06,39.97C239.1,40.84 234.59,41.75 233.73,41.79L233.72,41.79Z" style="fill-rule:nonzero;"/>
        </g>
        <g transform="matrix(6.12323e-17,1,-1,6.12323e-17,207.935,-109.945)">
            <path d="M215.89,42.23L230.41,40.92L230.36,39.83L216.59,41.62L215.89,42.23Z" style="fill:rgb(68,98,133);fill-rule:nonzero;"/>
        </g>
    </g>
    <g transform="matrix(0.626272,0,0,0.626272,-84.5996,59.1962)">
        <g transform="matrix(6.12323e-17,1,-1,6.12323e-17,207.935,-109.945)">
            <path d="M273.28,42.14C273.26,41.62 273.66,41.17 274.19,41.15C274.71,41.13 275.16,41.53 275.18,42.06C275.2,42.58 274.8,43.03 274.27,43.05C273.75,43.07 273.3,42.67 273.28,42.14Z" style="fill:rgb(45,64,87);fill-rule:nonzero;"/>
        </g>
        <g transform="matrix(6.12323e-17,1,-1,6.12323e-17,207.935,-109.945)">
            <path d="M253.37,42.12C253.35,41.6 253.75,41.15 254.28,41.13C254.8,41.11 255.25,41.51 255.27,42.04C255.29,42.56 254.89,43.01 254.36,43.03C253.84,43.05 253.39,42.65 253.37,42.12Z" style="fill:rgb(45,64,87);fill-rule:nonzero;"/>
        </g>
        <g transform="matrix(6.12323e-17,1,-1,6.12323e-17,207.935,-109.945)">
            <path d="M274.1,39.28L260.47,39.91L267.82,38.15C267.91,38.13 268,38.12 268.09,38.11L271.01,37.97C271.25,37.96 271.48,38.01 271.69,38.11L274.1,39.27L274.1,39.28Z" style="fill:rgb(45,64,87);fill-rule:nonzero;"/>
        </g>
        <g transform="matrix(6.12323e-17,1,-1,6.12323e-17,207.935,-109.945)">
            <path d="M247.14,37.08L250.58,36.92L255.76,39.51L250.03,41.15L247.14,37.08Z" style="fill:rgb(45,64,87);fill-rule:nonzero;"/>
        </g>
        <g transform="matrix(6.12323e-17,1,-1,6.12323e-17,207.935,-109.945)">
            <path d="M274.47,41.79L255.9,42.65C255.03,42.69 250.08,42.22 250.04,41.35C250,40.48 254.89,39.55 255.76,39.51L274.33,38.65C275.2,38.61 279.77,39.1 279.81,39.97C279.85,40.84 275.34,41.75 274.48,41.79L274.47,41.79Z" style="fill-rule:nonzero;"/>
        </g>
        <g transform="matrix(6.12323e-17,1,-1,6.12323e-17,207.935,-109.945)">
            <path d="M256.65,42.23L271.17,40.92L271.12,39.83L257.35,41.62L256.65,42.23Z" style="fill:rgb(68,98,133);fill-rule:nonzero;"/>
        </g>
    </g>
    <g transform="matrix(3.83481e-17,0.626272,-0.626272,3.83481e-17,45.6241,-9.65936)">
        <path d="M100.93,55.02C100.93,54.15 101.63,53.45 102.5,53.45C103.37,53.45 104.07,54.15 104.07,55.02C104.07,55.89 103.37,56.59 102.5,56.59C101.63,56.59 100.93,55.89 100.93,55.02Z" style="fill-rule:nonzero;"/>
    </g>
    <g transform="matrix(3.83481e-17,0.626272,-0.626272,3.83481e-17,45.6241,-9.65936)">
        <path d="M106.97,55.02C106.97,54.15 107.67,53.45 108.54,53.45C109.41,53.45 110.11,54.15 110.11,55.02C110.11,55.89 109.41,56.59 108.54,56.59C107.67,56.59 106.97,55.89 106.97,55.02Z" style="fill-rule:nonzero;"/>
    </g>
    <g transform="matrix(3.83481e-17,0.626272,-0.626272,3.83481e-17,45.6241,-9.65936)">
        <path d="M113.02,55.02C113.02,54.15 113.72,53.45 114.59,53.45C115.46,53.45 116.16,54.15 116.16,55.02C116.16,55.89 115.46,56.59 114.59,56.59C113.72,56.59 113.02,55.89 113.02,55.02Z" style="fill-rule:nonzero;"/>
    </g>
    <g transform="matrix(3.83481e-17,0.626272,-0.626272,3.83481e-17,45.6241,-9.65936)">
        <path d="M119.07,55.02C119.07,54.15 119.77,53.45 120.64,53.45C121.51,53.45 122.21,54.15 122.21,55.02C122.21,55.89 121.51,56.59 120.64,56.59C119.77,56.59 119.07,55.89 119.07,55.02Z" style="fill-rule:nonzero;"/>
    </g>
    <g transform="matrix(3.83481e-17,0.626272,-0.626272,3.83481e-17,45.6241,-9.65936)">
        <path d="M125.11,55.02C125.11,54.15 125.81,53.45 126.68,53.45C127.55,53.45 128.25,54.15 128.25,55.02C128.25,55.89 127.55,56.59 126.68,56.59C125.81,56.59 125.11,55.89 125.11,55.02Z" style="fill-rule:nonzero;"/>
    </g>
    <g transform="matrix(3.83481e-17,0.626272,-0.626272,3.83481e-17,45.6241,-9.65936)">
        <path d="M131.16,55.02C131.16,54.15 131.86,53.45 132.73,53.45C133.6,53.45 134.3,54.15 134.3,55.02C134.3,55.89 133.6,56.59 132.73,56.59C131.86,56.59 131.16,55.89 131.16,55.02Z" style="fill-rule:nonzero;"/>
    </g>
</svg>
