<?xml version="1.0" encoding="UTF-8" standalone="no"?>
<!DOCTYPE svg PUBLIC "-//W3C//DTD SVG 1.1//EN" "http://www.w3.org/Graphics/SVG/1.1/DTD/svg11.dtd">
<svg width="100%" height="100%" viewBox="0 0 30 150" version="1.1" xmlns="http://www.w3.org/2000/svg" xmlns:xlink="http://www.w3.org/1999/xlink" xml:space="preserve" xmlns:serif="http://www.serif.com/" style="fill-rule:evenodd;clip-rule:evenodd;stroke-linejoin:round;stroke-miterlimit:2;">
    <g transform="matrix(0.542998,0,0,0.542998,-311.201,-4.9443)">
        <g transform="matrix(6.12323e-17,1,-1,6.12323e-17,745.865,-452.065)">
            <path d="M695.73,151.28L729.85,151.28L726.16,146.26L699.42,146.26L695.73,151.28Z" style="fill:rgb(78,78,94);fill-rule:nonzero;"/>
        </g>
        <g transform="matrix(6.12323e-17,1,-1,6.12323e-17,745.865,-452.065)">
            <g transform="matrix(0.96579,-0.259325,0.259325,0.96579,-12.16,193.02)">
                <rect x="721.09" y="142.13" width="8.91" height="0.92" style="fill:rgb(78,78,94);"/>
            </g>
            <path d="M717.4,142.21L722.57,142.21L723.8,146.26L716.17,146.26L717.4,142.21Z" style="fill:rgb(121,121,145);fill-rule:nonzero;"/>
        </g>
        <g transform="matrix(6.12323e-17,1,-1,6.12323e-17,745.865,-452.065)">
            <g transform="matrix(0.96579,-0.259325,0.259325,0.96579,-12.63,189.47)">
                <rect x="707.41" y="142.13" width="8.91" height="0.92" style="fill:rgb(78,78,94);"/>
            </g>
            <path d="M703.72,142.21L708.89,142.21L710.12,146.26L702.49,146.26L703.72,142.21Z" style="fill:rgb(121,121,145);fill-rule:nonzero;"/>
        </g>
    </g>
    <g transform="matrix(0.542998,0,0,0.542998,-311.201,-4.9443)">
        <g transform="matrix(6.12323e-17,1,-1,6.12323e-17,745.865,-452.065)">
            <g transform="matrix(0.258819,-0.965926,0.965926,0.258819,200.28,569.12)">
                <rect x="470.23" y="146.96" width="1.47" height="14.19" style="fill:rgb(78,78,94);"/>
            </g>
            <path d="M483.94,153.45L475.7,153.45L473.74,159.9L485.9,159.9L483.94,153.45Z" style="fill:rgb(121,121,145);fill-rule:nonzero;"/>
        </g>
        <g transform="matrix(6.12323e-17,1,-1,6.12323e-17,745.865,-452.065)">
            <path d="M466.93,161.28L492.39,161.28L489.64,157.53L469.68,157.53L466.93,161.28Z" style="fill:rgb(78,78,94);fill-rule:nonzero;"/>
        </g>
    </g>
    <g transform="matrix(0.542998,0,0,0.542998,-311.201,-10.9443)">
        <g transform="matrix(6.12323e-17,1,-1,6.12323e-17,756.915,-441.015)">
            <rect x="571.62" y="133.43" width="0.93" height="12.99" style="fill:rgb(58,58,70);"/>
        </g>
        <g transform="matrix(6.12323e-17,1,-1,6.12323e-17,756.915,-441.015)">
            <rect x="587.13" y="133.43" width="0.93" height="12.97" style="fill:rgb(58,58,70);"/>
        </g>
        <g transform="matrix(6.12323e-17,1,-1,6.12323e-17,756.915,-441.015)">
            <rect x="570.83" y="133.43" width="25.6" height="3.29" style="fill:rgb(121,121,145);"/>
        </g>
        <g transform="matrix(6.12323e-17,1,-1,6.12323e-17,756.915,-441.015)">
            <path d="M595.72,134.44L570.36,134.44C570.08,134.44 569.86,134.22 569.86,133.94C569.86,133.66 570.08,133.44 570.36,133.44L596.55,133.44L595.71,134.44L595.72,134.44Z" style="fill:rgb(58,58,70);fill-rule:nonzero;"/>
        </g>
        <g transform="matrix(6.12323e-17,1,-1,6.12323e-17,756.915,-441.015)">
            <path d="M598.98,130.58L658.45,130.58C661.51,130.58 664.38,132.04 666.19,134.5L674.92,146.4L585.62,146.4L598.98,130.58Z" style="fill:rgb(58,58,70);fill-rule:nonzero;"/>
        </g>
        <g transform="matrix(6.12323e-17,1,-1,6.12323e-17,756.915,-441.015)">
            <path d="M678.75,146.4L670.02,134.5C670.02,134.5 669.97,134.43 669.94,134.39C669.47,133.77 668.74,133.43 667.97,133.43L600.41,133.43L589.46,146.4L678.76,146.4L678.75,146.4Z" style="fill:rgb(121,121,145);fill-rule:nonzero;"/>
        </g>
        <g transform="matrix(6.12323e-17,1,-1,6.12323e-17,756.915,-441.015)">
            <path d="M671.2,135.78L674.27,140.14L661.22,140.14L661.22,134.9L669.52,134.9C670.19,134.9 670.82,135.23 671.2,135.77L671.2,135.78Z" style="fill-rule:nonzero;"/>
            <rect x="651.18" y="134.91" width="7.74" height="5.24"/>
            <rect x="641.05" y="134.91" width="7.74" height="5.24"/>
            <rect x="630.92" y="134.91" width="7.74" height="5.24"/>
            <rect x="617.66" y="134.91" width="10.88" height="5.24"/>
        </g>
        <g transform="matrix(6.12323e-17,1,-1,6.12323e-17,756.915,-441.015)">
            <path d="M609.18,146.47L608.88,146.47L608.88,134.29L616.41,134.29L616.41,146.33L616.11,146.33L616.11,134.58L609.18,134.58L609.18,146.47Z" style="fill:rgb(78,78,94);fill-rule:nonzero;"/>
            <path d="M610.73,137.53C610.73,136.47 611.59,135.61 612.65,135.61C613.71,135.61 614.57,136.47 614.57,137.53C614.57,138.59 613.71,139.45 612.65,139.45C611.59,139.45 610.73,138.59 610.73,137.53Z" style="fill-rule:nonzero;"/>
        </g>
        <g transform="matrix(6.12323e-17,1,-1,6.12323e-17,756.915,-441.015)">
            <path d="M600.97,134.91L597.29,140.14L607.49,140.14L607.49,134.91L600.97,134.91Z" style="fill-rule:nonzero;"/>
        </g>
        <g transform="matrix(6.12323e-17,1,-1,6.12323e-17,756.915,-441.015)">
            <path d="M590.82,144.76L677.55,144.76L678.75,146.4L589.45,146.4L590.82,144.76Z" style="fill:rgb(78,78,94);fill-rule:nonzero;"/>
        </g>
    </g>
    <g transform="matrix(3.3249e-17,0.542998,-0.542998,3.3249e-17,99.8023,-250.415)">
        <rect x="604.58" y="128.58" width="8.06" height="2.01" style="fill:rgb(121,121,145);"/>
    </g>
    <g transform="matrix(3.3249e-17,0.542998,-0.542998,3.3249e-17,99.8023,-250.415)">
        <rect x="604.58" y="128.58" width="8.06" height="0.78" style="fill:rgb(78,78,94);"/>
    </g>
    <g transform="matrix(0.542998,0,0,0.542998,-311.201,-10.9443)">
        <g transform="matrix(6.12323e-17,1,-1,6.12323e-17,756.915,-441.015)">
            <rect x="565.68" y="142.5" width="121.39" height="0.48" style="fill:rgb(58,58,70);"/>
        </g>
        <g transform="matrix(6.12323e-17,1,-1,6.12323e-17,756.915,-441.015)">
            <rect x="566.07" y="142.98" width="0.33" height="3.4" style="fill:rgb(58,58,70);"/>
        </g>
        <g transform="matrix(6.12323e-17,1,-1,6.12323e-17,756.915,-441.015)">
            <rect x="568.3" y="142.98" width="0.33" height="3.4" style="fill:rgb(58,58,70);"/>
        </g>
        <g transform="matrix(6.12323e-17,1,-1,6.12323e-17,756.915,-441.015)">
            <rect x="570.52" y="142.98" width="0.33" height="3.4" style="fill:rgb(58,58,70);"/>
        </g>
        <g transform="matrix(6.12323e-17,1,-1,6.12323e-17,756.915,-441.015)">
            <rect x="572.74" y="142.98" width="0.33" height="3.4" style="fill:rgb(58,58,70);"/>
        </g>
        <g transform="matrix(6.12323e-17,1,-1,6.12323e-17,756.915,-441.015)">
            <rect x="574.96" y="142.98" width="0.33" height="3.4" style="fill:rgb(58,58,70);"/>
        </g>
        <g transform="matrix(6.12323e-17,1,-1,6.12323e-17,756.915,-441.015)">
            <rect x="577.18" y="142.98" width="0.33" height="3.4" style="fill:rgb(58,58,70);"/>
        </g>
        <g transform="matrix(6.12323e-17,1,-1,6.12323e-17,756.915,-441.015)">
            <rect x="579.4" y="142.98" width="0.33" height="3.4" style="fill:rgb(58,58,70);"/>
        </g>
        <g transform="matrix(6.12323e-17,1,-1,6.12323e-17,756.915,-441.015)">
            <rect x="581.62" y="142.98" width="0.33" height="3.4" style="fill:rgb(58,58,70);"/>
        </g>
        <g transform="matrix(6.12323e-17,1,-1,6.12323e-17,756.915,-441.015)">
            <rect x="583.84" y="142.98" width="0.33" height="3.4" style="fill:rgb(58,58,70);"/>
        </g>
        <g transform="matrix(6.12323e-17,1,-1,6.12323e-17,756.915,-441.015)">
            <rect x="586.07" y="142.98" width="0.33" height="3.4" style="fill:rgb(58,58,70);"/>
        </g>
        <g transform="matrix(6.12323e-17,1,-1,6.12323e-17,756.915,-441.015)">
            <rect x="588.29" y="142.98" width="0.33" height="3.4" style="fill:rgb(58,58,70);"/>
        </g>
        <g transform="matrix(6.12323e-17,1,-1,6.12323e-17,756.915,-441.015)">
            <rect x="590.51" y="142.98" width="0.33" height="3.4" style="fill:rgb(58,58,70);"/>
        </g>
        <g transform="matrix(6.12323e-17,1,-1,6.12323e-17,756.915,-441.015)">
            <rect x="592.73" y="142.98" width="0.33" height="3.4" style="fill:rgb(58,58,70);"/>
        </g>
        <g transform="matrix(6.12323e-17,1,-1,6.12323e-17,756.915,-441.015)">
            <rect x="594.99" y="142.98" width="0.33" height="3.4" style="fill:rgb(58,58,70);"/>
        </g>
        <g transform="matrix(6.12323e-17,1,-1,6.12323e-17,756.915,-441.015)">
            <rect x="597.22" y="142.98" width="0.33" height="3.4" style="fill:rgb(58,58,70);"/>
        </g>
        <g transform="matrix(6.12323e-17,1,-1,6.12323e-17,756.915,-441.015)">
            <rect x="599.44" y="142.98" width="0.33" height="3.4" style="fill:rgb(58,58,70);"/>
        </g>
        <g transform="matrix(6.12323e-17,1,-1,6.12323e-17,756.915,-441.015)">
            <rect x="601.66" y="142.98" width="0.33" height="3.4" style="fill:rgb(58,58,70);"/>
        </g>
        <g transform="matrix(6.12323e-17,1,-1,6.12323e-17,756.915,-441.015)">
            <rect x="603.88" y="142.98" width="0.33" height="3.4" style="fill:rgb(58,58,70);"/>
        </g>
        <g transform="matrix(6.12323e-17,1,-1,6.12323e-17,756.915,-441.015)">
            <rect x="606.1" y="142.98" width="0.33" height="3.4" style="fill:rgb(58,58,70);"/>
        </g>
        <g transform="matrix(6.12323e-17,1,-1,6.12323e-17,756.915,-441.015)">
            <rect x="608.32" y="142.98" width="0.33" height="3.4" style="fill:rgb(58,58,70);"/>
        </g>
        <g transform="matrix(6.12323e-17,1,-1,6.12323e-17,756.915,-441.015)">
            <rect x="610.54" y="142.98" width="0.33" height="3.4" style="fill:rgb(58,58,70);"/>
        </g>
        <g transform="matrix(6.12323e-17,1,-1,6.12323e-17,756.915,-441.015)">
            <rect x="612.76" y="142.98" width="0.33" height="3.4" style="fill:rgb(58,58,70);"/>
        </g>
        <g transform="matrix(6.12323e-17,1,-1,6.12323e-17,756.915,-441.015)">
            <rect x="614.99" y="142.98" width="0.33" height="3.4" style="fill:rgb(58,58,70);"/>
        </g>
        <g transform="matrix(6.12323e-17,1,-1,6.12323e-17,756.915,-441.015)">
            <rect x="617.21" y="142.98" width="0.33" height="3.4" style="fill:rgb(58,58,70);"/>
        </g>
        <g transform="matrix(6.12323e-17,1,-1,6.12323e-17,756.915,-441.015)">
            <rect x="619.43" y="142.98" width="0.33" height="3.4" style="fill:rgb(58,58,70);"/>
        </g>
        <g transform="matrix(6.12323e-17,1,-1,6.12323e-17,756.915,-441.015)">
            <rect x="621.65" y="142.98" width="0.33" height="3.4" style="fill:rgb(58,58,70);"/>
        </g>
        <g transform="matrix(6.12323e-17,1,-1,6.12323e-17,756.915,-441.015)">
            <rect x="623.91" y="142.98" width="0.33" height="3.4" style="fill:rgb(58,58,70);"/>
        </g>
        <g transform="matrix(6.12323e-17,1,-1,6.12323e-17,756.915,-441.015)">
            <rect x="626.14" y="142.98" width="0.33" height="3.4" style="fill:rgb(58,58,70);"/>
        </g>
        <g transform="matrix(6.12323e-17,1,-1,6.12323e-17,756.915,-441.015)">
            <rect x="628.36" y="142.98" width="0.33" height="3.4" style="fill:rgb(58,58,70);"/>
        </g>
        <g transform="matrix(6.12323e-17,1,-1,6.12323e-17,756.915,-441.015)">
            <rect x="630.58" y="142.98" width="0.33" height="3.4" style="fill:rgb(58,58,70);"/>
        </g>
        <g transform="matrix(6.12323e-17,1,-1,6.12323e-17,756.915,-441.015)">
            <rect x="632.8" y="142.98" width="0.33" height="3.4" style="fill:rgb(58,58,70);"/>
        </g>
        <g transform="matrix(6.12323e-17,1,-1,6.12323e-17,756.915,-441.015)">
            <rect x="635.02" y="142.98" width="0.33" height="3.4" style="fill:rgb(58,58,70);"/>
        </g>
        <g transform="matrix(6.12323e-17,1,-1,6.12323e-17,756.915,-441.015)">
            <rect x="637.24" y="142.98" width="0.33" height="3.4" style="fill:rgb(58,58,70);"/>
        </g>
        <g transform="matrix(6.12323e-17,1,-1,6.12323e-17,756.915,-441.015)">
            <rect x="639.46" y="142.98" width="0.33" height="3.4" style="fill:rgb(58,58,70);"/>
        </g>
        <g transform="matrix(6.12323e-17,1,-1,6.12323e-17,756.915,-441.015)">
            <rect x="641.68" y="142.98" width="0.33" height="3.4" style="fill:rgb(58,58,70);"/>
        </g>
        <g transform="matrix(6.12323e-17,1,-1,6.12323e-17,756.915,-441.015)">
            <rect x="643.91" y="142.98" width="0.33" height="3.4" style="fill:rgb(58,58,70);"/>
        </g>
        <g transform="matrix(6.12323e-17,1,-1,6.12323e-17,756.915,-441.015)">
            <rect x="646.13" y="142.98" width="0.33" height="3.4" style="fill:rgb(58,58,70);"/>
        </g>
        <g transform="matrix(6.12323e-17,1,-1,6.12323e-17,756.915,-441.015)">
            <rect x="648.35" y="142.98" width="0.33" height="3.4" style="fill:rgb(58,58,70);"/>
        </g>
        <g transform="matrix(6.12323e-17,1,-1,6.12323e-17,756.915,-441.015)">
            <rect x="650.57" y="142.98" width="0.33" height="3.4" style="fill:rgb(58,58,70);"/>
        </g>
        <g transform="matrix(6.12323e-17,1,-1,6.12323e-17,756.915,-441.015)">
            <rect x="652.84" y="142.98" width="0.33" height="3.4" style="fill:rgb(58,58,70);"/>
        </g>
        <g transform="matrix(6.12323e-17,1,-1,6.12323e-17,756.915,-441.015)">
            <rect x="655.06" y="142.98" width="0.33" height="3.4" style="fill:rgb(58,58,70);"/>
        </g>
        <g transform="matrix(6.12323e-17,1,-1,6.12323e-17,756.915,-441.015)">
            <rect x="657.28" y="142.98" width="0.33" height="3.4" style="fill:rgb(58,58,70);"/>
        </g>
        <g transform="matrix(6.12323e-17,1,-1,6.12323e-17,756.915,-441.015)">
            <rect x="659.5" y="142.98" width="0.33" height="3.4" style="fill:rgb(58,58,70);"/>
        </g>
        <g transform="matrix(6.12323e-17,1,-1,6.12323e-17,756.915,-441.015)">
            <rect x="661.72" y="142.98" width="0.33" height="3.4" style="fill:rgb(58,58,70);"/>
        </g>
        <g transform="matrix(6.12323e-17,1,-1,6.12323e-17,756.915,-441.015)">
            <rect x="663.94" y="142.98" width="0.33" height="3.4" style="fill:rgb(58,58,70);"/>
        </g>
        <g transform="matrix(6.12323e-17,1,-1,6.12323e-17,756.915,-441.015)">
            <rect x="666.16" y="142.98" width="0.33" height="3.4" style="fill:rgb(58,58,70);"/>
        </g>
        <g transform="matrix(6.12323e-17,1,-1,6.12323e-17,756.915,-441.015)">
            <rect x="668.38" y="142.98" width="0.33" height="3.4" style="fill:rgb(58,58,70);"/>
        </g>
        <g transform="matrix(6.12323e-17,1,-1,6.12323e-17,756.915,-441.015)">
            <rect x="670.6" y="142.98" width="0.33" height="3.4" style="fill:rgb(58,58,70);"/>
        </g>
        <g transform="matrix(6.12323e-17,1,-1,6.12323e-17,756.915,-441.015)">
            <rect x="672.83" y="142.98" width="0.33" height="3.4" style="fill:rgb(58,58,70);"/>
        </g>
        <g transform="matrix(6.12323e-17,1,-1,6.12323e-17,756.915,-441.015)">
            <rect x="675.05" y="142.98" width="0.33" height="3.4" style="fill:rgb(58,58,70);"/>
        </g>
        <g transform="matrix(6.12323e-17,1,-1,6.12323e-17,756.915,-441.015)">
            <rect x="677.27" y="142.98" width="0.33" height="3.4" style="fill:rgb(58,58,70);"/>
        </g>
        <g transform="matrix(6.12323e-17,1,-1,6.12323e-17,756.915,-441.015)">
            <rect x="679.49" y="142.98" width="0.33" height="3.4" style="fill:rgb(58,58,70);"/>
        </g>
        <g transform="matrix(6.12323e-17,1,-1,6.12323e-17,756.915,-441.015)">
            <rect x="681.76" y="142.98" width="0.33" height="3.4" style="fill:rgb(58,58,70);"/>
        </g>
        <g transform="matrix(6.12323e-17,1,-1,6.12323e-17,756.915,-441.015)">
            <rect x="683.98" y="142.98" width="0.33" height="3.4" style="fill:rgb(58,58,70);"/>
        </g>
        <g transform="matrix(6.12323e-17,1,-1,6.12323e-17,756.915,-441.015)">
            <rect x="686.2" y="142.98" width="0.33" height="3.4" style="fill:rgb(58,58,70);"/>
        </g>
    </g>
    <g transform="matrix(3.3249e-17,0.542998,-0.945683,5.79064e-17,158.739,-250.415)">
        <path d="M564.46,146.36L679.392,146.36L697.35,161.26L564.46,161.26L564.46,146.36Z" style="fill:rgb(121,121,145);fill-rule:nonzero;"/>
    </g>
    <g transform="matrix(3.3249e-17,0.542998,-0.542998,3.3249e-17,93.8023,-250.415)">
        <path d="M686.13,159.03L564.49,159.03L564.49,161.26L683.74,161.26L686.13,159.03Z" style="fill:rgb(78,78,94);fill-rule:nonzero;"/>
    </g>
    <g transform="matrix(0.542998,0,0,0.542998,-311.201,-4.9443)">
        <g transform="matrix(6.12323e-17,1,-1,6.12323e-17,745.865,-452.065)">
            <path d="M686.73,151.03L689.19,154.52C689.39,154.81 689.19,155.21 688.83,155.21L677.06,155.21C676.82,155.21 676.62,155.01 676.62,154.77L676.62,150.41C676.62,150.17 676.82,149.97 677.06,149.97L684.69,149.97C685.5,149.97 686.26,150.36 686.73,151.03Z" style="fill-rule:nonzero;"/>
        </g>
        <g transform="matrix(6.12323e-17,1,-1,6.12323e-17,745.865,-452.065)">
            <path d="M674.32,150.79C674.32,150.343 673.957,149.98 673.51,149.98L667.39,149.98C666.943,149.98 666.58,150.343 666.58,150.79L666.58,154.41C666.58,154.857 666.943,155.22 667.39,155.22L673.51,155.22C673.957,155.22 674.32,154.857 674.32,154.41L674.32,150.79Z"/>
        </g>
        <g transform="matrix(6.12323e-17,1,-1,6.12323e-17,745.865,-452.065)">
            <path d="M664.19,150.79C664.19,150.343 663.827,149.98 663.38,149.98L657.26,149.98C656.813,149.98 656.45,150.343 656.45,150.79L656.45,154.41C656.45,154.857 656.813,155.22 657.26,155.22L663.38,155.22C663.827,155.22 664.19,154.857 664.19,154.41L664.19,150.79Z"/>
        </g>
        <g transform="matrix(6.12323e-17,1,-1,6.12323e-17,745.865,-452.065)">
            <path d="M654.06,150.79C654.06,150.343 653.697,149.98 653.25,149.98L647.13,149.98C646.683,149.98 646.32,150.343 646.32,150.79L646.32,154.41C646.32,154.857 646.683,155.22 647.13,155.22L653.25,155.22C653.697,155.22 654.06,154.857 654.06,154.41L654.06,150.79Z"/>
        </g>
        <g transform="matrix(6.12323e-17,1,-1,6.12323e-17,745.865,-452.065)">
            <path d="M622.11,150.79C622.11,150.343 621.747,149.98 621.3,149.98L615.18,149.98C614.733,149.98 614.37,150.343 614.37,150.79L614.37,154.41C614.37,154.857 614.733,155.22 615.18,155.22L621.3,155.22C621.747,155.22 622.11,154.857 622.11,154.41L622.11,150.79Z"/>
        </g>
        <g transform="matrix(6.12323e-17,1,-1,6.12323e-17,745.865,-452.065)">
            <path d="M611.98,150.79C611.98,150.343 611.617,149.98 611.17,149.98L605.05,149.98C604.603,149.98 604.24,150.343 604.24,150.79L604.24,154.41C604.24,154.857 604.603,155.22 605.05,155.22L611.17,155.22C611.617,155.22 611.98,154.857 611.98,154.41L611.98,150.79Z"/>
        </g>
        <g transform="matrix(6.12323e-17,1,-1,6.12323e-17,745.865,-452.065)">
            <path d="M601.78,150.79C601.78,150.343 601.417,149.98 600.97,149.98L594.85,149.98C594.403,149.98 594.04,150.343 594.04,150.79L594.04,154.41C594.04,154.857 594.403,155.22 594.85,155.22L600.97,155.22C601.417,155.22 601.78,154.857 601.78,154.41L601.78,150.79Z"/>
        </g>
        <g transform="matrix(6.12323e-17,1,-1,6.12323e-17,745.865,-452.065)">
            <path d="M591.66,150.79C591.66,150.343 591.297,149.98 590.85,149.98L584.73,149.98C584.283,149.98 583.92,150.343 583.92,150.79L583.92,154.41C583.92,154.857 584.283,155.22 584.73,155.22L590.85,155.22C591.297,155.22 591.66,154.857 591.66,154.41L591.66,150.79Z"/>
        </g>
        <g transform="matrix(6.12323e-17,1,-1,6.12323e-17,745.865,-452.065)">
            <path d="M581.62,150.79C581.62,150.343 581.257,149.98 580.81,149.98L574.69,149.98C574.243,149.98 573.88,150.343 573.88,150.79L573.88,154.41C573.88,154.857 574.243,155.22 574.69,155.22L580.81,155.22C581.257,155.22 581.62,154.857 581.62,154.41L581.62,150.79Z"/>
        </g>
        <g transform="matrix(6.12323e-17,1,-1,6.12323e-17,745.865,-452.065)">
            <path d="M643.94,150.79C643.94,150.343 643.577,149.98 643.13,149.98L633.87,149.98C633.423,149.98 633.06,150.343 633.06,150.79L633.06,154.41C633.06,154.857 633.423,155.22 633.87,155.22L643.13,155.22C643.577,155.22 643.94,154.857 643.94,154.41L643.94,150.79Z"/>
        </g>
    </g>
    <g transform="matrix(0.542998,0,0,0.542998,-311.201,-4.9443)">
        <g transform="matrix(6.12323e-17,1,-1,6.12323e-17,745.865,-452.065)">
            <path d="M624.57,161.54L624.28,161.54L624.28,149.36L631.8,149.36L631.8,161.39L631.51,161.39L631.51,149.65L624.57,149.65L624.57,161.54Z" style="fill:rgb(78,78,94);fill-rule:nonzero;"/>
        </g>
        <g transform="matrix(6.12323e-17,1,-1,6.12323e-17,745.865,-452.065)">
            <path d="M626.12,152.59C626.12,151.53 626.98,150.67 628.04,150.67C629.1,150.67 629.96,151.53 629.96,152.59C629.96,153.65 629.1,154.51 628.04,154.51C626.98,154.51 626.12,153.65 626.12,152.59Z" style="fill-rule:nonzero;"/>
        </g>
        <g transform="matrix(6.12323e-17,1,-1,6.12323e-17,756.915,-452.065)">
            <path d="M626.12,152.59C626.12,151.53 626.98,150.67 628.04,150.67C629.1,150.67 629.96,151.53 629.96,152.59C629.96,153.65 629.1,154.51 628.04,154.51C626.98,154.51 626.12,153.65 626.12,152.59Z" style="fill-rule:nonzero;"/>
        </g>
        <g transform="matrix(6.12323e-17,1,-1,6.12323e-17,756.915,-442.857)">
            <path d="M626.12,152.59C626.12,151.53 626.98,150.67 628.04,150.67C629.1,150.67 629.96,151.53 629.96,152.59C629.96,153.65 629.1,154.51 628.04,154.51C626.98,154.51 626.12,153.65 626.12,152.59Z" style="fill-rule:nonzero;"/>
        </g>
        <g transform="matrix(6.12323e-17,1,-1,6.12323e-17,756.915,-470.481)">
            <path d="M626.12,152.59C626.12,151.53 626.98,150.67 628.04,150.67C629.1,150.67 629.96,151.53 629.96,152.59C629.96,153.65 629.1,154.51 628.04,154.51C626.98,154.51 626.12,153.65 626.12,152.59Z" style="fill-rule:nonzero;"/>
        </g>
        <g transform="matrix(6.12323e-17,1,-1,6.12323e-17,756.915,-461.273)">
            <path d="M626.12,152.59C626.12,151.53 626.98,150.67 628.04,150.67C629.1,150.67 629.96,151.53 629.96,152.59C629.96,153.65 629.1,154.51 628.04,154.51C626.98,154.51 626.12,153.65 626.12,152.59Z" style="fill-rule:nonzero;"/>
        </g>
        <g transform="matrix(6.12323e-17,1,-1,6.12323e-17,756.915,-488.897)">
            <path d="M626.12,152.59C626.12,151.53 626.98,150.67 628.04,150.67C629.1,150.67 629.96,151.53 629.96,152.59C629.96,153.65 629.1,154.51 628.04,154.51C626.98,154.51 626.12,153.65 626.12,152.59Z" style="fill-rule:nonzero;"/>
        </g>
        <g transform="matrix(6.12323e-17,1,-1,6.12323e-17,756.915,-479.689)">
            <path d="M626.12,152.59C626.12,151.53 626.98,150.67 628.04,150.67C629.1,150.67 629.96,151.53 629.96,152.59C629.96,153.65 629.1,154.51 628.04,154.51C626.98,154.51 626.12,153.65 626.12,152.59Z" style="fill-rule:nonzero;"/>
        </g>
        <g transform="matrix(6.12323e-17,1,-1,6.12323e-17,756.915,-507.314)">
            <path d="M626.12,152.59C626.12,151.53 626.98,150.67 628.04,150.67C629.1,150.67 629.96,151.53 629.96,152.59C629.96,153.65 629.1,154.51 628.04,154.51C626.98,154.51 626.12,153.65 626.12,152.59Z" style="fill-rule:nonzero;"/>
        </g>
        <g transform="matrix(6.12323e-17,1,-1,6.12323e-17,756.915,-498.106)">
            <path d="M626.12,152.59C626.12,151.53 626.98,150.67 628.04,150.67C629.1,150.67 629.96,151.53 629.96,152.59C629.96,153.65 629.1,154.51 628.04,154.51C626.98,154.51 626.12,153.65 626.12,152.59Z" style="fill-rule:nonzero;"/>
        </g>
        <g transform="matrix(6.12323e-17,1,-1,6.12323e-17,756.915,-433.649)">
            <path d="M626.12,152.59C626.12,151.53 626.98,150.67 628.04,150.67C629.1,150.67 629.96,151.53 629.96,152.59C629.96,153.65 629.1,154.51 628.04,154.51C626.98,154.51 626.12,153.65 626.12,152.59Z" style="fill-rule:nonzero;"/>
        </g>
        <g transform="matrix(6.12323e-17,1,-1,6.12323e-17,756.915,-424.44)">
            <path d="M626.12,152.59C626.12,151.53 626.98,150.67 628.04,150.67C629.1,150.67 629.96,151.53 629.96,152.59C629.96,153.65 629.1,154.51 628.04,154.51C626.98,154.51 626.12,153.65 626.12,152.59Z" style="fill-rule:nonzero;"/>
        </g>
        <g transform="matrix(6.12323e-17,1,-1,6.12323e-17,756.915,-415.232)">
            <path d="M626.12,152.59C626.12,151.53 626.98,150.67 628.04,150.67C629.1,150.67 629.96,151.53 629.96,152.59C629.96,153.65 629.1,154.51 628.04,154.51C626.98,154.51 626.12,153.65 626.12,152.59Z" style="fill-rule:nonzero;"/>
        </g>
        <g transform="matrix(6.12323e-17,1,-1,6.12323e-17,756.915,-406.024)">
            <path d="M626.12,152.59C626.12,151.53 626.98,150.67 628.04,150.67C629.1,150.67 629.96,151.53 629.96,152.59C629.96,153.65 629.1,154.51 628.04,154.51C626.98,154.51 626.12,153.65 626.12,152.59Z" style="fill-rule:nonzero;"/>
        </g>
    </g>
    <g transform="matrix(0.542998,0,0,0.542998,-311.201,-4.9443)">
        <g transform="matrix(6.12323e-17,1,-1,6.12323e-17,745.865,-452.065)">
            <path d="M565.83,161.54L565.54,161.54L565.54,149.36L573.06,149.36L573.06,161.39L572.77,161.39L572.77,149.65L565.83,149.65L565.83,161.54Z" style="fill:rgb(78,78,94);fill-rule:nonzero;"/>
        </g>
        <g transform="matrix(6.12323e-17,1,-1,6.12323e-17,745.865,-452.065)">
            <path d="M567.38,152.59C567.38,151.53 568.24,150.67 569.3,150.67C570.36,150.67 571.22,151.53 571.22,152.59C571.22,153.65 570.36,154.51 569.3,154.51C568.24,154.51 567.38,153.65 567.38,152.59Z" style="fill-rule:nonzero;"/>
        </g>
    </g>
    <g transform="matrix(3.3249e-17,0.542998,-0.542998,3.3249e-17,99.8023,-250.415)">
        <rect x="564.46" y="146.36" width="125.57" height="0.85" style="fill:rgb(58,58,70);"/>
    </g>
    <g transform="matrix(0.542998,0,0,0.542998,-311.201,-4.9443)">
        <g transform="matrix(6.12323e-17,1,-1,6.12323e-17,745.865,-452.065)">
            <path d="M459.86,161.26L650.49,161.26C650.82,161.26 651.08,161.53 651.08,161.85C651.08,162.17 650.81,162.44 650.49,162.44L459.86,162.44C459.53,162.44 459.27,162.17 459.27,161.85C459.27,161.53 459.54,161.26 459.86,161.26Z" style="fill:rgb(21,21,26);fill-rule:nonzero;"/>
        </g>
        <g transform="matrix(6.12323e-17,1,-1,6.12323e-17,745.865,-452.065)">
            <path d="M463.85,162.45L658.42,162.45L658.42,175.7L473.89,175.7L463.85,162.45Z" style="fill:rgb(58,58,70);fill-rule:nonzero;"/>
        </g>
        <g transform="matrix(6.12323e-17,1,-1,6.12323e-17,745.865,-452.065)">
            <rect x="684.09" y="151.66" width="4.29" height="2.64"/>
        </g>
        <g transform="matrix(6.12323e-17,1,-1,6.12323e-17,745.865,-452.065)">
            <rect x="677.62" y="151.66" width="4.29" height="2.64"/>
        </g>
        <g transform="matrix(6.12323e-17,1,-1,6.12323e-17,745.865,-452.065)">
            <rect x="671.15" y="151.66" width="4.29" height="2.64"/>
        </g>
        <g transform="matrix(6.12323e-17,1,-1,6.12323e-17,745.865,-452.065)">
            <path d="M649.81,164.26L465.21,164.26L463.85,162.45L649.81,162.45L649.81,164.26Z" style="fill:rgb(78,78,94);fill-rule:nonzero;"/>
        </g>
        <g transform="matrix(6.12323e-17,1,-1,6.12323e-17,745.865,-452.065)">
            <path d="M631.97,175.7L705.96,175.7L738.66,149.19L686.39,149.19C672.34,149.19 658.71,154.02 647.8,162.87L631.97,175.7Z" style="fill:rgb(78,78,94);fill-rule:nonzero;"/>
        </g>
        <g transform="matrix(6.12323e-17,1,-1,6.12323e-17,745.865,-452.065)">
            <path d="M688.15,150.05L737.6,150.05L738.66,149.19L686.39,149.19C672.34,149.19 658.71,154.02 647.8,162.87L631.97,175.7L633.73,175.7L649.56,163.29C660.48,154.73 674.1,150.06 688.15,150.06L688.15,150.05Z" style="fill:rgb(21,21,26);fill-rule:nonzero;"/>
        </g>
        <g transform="matrix(6.12323e-17,1,-1,6.12323e-17,745.865,-452.065)">
            <path d="M707.21,165.4L700.87,170.11C700.42,170.44 699.79,170.63 699.14,170.63L684.57,170.63C689.65,167.27 696.41,165.4 703.45,165.4L707.21,165.4Z" style="fill:rgb(44,44,54);fill-rule:nonzero;"/>
        </g>
        <g transform="matrix(6.12323e-17,1,-1,6.12323e-17,745.865,-452.065)">
            <path d="M707.74,165.4C709.01,165.4 709.58,166.83 708.6,167.56L705.17,170.11C704.72,170.44 704.09,170.63 703.44,170.63L688.87,170.63C693.95,167.27 700.71,165.4 707.75,165.4L707.74,165.4Z" style="fill:rgb(21,21,26);fill-rule:nonzero;"/>
        </g>
        <g transform="matrix(6.12323e-17,1,-1,6.12323e-17,745.865,-452.065)">
            <path d="M470.84,171.75L636.84,171.75L641.45,168.02L468.07,168.02L470.84,171.75Z" style="fill:rgb(78,78,94);fill-rule:nonzero;"/>
        </g>
    </g>
    <g transform="matrix(3.3249e-17,0.542998,-0.542998,3.3249e-17,93.8023,-250.415)">
        <path d="M680.76,155.52L721.07,155.52C721.77,155.52 722.34,154.95 722.34,154.25C722.34,153.55 721.77,152.98 721.07,152.98L680.76,152.98C680.06,152.98 679.49,153.55 679.49,154.25C679.49,154.95 680.06,155.52 680.76,155.52Z" style="fill:rgb(58,58,70);fill-rule:nonzero;"/>
    </g>
    <g transform="matrix(3.3249e-17,0.542998,-0.542998,3.3249e-17,93.8023,-250.415)">
        <path d="M679.82,169.29C679.82,168.589 679.251,168.02 678.55,168.02L647.59,168.02C646.889,168.02 646.32,168.589 646.32,169.29C646.32,169.991 646.889,170.56 647.59,170.56L678.55,170.56C679.251,170.56 679.82,169.991 679.82,169.29Z" style="fill:rgb(58,58,70);"/>
    </g>
    <g transform="matrix(0.542998,0,0,0.542998,-311.201,-4.9443)">
        <g transform="matrix(6.12323e-17,1,-1,6.12323e-17,745.865,-452.065)">
            <path d="M511.32,160.46L501.93,160.46C500.16,160.46 498.72,159.01 498.72,157.25C498.72,155.49 500.17,154.04 501.93,154.04L511.32,154.04C513.09,154.04 514.53,155.49 514.53,157.25C514.53,159.01 513.08,160.46 511.32,160.46Z" style="fill:rgb(78,78,94);fill-rule:nonzero;"/>
        </g>
        <g transform="matrix(6.12323e-17,1,-1,6.12323e-17,745.865,-452.065)">
            <path d="M523.16,158.08L512.41,158.08C511.93,158.08 511.53,157.68 511.53,157.2C511.53,156.72 511.93,156.32 512.41,156.32L523.16,156.32C523.64,156.32 524.04,156.72 524.04,157.2C524.04,157.68 523.64,158.08 523.16,158.08Z" style="fill:rgb(78,78,94);fill-rule:nonzero;"/>
        </g>
        <g transform="matrix(6.12323e-17,1,-1,6.12323e-17,745.865,-452.065)">
            <path d="M524.04,157.2L526.38,153.77L523.2,153.77L520.31,156.32L524.04,157.2Z" style="fill:rgb(58,58,70);fill-rule:nonzero;"/>
        </g>
        <g transform="matrix(6.12323e-17,1,-1,6.12323e-17,745.865,-452.065)">
            <path d="M506.25,155.2C506.05,155.2 505.88,155.03 505.88,154.83L505.88,152.7C505.88,152.5 506.05,152.33 506.25,152.33C506.45,152.33 506.62,152.5 506.62,152.7L506.62,154.83C506.62,155.03 506.45,155.2 506.25,155.2Z" style="fill:rgb(78,78,94);fill-rule:nonzero;"/>
        </g>
        <g transform="matrix(6.12323e-17,1,-1,6.12323e-17,745.865,-452.065)">
            <path d="M519.38,152.78L493.12,152.78C493.04,152.78 492.97,152.71 492.97,152.63C492.97,152.55 493.04,152.48 493.12,152.48L519.38,152.48C519.46,152.48 519.53,152.55 519.53,152.63C519.53,152.71 519.46,152.78 519.38,152.78Z" style="fill:rgb(78,78,94);fill-rule:nonzero;"/>
        </g>
        <g transform="matrix(6.12323e-17,1,-1,6.12323e-17,745.865,-452.065)">
            <rect x="502.31" y="160.07" width="0.38" height="0.93" style="fill:rgb(58,58,70);"/>
        </g>
        <g transform="matrix(6.12323e-17,1,-1,6.12323e-17,745.865,-452.065)">
            <rect x="509.82" y="160.07" width="0.38" height="0.93" style="fill:rgb(58,58,70);"/>
        </g>
        <g transform="matrix(-1,-3.21625e-16,3.21625e-16,-1,1091.71,215.775)">
            <rect x="506.65" y="153.31" width="0.38" height="15.38" style="fill:rgb(58,58,70);"/>
        </g>
        <g transform="matrix(6.12323e-17,1,-1,6.12323e-17,745.865,-452.065)">
            <path d="M504.79,157.03L499.16,157.03C499.16,155.67 500.26,154.57 501.61,154.57L504.79,154.57L504.79,157.03Z" style="fill:rgb(58,58,70);fill-rule:nonzero;"/>
        </g>
    </g>
    <g transform="matrix(0.542998,0,0,0.542998,-311.201,-4.9443)">
        <g transform="matrix(6.12323e-17,1,-1,6.12323e-17,745.865,-452.065)">
            <path d="M547.21,160.46L537.82,160.46C536.05,160.46 534.61,159.01 534.61,157.25C534.61,155.49 536.06,154.04 537.82,154.04L547.21,154.04C548.98,154.04 550.42,155.49 550.42,157.25C550.42,159.01 548.97,160.46 547.21,160.46Z" style="fill:rgb(78,78,94);fill-rule:nonzero;"/>
        </g>
        <g transform="matrix(6.12323e-17,1,-1,6.12323e-17,745.865,-452.065)">
            <path d="M559.05,158.08L548.3,158.08C547.82,158.08 547.42,157.68 547.42,157.2C547.42,156.72 547.82,156.32 548.3,156.32L559.05,156.32C559.53,156.32 559.93,156.72 559.93,157.2C559.93,157.68 559.53,158.08 559.05,158.08Z" style="fill:rgb(78,78,94);fill-rule:nonzero;"/>
        </g>
        <g transform="matrix(6.12323e-17,1,-1,6.12323e-17,745.865,-452.065)">
            <path d="M559.93,157.2L562.27,153.77L559.09,153.77L556.2,156.32L559.93,157.2Z" style="fill:rgb(58,58,70);fill-rule:nonzero;"/>
        </g>
        <g transform="matrix(6.12323e-17,1,-1,6.12323e-17,745.865,-452.065)">
            <path d="M542.14,155.2C541.94,155.2 541.77,155.03 541.77,154.83L541.77,152.7C541.77,152.5 541.94,152.33 542.14,152.33C542.34,152.33 542.51,152.5 542.51,152.7L542.51,154.83C542.51,155.03 542.34,155.2 542.14,155.2Z" style="fill:rgb(78,78,94);fill-rule:nonzero;"/>
        </g>
        <g transform="matrix(6.12323e-17,1,-1,6.12323e-17,745.865,-452.065)">
            <path d="M555.27,152.78L529.01,152.78C528.93,152.78 528.86,152.71 528.86,152.63C528.86,152.55 528.93,152.48 529.01,152.48L555.27,152.48C555.35,152.48 555.42,152.55 555.42,152.63C555.42,152.71 555.35,152.78 555.27,152.78Z" style="fill:rgb(78,78,94);fill-rule:nonzero;"/>
        </g>
        <g transform="matrix(6.12323e-17,1,-1,6.12323e-17,745.865,-452.065)">
            <rect x="538.2" y="160.07" width="0.38" height="0.93" style="fill:rgb(58,58,70);"/>
        </g>
        <g transform="matrix(6.12323e-17,1,-1,6.12323e-17,745.865,-452.065)">
            <rect x="545.71" y="160.07" width="0.38" height="0.93" style="fill:rgb(58,58,70);"/>
        </g>
        <g transform="matrix(-1,-3.21625e-16,3.21625e-16,-1,1127.6,251.665)">
            <rect x="542.54" y="153.31" width="0.38" height="15.38" style="fill:rgb(58,58,70);"/>
        </g>
        <g transform="matrix(6.12323e-17,1,-1,6.12323e-17,745.865,-452.065)">
            <path d="M540.68,157.03L535.05,157.03C535.05,155.67 536.15,154.57 537.5,154.57L540.68,154.57L540.68,157.03Z" style="fill:rgb(58,58,70);fill-rule:nonzero;"/>
        </g>
    </g>
</svg>
