<?xml version="1.0" encoding="UTF-8" standalone="no"?>
<!DOCTYPE svg PUBLIC "-//W3C//DTD SVG 1.1//EN" "http://www.w3.org/Graphics/SVG/1.1/DTD/svg11.dtd">
<svg width="100%" height="100%" viewBox="0 0 30 60" version="1.1" xmlns="http://www.w3.org/2000/svg" xmlns:xlink="http://www.w3.org/1999/xlink" xml:space="preserve" xmlns:serif="http://www.serif.com/" style="fill-rule:evenodd;clip-rule:evenodd;stroke-linejoin:round;stroke-miterlimit:2;">
    <g transform="matrix(2.12907e-17,0.347704,-0.322643,1.97562e-17,134.674,-191.928)">
        <path d="M648.12,376.2L644.85,376.2L632.57,341.85L635.84,341.85L648.12,376.2Z" style="fill:rgb(121,121,145);fill-rule:nonzero;"/>
    </g>
    <g transform="matrix(2.12907e-17,0.347704,-0.397546,2.43427e-17,162.853,-191.928)">
        <rect x="634.43" y="349.01" width="17.2" height="1.88" style="fill:rgb(78,78,94);"/>
    </g>
    <g transform="matrix(2.12907e-17,0.347704,-0.397546,2.43427e-17,162.853,-191.928)">
        <rect x="636.39" y="354.5" width="17.2" height="1.88" style="fill:rgb(78,78,94);"/>
    </g>
    <g transform="matrix(2.12907e-17,0.347704,-0.397546,2.43427e-17,162.853,-191.928)">
        <rect x="638.55" y="360.28" width="17.2" height="1.88" style="fill:rgb(78,78,94);"/>
    </g>
    <g transform="matrix(2.12907e-17,0.347704,-0.540608,3.31027e-17,216.574,-191.928)">
        <path d="M554.21,382.5L705.49,384.35L705.49,375.51L563.392,375.51L554.21,382.5Z" style="fill:rgb(58,58,70);fill-rule:nonzero;"/>
    </g>
    <g transform="matrix(1.71568e-17,0.280192,-0.718537,4.39977e-17,283.264,-147.744)">
        <path d="M712.21,389.37L539.7,389.37L529.53,380.47L675.31,380.72L738.67,369.78L712.21,389.37Z" style="fill:rgb(78,78,94);fill-rule:nonzero;"/>
    </g>
    <g transform="matrix(1.70688e-17,0.278755,-0.293126,1.79488e-17,117.622,-147.22)">
        <path d="M717.29,400.31L564.61,400.31C563.82,400.31 563.41,399.36 563.95,398.79C565.57,397.08 564.66,394.25 562.35,393.8L539.69,389.37L712.45,389.37L717.28,400.31L717.29,400.31Z" style="fill:rgb(58,58,70);fill-rule:nonzero;"/>
    </g>
    <g transform="matrix(2.12907e-17,0.347704,-1.07387,6.57556e-17,416.821,-191.928)">
        <path d="M627.86,375.51L576.85,375.51L584.47,365.16L627.86,365.16L627.86,375.51Z" style="fill:rgb(121,121,145);fill-rule:nonzero;"/>
    </g>
    <g transform="matrix(2.12907e-17,0.347704,-0.397546,2.43427e-17,169.853,-191.928)">
        <path d="M627.86,365.16L597,365.16L601.61,354.81L627.86,354.81L627.86,365.16Z" style="fill:rgb(104,104,125);fill-rule:nonzero;"/>
    </g>
    <g transform="matrix(2.12907e-17,0.347704,-0.397546,2.43427e-17,162.853,-191.928)">
        <path d="M666.07,375.51L645.85,375.51L648.87,349L660.81,349L666.07,375.51Z" style="fill:rgb(104,104,125);fill-rule:nonzero;"/>
    </g>
    <g transform="matrix(2.12907e-17,0.347704,-0.397546,2.43427e-17,162.853,-191.928)">
        <path d="M640.3,375.51L619.54,375.51L622.64,368.55L640.3,368.55L640.3,375.51Z" style="fill:rgb(104,104,125);fill-rule:nonzero;"/>
    </g>
    <g transform="matrix(2.12907e-17,0.347704,-0.397546,2.43427e-17,169.853,-191.928)">
        <rect x="603.31" y="353.04" width="7.14" height="1.78" style="fill:rgb(121,121,145);"/>
    </g>
    <g transform="matrix(2.12907e-17,0.347704,-0.397546,2.43427e-17,169.853,-191.928)">
        <rect x="602.36" y="351.26" width="9.05" height="1.78" style="fill:rgb(121,121,145);"/>
    </g>
    <g transform="matrix(2.12907e-17,0.347704,-0.397546,2.43427e-17,169.853,-191.928)">
        <rect x="603.31" y="353.04" width="7.14" height="0.69" style="fill:rgb(104,104,125);"/>
    </g>
    <g transform="matrix(2.12907e-17,0.347704,-0.397546,2.43427e-17,169.853,-191.928)">
        <path d="M607.35,358.53L627.86,358.53L627.86,356.61L608.17,356.61L607.35,358.53Z" style="fill-rule:nonzero;"/>
    </g>
    <g transform="matrix(2.12907e-17,0.347704,-0.397546,2.43427e-17,169.853,-191.928)">
        <path d="M606.21,361.3L627.86,361.3L627.86,359.37L607.03,359.37L606.21,361.3Z" style="fill-rule:nonzero;"/>
    </g>
    <g transform="matrix(2.12907e-17,0.347704,-0.397546,2.43427e-17,169.853,-191.928)">
        <path d="M605.08,364.15L627.86,364.15L627.86,362.22L605.9,362.22L605.08,364.15Z" style="fill-rule:nonzero;"/>
    </g>
    <g transform="matrix(2.12907e-17,0.347704,-0.397546,2.43427e-17,162.853,-191.928)">
        <path d="M690.33,375.5L659.46,375.5L664.08,365.15L690.33,365.15L690.33,375.5Z" style="fill:rgb(121,121,145);fill-rule:nonzero;"/>
    </g>
    <g transform="matrix(2.12907e-17,0.347704,-0.397546,2.43427e-17,162.853,-191.928)">
        <rect x="665.77" y="363.37" width="7.14" height="1.78" style="fill:rgb(121,121,145);"/>
    </g>
    <g transform="matrix(2.12907e-17,0.347704,-0.397546,2.43427e-17,162.853,-191.928)">
        <rect x="665.77" y="363.37" width="7.14" height="0.69" style="fill:rgb(104,104,125);"/>
    </g>
    <g transform="matrix(2.12907e-17,0.347704,-0.397546,2.43427e-17,162.853,-191.928)">
        <path d="M669.81,368.87L690.33,368.87L690.33,366.94L670.63,366.94L669.81,368.87Z" style="fill-rule:nonzero;"/>
    </g>
    <g transform="matrix(2.12907e-17,0.347704,-0.397546,2.43427e-17,162.853,-191.928)">
        <path d="M668.67,371.64L690.33,371.64L690.33,369.71L669.49,369.71L668.67,371.64Z" style="fill-rule:nonzero;"/>
    </g>
    <g transform="matrix(2.12907e-17,0.347704,-0.397546,2.43427e-17,162.853,-191.928)">
        <path d="M667.55,374.48L690.33,374.48L690.33,372.55L668.36,372.55L667.55,374.48Z" style="fill-rule:nonzero;"/>
    </g>
    <g transform="matrix(2.12907e-17,0.347704,-0.397546,2.43427e-17,164.853,-191.928)">
        <rect x="587.85" y="367.12" width="32.36" height="1.43"/>
    </g>
    <g transform="matrix(2.12907e-17,0.347704,-0.397546,2.43427e-17,164.853,-191.928)">
        <rect x="587.85" y="369.62" width="32.36" height="1.43"/>
    </g>
    <g transform="matrix(2.12907e-17,0.347704,-0.397546,2.43427e-17,164.853,-191.928)">
        <rect x="587.85" y="372.12" width="32.36" height="1.43"/>
    </g>
    <g transform="matrix(2.12907e-17,0.347704,-0.397546,2.43427e-17,167.853,-191.928)">
        <rect x="587.85" y="367.12" width="32.36" height="1.43"/>
    </g>
    <g transform="matrix(2.12907e-17,0.347704,-0.397546,2.43427e-17,167.853,-191.928)">
        <rect x="587.85" y="369.62" width="32.36" height="1.43"/>
    </g>
    <g transform="matrix(2.12907e-17,0.347704,-0.397546,2.43427e-17,167.853,-191.928)">
        <rect x="587.85" y="372.12" width="32.36" height="1.43"/>
    </g>
    <g transform="matrix(0.0305754,0.354576,-0.521438,0.044964,188.947,-218.456)">
        <path d="M738.67,369.78L729.68,379.01L683.46,384.28L675.31,380.72L738.67,369.78Z" style="fill:rgb(58,58,70);fill-rule:nonzero;"/>
    </g>
</svg>
