<?xml version="1.0" encoding="UTF-8" standalone="no"?>
<!DOCTYPE svg PUBLIC "-//W3C//DTD SVG 1.1//EN" "http://www.w3.org/Graphics/SVG/1.1/DTD/svg11.dtd">
<svg width="100%" height="100%" viewBox="0 0 150 30" version="1.1" xmlns="http://www.w3.org/2000/svg" xmlns:xlink="http://www.w3.org/1999/xlink" xml:space="preserve" xmlns:serif="http://www.serif.com/" style="fill-rule:evenodd;clip-rule:evenodd;stroke-linejoin:round;stroke-miterlimit:2;">
    <path d="M46.39,27L46.571,25.971L74.485,9.736C75.922,8.901 77.667,8.803 79.188,9.463L86.535,12.666L61.888,27L46.39,27Z" style="fill:rgb(58,58,70);fill-rule:nonzero;"/>
    <path d="M48.006,27L61.888,27L88.337,11.617L88.333,11.62L80.986,8.418C80.986,8.418 80.944,8.398 80.919,8.388C80.529,8.225 80.093,8.265 79.732,8.475L48.02,26.918L48.006,27Z" style="fill:rgb(121,121,145);fill-rule:nonzero;"/>
    <path d="M65.284,25L88.623,11.426L104.136,18.704L93.312,25L65.284,25Z" style="fill:rgb(121,121,145);fill-rule:nonzero;"/>
    <g transform="matrix(0.469384,-0.272994,0.272994,0.469384,-267.212,133.383)">
        <path d="M695.73,151.28L729.85,151.28L726.16,146.26L699.42,146.26L695.73,151.28Z" style="fill:rgb(78,78,94);fill-rule:nonzero;"/>
    </g>
    <g transform="matrix(0.469384,-0.272994,0.272994,0.469384,-267.212,133.383)">
        <g transform="matrix(0.96579,-0.259325,0.259325,0.96579,-12.16,193.02)">
            <rect x="721.09" y="142.13" width="8.91" height="0.92" style="fill:rgb(78,78,94);"/>
        </g>
        <path d="M717.4,142.21L722.57,142.21L723.8,146.26L716.17,146.26L717.4,142.21Z" style="fill:rgb(121,121,145);fill-rule:nonzero;"/>
    </g>
    <g transform="matrix(0.469384,-0.272994,0.272994,0.469384,-267.212,133.383)">
        <g transform="matrix(0.96579,-0.259325,0.259325,0.96579,-12.63,189.47)">
            <rect x="707.41" y="142.13" width="8.91" height="0.92" style="fill:rgb(78,78,94);"/>
        </g>
        <path d="M703.72,142.21L708.89,142.21L710.12,146.26L702.49,146.26L703.72,142.21Z" style="fill:rgb(121,121,145);fill-rule:nonzero;"/>
    </g>
    <g transform="matrix(0.469384,-0.272994,0.272994,0.469384,-270.228,128.197)">
        <path d="M671.2,135.78L674.27,140.14L661.22,140.14L661.22,134.9L669.52,134.9C670.19,134.9 670.82,135.23 671.2,135.77L671.2,135.78Z" style="fill-rule:nonzero;"/>
        <rect x="651.18" y="134.91" width="7.74" height="5.24"/>
        <rect x="641.05" y="134.91" width="7.74" height="5.24"/>
        <rect x="630.92" y="134.91" width="7.74" height="5.24"/>
        <rect x="617.66" y="134.91" width="10.88" height="5.24"/>
    </g>
    <g transform="matrix(0.469384,-0.272994,0.272994,0.469384,-270.228,128.197)">
        <rect x="604.58" y="128.58" width="8.06" height="2.01" style="fill:rgb(121,121,145);"/>
    </g>
    <g transform="matrix(0.469384,-0.272994,0.272994,0.469384,-270.228,128.197)">
        <rect x="604.58" y="128.58" width="8.06" height="0.78" style="fill:rgb(78,78,94);"/>
    </g>
    <path d="M57.676,27L58.195,27L91.304,7.743L91.173,7.518L57.676,27Z" style="fill:rgb(58,58,70);"/>
    <g transform="matrix(0.469384,-0.272994,0.272994,0.469384,-270.228,128.197)">
        <rect x="612.76" y="142.98" width="0.33" height="3.4" style="fill:rgb(58,58,70);"/>
    </g>
    <g transform="matrix(0.469384,-0.272994,0.272994,0.469384,-270.228,128.197)">
        <rect x="614.99" y="142.98" width="0.33" height="3.4" style="fill:rgb(58,58,70);"/>
    </g>
    <g transform="matrix(0.469384,-0.272994,0.272994,0.469384,-270.228,128.197)">
        <rect x="617.21" y="142.98" width="0.33" height="3.4" style="fill:rgb(58,58,70);"/>
    </g>
    <g transform="matrix(0.469384,-0.272994,0.272994,0.469384,-270.228,128.197)">
        <rect x="619.43" y="142.98" width="0.33" height="3.4" style="fill:rgb(58,58,70);"/>
    </g>
    <g transform="matrix(0.469384,-0.272994,0.272994,0.469384,-270.228,128.197)">
        <rect x="621.65" y="142.98" width="0.33" height="3.4" style="fill:rgb(58,58,70);"/>
    </g>
    <g transform="matrix(0.469384,-0.272994,0.272994,0.469384,-270.228,128.197)">
        <rect x="623.91" y="142.98" width="0.33" height="3.4" style="fill:rgb(58,58,70);"/>
    </g>
    <g transform="matrix(0.469384,-0.272994,0.272994,0.469384,-270.228,128.197)">
        <rect x="626.14" y="142.98" width="0.33" height="3.4" style="fill:rgb(58,58,70);"/>
    </g>
    <g transform="matrix(0.469384,-0.272994,0.272994,0.469384,-270.228,128.197)">
        <rect x="628.36" y="142.98" width="0.33" height="3.4" style="fill:rgb(58,58,70);"/>
    </g>
    <g transform="matrix(0.469384,-0.272994,0.272994,0.469384,-270.228,128.197)">
        <rect x="630.58" y="142.98" width="0.33" height="3.4" style="fill:rgb(58,58,70);"/>
    </g>
    <g transform="matrix(0.469384,-0.272994,0.272994,0.469384,-270.228,128.197)">
        <rect x="632.8" y="142.98" width="0.33" height="3.4" style="fill:rgb(58,58,70);"/>
    </g>
    <g transform="matrix(0.469384,-0.272994,0.272994,0.469384,-270.228,128.197)">
        <rect x="635.02" y="142.98" width="0.33" height="3.4" style="fill:rgb(58,58,70);"/>
    </g>
    <g transform="matrix(0.469384,-0.272994,0.272994,0.469384,-270.228,128.197)">
        <rect x="637.24" y="142.98" width="0.33" height="3.4" style="fill:rgb(58,58,70);"/>
    </g>
    <g transform="matrix(0.469384,-0.272994,0.272994,0.469384,-270.228,128.197)">
        <rect x="639.46" y="142.98" width="0.33" height="3.4" style="fill:rgb(58,58,70);"/>
    </g>
    <g transform="matrix(0.469384,-0.272994,0.272994,0.469384,-270.228,128.197)">
        <rect x="641.68" y="142.98" width="0.33" height="3.4" style="fill:rgb(58,58,70);"/>
    </g>
    <g transform="matrix(0.469384,-0.272994,0.272994,0.469384,-270.228,128.197)">
        <rect x="643.91" y="142.98" width="0.33" height="3.4" style="fill:rgb(58,58,70);"/>
    </g>
    <g transform="matrix(0.469384,-0.272994,0.272994,0.469384,-270.228,128.197)">
        <rect x="646.13" y="142.98" width="0.33" height="3.4" style="fill:rgb(58,58,70);"/>
    </g>
    <g transform="matrix(0.469384,-0.272994,0.272994,0.469384,-270.228,128.197)">
        <rect x="648.35" y="142.98" width="0.33" height="3.4" style="fill:rgb(58,58,70);"/>
    </g>
    <g transform="matrix(0.469384,-0.272994,0.272994,0.469384,-270.228,128.197)">
        <rect x="650.57" y="142.98" width="0.33" height="3.4" style="fill:rgb(58,58,70);"/>
    </g>
    <g transform="matrix(0.469384,-0.272994,0.272994,0.469384,-270.228,128.197)">
        <rect x="652.84" y="142.98" width="0.33" height="3.4" style="fill:rgb(58,58,70);"/>
    </g>
    <g transform="matrix(0.469384,-0.272994,0.272994,0.469384,-270.228,128.197)">
        <rect x="655.06" y="142.98" width="0.33" height="3.4" style="fill:rgb(58,58,70);"/>
    </g>
    <g transform="matrix(0.469384,-0.272994,0.272994,0.469384,-270.228,128.197)">
        <rect x="657.28" y="142.98" width="0.33" height="3.4" style="fill:rgb(58,58,70);"/>
    </g>
    <g transform="matrix(0.469384,-0.272994,0.272994,0.469384,-270.228,128.197)">
        <rect x="659.5" y="142.98" width="0.33" height="3.4" style="fill:rgb(58,58,70);"/>
    </g>
    <g transform="matrix(0.469384,-0.272994,0.272994,0.469384,-270.228,128.197)">
        <rect x="661.72" y="142.98" width="0.33" height="3.4" style="fill:rgb(58,58,70);"/>
    </g>
    <g transform="matrix(0.469384,-0.272994,0.272994,0.469384,-270.228,128.197)">
        <rect x="663.94" y="142.98" width="0.33" height="3.4" style="fill:rgb(58,58,70);"/>
    </g>
    <g transform="matrix(0.469384,-0.272994,0.272994,0.469384,-270.228,128.197)">
        <rect x="666.16" y="142.98" width="0.33" height="3.4" style="fill:rgb(58,58,70);"/>
    </g>
    <g transform="matrix(0.469384,-0.272994,0.272994,0.469384,-270.228,128.197)">
        <rect x="668.38" y="142.98" width="0.33" height="3.4" style="fill:rgb(58,58,70);"/>
    </g>
    <g transform="matrix(0.469384,-0.272994,0.272994,0.469384,-270.228,128.197)">
        <rect x="670.6" y="142.98" width="0.33" height="3.4" style="fill:rgb(58,58,70);"/>
    </g>
    <g transform="matrix(0.469384,-0.272994,0.272994,0.469384,-270.228,128.197)">
        <rect x="672.83" y="142.98" width="0.33" height="3.4" style="fill:rgb(58,58,70);"/>
    </g>
    <g transform="matrix(0.469384,-0.272994,0.272994,0.469384,-270.228,128.197)">
        <rect x="675.05" y="142.98" width="0.33" height="3.4" style="fill:rgb(58,58,70);"/>
    </g>
    <g transform="matrix(0.469384,-0.272994,0.272994,0.469384,-270.228,128.197)">
        <rect x="677.27" y="142.98" width="0.33" height="3.4" style="fill:rgb(58,58,70);"/>
    </g>
    <g transform="matrix(0.469384,-0.272994,0.272994,0.469384,-270.228,128.197)">
        <rect x="679.49" y="142.98" width="0.33" height="3.4" style="fill:rgb(58,58,70);"/>
    </g>
    <g transform="matrix(0.469384,-0.272994,0.272994,0.469384,-270.228,128.197)">
        <rect x="681.76" y="142.98" width="0.33" height="3.4" style="fill:rgb(58,58,70);"/>
    </g>
    <g transform="matrix(0.469384,-0.272994,0.272994,0.469384,-270.228,128.197)">
        <rect x="683.98" y="142.98" width="0.33" height="3.4" style="fill:rgb(58,58,70);"/>
    </g>
    <g transform="matrix(0.469384,-0.272994,0.272994,0.469384,-270.228,128.197)">
        <rect x="686.2" y="142.98" width="0.33" height="3.4" style="fill:rgb(58,58,70);"/>
    </g>
    <g transform="matrix(0.469384,-0.272994,0.272994,0.469384,-267.212,133.383)">
        <path d="M686.73,151.03L689.19,154.52C689.39,154.81 689.19,155.21 688.83,155.21L677.06,155.21C676.82,155.21 676.62,155.01 676.62,154.77L676.62,150.41C676.62,150.17 676.82,149.97 677.06,149.97L684.69,149.97C685.5,149.97 686.26,150.36 686.73,151.03Z" style="fill-rule:nonzero;"/>
    </g>
    <g transform="matrix(0.469384,-0.272994,0.272994,0.469384,-267.212,133.383)">
        <path d="M674.32,150.79C674.32,150.343 673.957,149.98 673.51,149.98L667.39,149.98C666.943,149.98 666.58,150.343 666.58,150.79L666.58,154.41C666.58,154.857 666.943,155.22 667.39,155.22L673.51,155.22C673.957,155.22 674.32,154.857 674.32,154.41L674.32,150.79Z"/>
    </g>
    <g transform="matrix(0.469384,-0.272994,0.272994,0.469384,-267.212,133.383)">
        <path d="M664.19,150.79C664.19,150.343 663.827,149.98 663.38,149.98L657.26,149.98C656.813,149.98 656.45,150.343 656.45,150.79L656.45,154.41C656.45,154.857 656.813,155.22 657.26,155.22L663.38,155.22C663.827,155.22 664.19,154.857 664.19,154.41L664.19,150.79Z"/>
    </g>
    <g transform="matrix(0.469384,-0.272994,0.272994,0.469384,-267.212,133.383)">
        <path d="M654.06,150.79C654.06,150.343 653.697,149.98 653.25,149.98L647.13,149.98C646.683,149.98 646.32,150.343 646.32,150.79L646.32,154.41C646.32,154.857 646.683,155.22 647.13,155.22L653.25,155.22C653.697,155.22 654.06,154.857 654.06,154.41L654.06,150.79Z"/>
    </g>
    <g transform="matrix(0.469384,-0.272994,0.272994,0.469384,-270.228,128.197)">
        <path d="M626.12,152.59C626.12,151.53 626.98,150.67 628.04,150.67C629.1,150.67 629.96,151.53 629.96,152.59C629.96,153.65 629.1,154.51 628.04,154.51C626.98,154.51 626.12,153.65 626.12,152.59Z" style="fill-rule:nonzero;"/>
    </g>
    <g transform="matrix(0.469384,-0.272994,0.272994,0.469384,-265.906,125.683)">
        <path d="M626.12,152.59C626.12,151.53 626.98,150.67 628.04,150.67C629.1,150.67 629.96,151.53 629.96,152.59C629.96,153.65 629.1,154.51 628.04,154.51C626.98,154.51 626.12,153.65 626.12,152.59Z" style="fill-rule:nonzero;"/>
    </g>
    <g transform="matrix(0.469384,-0.272994,0.272994,0.469384,-261.584,123.169)">
        <path d="M626.12,152.59C626.12,151.53 626.98,150.67 628.04,150.67C629.1,150.67 629.96,151.53 629.96,152.59C629.96,153.65 629.1,154.51 628.04,154.51C626.98,154.51 626.12,153.65 626.12,152.59Z" style="fill-rule:nonzero;"/>
    </g>
    <g transform="matrix(0.469384,-0.272994,0.272994,0.469384,-257.262,120.655)">
        <path d="M626.12,152.59C626.12,151.53 626.98,150.67 628.04,150.67C629.1,150.67 629.96,151.53 629.96,152.59C629.96,153.65 629.1,154.51 628.04,154.51C626.98,154.51 626.12,153.65 626.12,152.59Z" style="fill-rule:nonzero;"/>
    </g>
    <g transform="matrix(0.469384,-0.272994,0.272994,0.469384,-252.939,118.142)">
        <path d="M626.12,152.59C626.12,151.53 626.98,150.67 628.04,150.67C629.1,150.67 629.96,151.53 629.96,152.59C629.96,153.65 629.1,154.51 628.04,154.51C626.98,154.51 626.12,153.65 626.12,152.59Z" style="fill-rule:nonzero;"/>
    </g>
    <g transform="matrix(0.469384,-0.272994,0.272994,0.469384,-248.617,115.628)">
        <path d="M626.12,152.59C626.12,151.53 626.98,150.67 628.04,150.67C629.1,150.67 629.96,151.53 629.96,152.59C629.96,153.65 629.1,154.51 628.04,154.51C626.98,154.51 626.12,153.65 626.12,152.59Z" style="fill-rule:nonzero;"/>
    </g>
    <g transform="matrix(0.469384,-0.272994,0.272994,0.469384,-267.212,133.383)">
        <rect x="684.09" y="151.66" width="4.29" height="2.64"/>
    </g>
    <g transform="matrix(0.469384,-0.272994,0.272994,0.469384,-267.212,133.383)">
        <rect x="677.62" y="151.66" width="4.29" height="2.64"/>
    </g>
    <g transform="matrix(0.469384,-0.272994,0.272994,0.469384,-267.212,133.383)">
        <rect x="671.15" y="151.66" width="4.29" height="2.64"/>
    </g>
    <g transform="matrix(0.469384,-0.272994,0.272994,0.469384,-267.212,133.383)">
        <path d="M707.21,165.4L700.87,170.11C700.42,170.44 699.79,170.63 699.14,170.63L684.57,170.63C689.65,167.27 696.41,165.4 703.45,165.4L707.21,165.4Z" style="fill:rgb(44,44,54);fill-rule:nonzero;"/>
    </g>
    <g transform="matrix(0.469384,-0.272994,0.272994,0.469384,-267.212,133.383)">
        <path d="M707.74,165.4C709.01,165.4 709.58,166.83 708.6,167.56L705.17,170.11C704.72,170.44 704.09,170.63 703.44,170.63L688.87,170.63C693.95,167.27 700.71,165.4 707.75,165.4L707.74,165.4Z" style="fill:rgb(21,21,26);fill-rule:nonzero;"/>
    </g>
    <g transform="matrix(0.469384,-0.272994,0.272994,0.469384,-267.212,133.383)">
        <path d="M680.76,155.52L721.07,155.52C721.77,155.52 722.34,154.95 722.34,154.25C722.34,153.55 721.77,152.98 721.07,152.98L680.76,152.98C680.06,152.98 679.49,153.55 679.49,154.25C679.49,154.95 680.06,155.52 680.76,155.52Z" style="fill:rgb(58,58,70);fill-rule:nonzero;"/>
    </g>
    <path d="M85.679,25L108.907,25L112.12,23.131L120.232,1.761L95.697,16.031C91.755,18.323 88.355,21.385 85.679,25Z" style="fill:rgb(78,78,94);fill-rule:nonzero;"/>
    <path d="M85.679,25L86.586,25C89.309,21.37 92.763,18.283 96.76,15.958L96.758,15.954L119.969,2.454L120.232,1.761L95.697,16.031C91.755,18.323 88.355,21.385 85.679,25Z" style="fill:rgb(21,21,26);fill-rule:nonzero;"/>
    <path d="M61.845,27L62.763,27L93.848,8.921L93.616,8.522L61.845,27Z" style="fill:rgb(58,58,70);"/>
    <path d="M58.398,28L87.322,11.178L88.333,11.62L60.169,28L58.398,28Z" style="fill:rgb(78,78,94);fill-rule:nonzero;"/>
    <path d="M53.097,28L51.748,25.68L48.687,27.46L48.64,28L53.097,28Z" style="fill-rule:nonzero;"/>
    <g transform="matrix(2.45161,-2.22045e-16,-2.77556e-17,0.555556,1.45161,11.1111)">
        <rect x="-1" y="25" width="62" height="9" style="fill:rgb(76,123,173);"/>
    </g>
</svg>
