<?xml version="1.0" encoding="UTF-8" standalone="no"?>
<!DOCTYPE svg PUBLIC "-//W3C//DTD SVG 1.1//EN" "http://www.w3.org/Graphics/SVG/1.1/DTD/svg11.dtd">
<svg width="100%" height="100%" viewBox="0 0 90 30" version="1.1" xmlns="http://www.w3.org/2000/svg" xmlns:xlink="http://www.w3.org/1999/xlink" xml:space="preserve" xmlns:serif="http://www.serif.com/" style="fill-rule:evenodd;clip-rule:evenodd;stroke-linejoin:round;stroke-miterlimit:2;">
    <g transform="matrix(0.372809,0,0,0.372809,-1,-81.8545)">
        <g transform="matrix(2.68234,0,0,2.68234,2.68234,219.561)">
            <path d="M36.664,28L52.145,28L66.366,19.318L73.344,12.366L75.725,4.603L36.664,28Z" style="fill:rgb(78,78,94);fill-rule:nonzero;"/>
        </g>
        <g transform="matrix(2.68234,0,0,2.68234,2.68234,219.561)">
            <path d="M25.1,28L25.285,25.768L38.405,17.91L41.415,20.787L29.372,28L25.1,28Z" style="fill:rgb(104,104,125);fill-rule:nonzero;"/>
        </g>
        <g transform="matrix(0.85788,-0.51385,0.51385,0.85788,-134.312,132.72)">
            <path d="M99.01,222.15L97.89,222.15L93.68,210.35L94.8,210.35L99.01,222.15Z" style="fill:rgb(104,104,125);fill-rule:nonzero;"/>
        </g>
        <g transform="matrix(0.85788,-0.51385,0.51385,0.85788,-134.312,132.72)">
            <path d="M106.08,239.53L103.83,239.53L95.4,215.94L97.64,215.94L106.08,239.53Z" style="fill:rgb(121,121,145);fill-rule:nonzero;"/>
        </g>
        <g transform="matrix(0.85788,-0.51385,0.51385,0.85788,-134.312,132.72)">
            <rect x="96.67" y="220.85" width="11.81" height="1.29" style="fill:rgb(78,78,94);"/>
        </g>
        <g transform="matrix(0.85788,-0.51385,0.51385,0.85788,-134.312,132.72)">
            <rect x="98.02" y="224.63" width="11.81" height="1.29" style="fill:rgb(78,78,94);"/>
        </g>
        <g transform="matrix(0.85788,-0.51385,0.51385,0.85788,-134.312,132.72)">
            <rect x="99.51" y="228.59" width="11.81" height="1.29" style="fill:rgb(78,78,94);"/>
        </g>
        <g transform="matrix(0.85788,-0.51385,0.51385,0.85788,-134.312,132.72)">
            <path d="M118.41,239.05L104.52,239.05L106.6,220.85L114.79,220.85L118.41,239.05Z" style="fill:rgb(78,78,94);fill-rule:nonzero;"/>
        </g>
        <g transform="matrix(0.85788,-0.51385,0.51385,0.85788,-134.312,132.72)">
            <path d="M135.06,239.05L113.87,239.05L117.04,231.94L135.06,231.94L135.06,239.05Z" style="fill:rgb(121,121,145);fill-rule:nonzero;"/>
        </g>
        <g transform="matrix(0.85788,-0.51385,0.51385,0.85788,-134.312,132.72)">
            <path d="M119.42,238.35L135.06,238.35L135.06,237.02L119.98,237.02L119.42,238.35Z" style="fill-rule:nonzero;"/>
        </g>
        <g transform="matrix(0.85788,-0.51385,0.51385,0.85788,-134.312,132.72)">
            <rect x="118.2" y="230.72" width="4.91" height="1.22" style="fill:rgb(121,121,145);"/>
        </g>
        <g transform="matrix(0.85788,-0.51385,0.51385,0.85788,-134.312,132.72)">
            <rect x="117.55" y="229.5" width="6.22" height="1.22" style="fill:rgb(121,121,145);"/>
        </g>
        <g transform="matrix(0.85788,-0.51385,0.51385,0.85788,-134.312,132.72)">
            <rect x="118.2" y="230.72" width="4.91" height="0.48" style="fill:rgb(104,104,125);"/>
        </g>
        <g transform="matrix(0.85788,-0.51385,0.51385,0.85788,-134.312,132.72)">
            <path d="M120.98,234.5L135.06,234.5L135.06,233.17L121.54,233.17L120.98,234.5Z" style="fill-rule:nonzero;"/>
        </g>
        <g transform="matrix(0.85788,-0.51385,0.51385,0.85788,-134.312,132.72)">
            <path d="M120.19,236.4L135.06,236.4L135.06,235.07L120.75,235.07L120.19,236.4Z" style="fill-rule:nonzero;"/>
        </g>
        <g transform="matrix(0.85788,-0.51385,0.51385,0.85788,-134.312,132.72)">
            <path d="M94.82,241.94L108.91,241.94L109.37,240.62L95.84,240.62L94.82,241.94Z" style="fill-rule:nonzero;"/>
        </g>
        <g transform="matrix(0.85788,-0.51385,0.51385,0.85788,-134.312,132.72)">
            <path d="M93.38,243.85L108.26,243.85L108.71,242.52L94.4,242.52L93.38,243.85Z" style="fill-rule:nonzero;"/>
        </g>
        <g transform="matrix(0.85788,-0.51385,0.51385,0.85788,-134.312,132.72)">
            <path d="M91.94,245.8L107.59,245.8L108.04,244.47L92.96,244.47L91.94,245.8Z" style="fill-rule:nonzero;"/>
        </g>
        <g transform="matrix(0.85788,-0.51385,0.629142,1.05036,-164.272,82.7017)">
            <path d="M224.63,274.44L215.68,279.06L205.54,283.77L176.66,279.12L224.63,274.44Z" style="fill:rgb(58,58,70);fill-rule:nonzero;"/>
        </g>
        <g transform="matrix(0.85788,-0.51385,0.629142,1.05036,-164.272,82.7017)">
            <path d="M240.81,259.86L224.63,274.44L192.84,277.54L222.27,271.03L240.81,259.86Z" style="fill:rgb(58,58,70);fill-rule:nonzero;"/>
        </g>
        <g transform="matrix(0.85788,-0.51385,0.51385,0.85788,-134.312,132.72)">
            <path d="M146.32,271.03C146.32,270.05 147.12,269.25 148.1,269.25C149.08,269.25 149.88,270.05 149.88,271.03C149.88,272.01 149.08,272.81 148.1,272.81C147.12,272.81 146.32,272.01 146.32,271.03Z" style="fill:rgb(58,58,70);fill-rule:nonzero;"/>
        </g>
        <g transform="matrix(0.85788,-0.51385,0.51385,0.85788,-134.312,132.72)">
            <path d="M153.17,271.03C153.17,270.05 153.97,269.25 154.95,269.25C155.93,269.25 156.73,270.05 156.73,271.03C156.73,272.01 155.93,272.81 154.95,272.81C153.97,272.81 153.17,272.01 153.17,271.03Z" style="fill:rgb(58,58,70);fill-rule:nonzero;"/>
        </g>
        <g transform="matrix(0.85788,-0.51385,0.51385,0.85788,-134.312,132.72)">
            <circle cx="161.8" cy="271.03" r="1.78" style="fill:rgb(58,58,70);"/>
        </g>
        <g transform="matrix(0.85788,-0.51385,0.51385,0.85788,-134.312,132.72)">
            <circle cx="168.65" cy="271.03" r="1.78" style="fill:rgb(58,58,70);"/>
        </g>
        <g transform="matrix(0.85788,-0.51385,0.51385,0.85788,-134.312,132.72)">
            <path d="M173.73,271.03C173.73,270.05 174.53,269.25 175.51,269.25C176.49,269.25 177.29,270.05 177.29,271.03C177.29,272.01 176.49,272.81 175.51,272.81C174.53,272.81 173.73,272.01 173.73,271.03Z" style="fill:rgb(58,58,70);fill-rule:nonzero;"/>
        </g>
        <g transform="matrix(0.85788,-0.51385,0.51385,0.85788,-134.312,132.72)">
            <path d="M180.59,271.03C180.59,270.05 181.39,269.25 182.37,269.25C183.35,269.25 184.15,270.05 184.15,271.03C184.15,272.01 183.35,272.81 182.37,272.81C181.39,272.81 180.59,272.01 180.59,271.03Z" style="fill:rgb(58,58,70);fill-rule:nonzero;"/>
        </g>
        <g transform="matrix(0.85788,-0.51385,0.51385,0.85788,-134.312,132.72)">
            <path d="M168.27,259.85L196.45,259.85L193.4,255.7L171.32,255.7L168.27,259.85Z" style="fill:rgb(78,78,94);fill-rule:nonzero;"/>
        </g>
        <g transform="matrix(0.85788,-0.51385,0.51385,0.85788,-134.312,132.72)">
            <g transform="matrix(0.966016,-0.258482,0.258482,0.966016,-58.76,58.45)">
                <rect x="189.22" y="252.3" width="7.36" height="0.76" style="fill:rgb(78,78,94);"/>
            </g>
            <path d="M186.17,252.36L190.44,252.36L191.46,255.7L185.15,255.7L186.17,252.36Z" style="fill:rgb(121,121,145);fill-rule:nonzero;"/>
        </g>
        <g transform="matrix(0.85788,-0.51385,0.51385,0.85788,-134.312,132.72)">
            <g transform="matrix(0.966016,-0.258482,0.258482,0.966016,-59.14,55.53)">
                <rect x="177.92" y="252.3" width="7.36" height="0.76" style="fill:rgb(78,78,94);"/>
            </g>
            <path d="M174.87,252.36L179.15,252.36L180.16,255.7L173.86,255.7L174.87,252.36Z" style="fill:rgb(121,121,145);fill-rule:nonzero;"/>
        </g>
        <g transform="matrix(0.85788,-0.51385,0.51385,0.85788,-134.312,132.72)">
            <path d="M203.98,259.85L232.16,259.85L229.11,255.7L207.03,255.7L203.98,259.85Z" style="fill:rgb(78,78,94);fill-rule:nonzero;"/>
        </g>
        <g transform="matrix(0.85788,-0.51385,0.51385,0.85788,-134.312,132.72)">
            <g transform="matrix(0.966061,-0.258313,0.258313,0.966061,-57.52,67.64)">
                <rect x="224.92" y="252.3" width="7.36" height="0.76" style="fill:rgb(78,78,94);"/>
            </g>
            <path d="M221.88,252.36L226.15,252.36L227.17,255.7L220.86,255.7L221.88,252.36Z" style="fill:rgb(121,121,145);fill-rule:nonzero;"/>
        </g>
        <g transform="matrix(0.85788,-0.51385,0.51385,0.85788,-134.312,132.72)">
            <g transform="matrix(0.966061,-0.258313,0.258313,0.966061,-57.88,64.69)">
                <rect x="213.63" y="252.3" width="7.36" height="0.76" style="fill:rgb(78,78,94);"/>
            </g>
            <path d="M210.58,252.36L214.85,252.36L215.87,255.7L209.57,255.7L210.58,252.36Z" style="fill:rgb(121,121,145);fill-rule:nonzero;"/>
        </g>
        <g transform="matrix(0.85788,-0.51385,0.51385,0.85788,-134.312,132.72)">
            <rect x="150.31" y="258.3" width="42.59" height="1.57" style="fill:rgb(58,58,70);"/>
        </g>
        <g transform="matrix(0.85788,-0.51385,0.51385,0.85788,-134.312,132.72)">
            <path d="M209.86,254.69L219.9,254.69L219.9,255.7L207.03,255.7L209.86,254.69Z" style="fill:rgb(58,58,70);fill-rule:nonzero;"/>
        </g>
        <g transform="matrix(0.85788,-0.51385,0.51385,0.85788,-134.312,132.72)">
            <path d="M225.43,257.27L235.47,257.27L235.47,258.28L222.6,258.28L225.43,257.27Z" style="fill:rgb(58,58,70);fill-rule:nonzero;"/>
        </g>
        <g transform="matrix(0.70979,-0.425147,0.667772,1.11486,-144.342,48.5371)">
            <path d="M201.52,258.3L255.92,258.3C256.35,258.3 256.7,258.65 256.7,259.08C256.7,259.51 256.35,259.86 255.92,259.86L201.52,259.86C201.09,259.86 200.74,259.51 200.74,259.08C200.74,258.65 201.09,258.3 201.52,258.3Z" style="fill:rgb(58,58,70);fill-rule:nonzero;"/>
        </g>
        <g transform="matrix(0.695905,-0.718134,0.718134,0.695905,-161.454,201.759)">
            <rect x="139.13" y="245.71" width="7.36" height="0.76" style="fill:rgb(58,58,70);"/>
        </g>
        <g transform="matrix(0.85788,-0.51385,0.51385,0.85788,-134.312,132.72)">
            <path d="M136.08,245.77L140.35,245.77L141.37,249.11L135.06,249.11L136.08,245.77Z" style="fill:rgb(58,58,70);fill-rule:nonzero;"/>
        </g>
        <g transform="matrix(0.696031,-0.718012,0.718012,0.696031,-163.383,199.277)">
            <rect x="127.17" y="245.71" width="7.36" height="0.76" style="fill:rgb(58,58,70);"/>
        </g>
        <g transform="matrix(0.85788,-0.51385,0.51385,0.85788,-134.312,132.72)">
            <path d="M124.12,245.77L128.4,245.77L129.41,249.11L123.11,249.11L124.12,245.77Z" style="fill:rgb(58,58,70);fill-rule:nonzero;"/>
        </g>
        <g transform="matrix(0.696031,-0.718012,0.718012,0.696031,-165.387,196.748)">
            <rect x="114.79" y="245.71" width="7.36" height="0.76" style="fill:rgb(58,58,70);"/>
        </g>
        <g transform="matrix(0.85788,-0.51385,0.51385,0.85788,-134.312,132.72)">
            <path d="M111.74,245.77L116.02,245.77L117.03,249.11L110.73,249.11L111.74,245.77Z" style="fill:rgb(58,58,70);fill-rule:nonzero;"/>
        </g>
        <g transform="matrix(2.68234,0,0,2.68234,2.68234,219.561)">
            <path d="M55.95,28L66.435,28L69.297,26.287C69.55,26.136 69.44,25.655 69.118,25.517C68.17,25.103 62.405,27.948 63.44,26.057L69.534,19.863L55.95,28Z" style="fill:rgb(58,58,70);fill-rule:nonzero;"/>
        </g>
        <g transform="matrix(2.68234,0,0,2.68234,2.68234,219.561)">
            <path d="M28.85,28L44.577,18.58L48.265,21.051L36.664,28L28.85,28Z" style="fill:rgb(121,121,145);fill-rule:nonzero;"/>
        </g>
        <g transform="matrix(2.68234,0,0,2.68234,2.68234,219.561)">
            <path d="M40.778,28L74.8,7.622L74.426,8.841L42.439,28L40.778,28Z" style="fill:rgb(58,58,70);fill-rule:nonzero;"/>
        </g>
        <g transform="matrix(2.68234,0,0,2.68234,2.68234,219.561)">
            <path d="M53.787,28L57.903,28L70.053,20.723L72.193,16.945L53.787,28Z" style="fill:rgb(58,58,70);fill-rule:nonzero;"/>
        </g>
        <g transform="matrix(2.68234,0,0,2.68234,2.68234,219.561)">
            <path d="M52.56,28L55.421,26.287C55.725,26.105 56.118,26.203 56.3,26.507C56.482,26.811 56.384,27.205 56.08,27.387L55.056,28L52.56,28Z" style="fill:rgb(78,78,94);fill-rule:nonzero;"/>
        </g>
        <g transform="matrix(2.68234,0,0,2.68234,2.68234,219.561)">
            <path d="M32.478,28L43.859,21.183C44.157,21.005 44.545,21.102 44.723,21.4C44.902,21.697 44.804,22.086 44.507,22.264L34.93,28L32.478,28Z" style="fill:rgb(104,104,125);fill-rule:nonzero;"/>
        </g>
        <g transform="matrix(2.68234,0,0,2.68234,2.68234,219.561)">
            <path d="M51.403,28L69.431,17.222L69.709,19.081L54.818,28L51.403,28Z" style="fill:rgb(58,58,70);fill-rule:nonzero;"/>
        </g>
    </g>
    <g transform="matrix(1.5,0,0,0.555556,0.5,11.1111)">
        <rect x="-1" y="25" width="62" height="9" style="fill:rgb(76,123,173);"/>
    </g>
</svg>
