<?xml version="1.0" encoding="UTF-8" standalone="no"?>
<!DOCTYPE svg PUBLIC "-//W3C//DTD SVG 1.1//EN" "http://www.w3.org/Graphics/SVG/1.1/DTD/svg11.dtd">
<svg width="100%" height="100%" viewBox="0 0 60 30" version="1.1" xmlns="http://www.w3.org/2000/svg" xmlns:xlink="http://www.w3.org/1999/xlink" xml:space="preserve" xmlns:serif="http://www.serif.com/" style="fill-rule:evenodd;clip-rule:evenodd;stroke-linejoin:round;stroke-miterlimit:2;">
    <path d="M9.457,28L7.008,19.549L20.13,12.105L25.615,21.772L14.637,28L9.457,28Z" style="fill:rgb(121,121,145);fill-rule:nonzero;"/>
    <g transform="matrix(0.30112,-0.173852,0.270304,0.46818,-264.294,-44.5982)">
        <g transform="matrix(0.999973,0.0048672,-0.00702163,0.596798,1.42756,147.394)">
            <path d="M648.12,376.2L644.85,376.2L632.57,341.85L635.84,341.85L648.12,376.2Z" style="fill:rgb(121,121,145);fill-rule:nonzero;"/>
        </g>
        <g transform="matrix(0.999973,0.0048672,-0.00865173,0.735348,2.04081,95.2708)">
            <rect x="634.43" y="349.01" width="17.2" height="1.88" style="fill:rgb(78,78,94);"/>
        </g>
        <g transform="matrix(0.999973,0.0048672,-0.00865173,0.735348,2.04081,95.2708)">
            <rect x="636.39" y="354.5" width="17.2" height="1.88" style="fill:rgb(78,78,94);"/>
        </g>
        <g transform="matrix(0.999973,0.0048672,-0.00865173,0.735348,2.04081,95.2708)">
            <rect x="638.55" y="360.28" width="17.2" height="1.88" style="fill:rgb(78,78,94);"/>
        </g>
        <g transform="matrix(0.999973,0.0048672,-0.00865173,0.735348,2.19315,82.3228)">
            <path d="M627.86,365.16L597,365.16L601.61,354.81L627.86,354.81L627.86,365.16Z" style="fill:rgb(104,104,125);fill-rule:nonzero;"/>
        </g>
        <g transform="matrix(0.999973,0.0048672,-0.00865173,0.735348,2.04081,95.2708)">
            <path d="M666.07,375.51L645.85,375.51L648.87,349L660.81,349L666.07,375.51Z" style="fill:rgb(104,104,125);fill-rule:nonzero;"/>
        </g>
        <g transform="matrix(0.999973,0.0048672,-0.00865173,0.735348,2.04081,95.2708)">
            <path d="M640.3,375.51L619.54,375.51L622.64,368.55L640.3,368.55L640.3,375.51Z" style="fill:rgb(104,104,125);fill-rule:nonzero;"/>
        </g>
        <g transform="matrix(0.999973,0.0048672,-0.00865173,0.735348,2.19315,82.3228)">
            <rect x="603.31" y="353.04" width="7.14" height="1.78" style="fill:rgb(121,121,145);"/>
        </g>
        <g transform="matrix(0.999973,0.0048672,-0.00865173,0.735348,2.19315,82.3228)">
            <rect x="602.36" y="351.26" width="9.05" height="1.78" style="fill:rgb(121,121,145);"/>
        </g>
        <g transform="matrix(0.999973,0.0048672,-0.00865173,0.735348,2.19315,82.3228)">
            <rect x="603.31" y="353.04" width="7.14" height="0.69" style="fill:rgb(104,104,125);"/>
        </g>
        <g transform="matrix(0.999973,0.0048672,-0.00865173,0.735348,2.19315,82.3228)">
            <path d="M607.35,358.53L627.86,358.53L627.86,356.61L608.17,356.61L607.35,358.53Z" style="fill-rule:nonzero;"/>
        </g>
        <g transform="matrix(0.999973,0.0048672,-0.00865173,0.735348,2.19315,82.3228)">
            <path d="M606.21,361.3L627.86,361.3L627.86,359.37L607.03,359.37L606.21,361.3Z" style="fill-rule:nonzero;"/>
        </g>
        <g transform="matrix(0.999973,0.0048672,-0.00865173,0.735348,2.19315,82.3228)">
            <path d="M605.08,364.15L627.86,364.15L627.86,362.22L605.9,362.22L605.08,364.15Z" style="fill-rule:nonzero;"/>
        </g>
        <g transform="matrix(0.999973,0.0048672,-0.00865173,0.735348,2.04081,95.2708)">
            <path d="M690.33,375.5L659.46,375.5L664.08,365.15L690.33,365.15L690.33,375.5Z" style="fill:rgb(121,121,145);fill-rule:nonzero;"/>
        </g>
        <g transform="matrix(0.999973,0.0048672,-0.00865173,0.735348,2.04081,95.2708)">
            <rect x="665.77" y="363.37" width="7.14" height="1.78" style="fill:rgb(121,121,145);"/>
        </g>
        <g transform="matrix(0.999973,0.0048672,-0.00865173,0.735348,2.04081,95.2708)">
            <rect x="665.77" y="363.37" width="7.14" height="0.69" style="fill:rgb(104,104,125);"/>
        </g>
        <g transform="matrix(0.999973,0.0048672,-0.00865173,0.735348,2.04081,95.2708)">
            <path d="M669.81,368.87L690.33,368.87L690.33,366.94L670.63,366.94L669.81,368.87Z" style="fill-rule:nonzero;"/>
        </g>
        <g transform="matrix(0.999973,0.0048672,-0.00865173,0.735348,2.04081,95.2708)">
            <path d="M668.67,371.64L690.33,371.64L690.33,369.71L669.49,369.71L668.67,371.64Z" style="fill-rule:nonzero;"/>
        </g>
        <g transform="matrix(0.999973,0.0048672,-0.00865173,0.735348,2.04081,95.2708)">
            <path d="M667.55,374.48L690.33,374.48L690.33,372.55L668.36,372.55L667.55,374.48Z" style="fill-rule:nonzero;"/>
        </g>
        <g transform="matrix(0.999973,0.0048672,-0.00865173,0.735348,2.08434,91.5714)">
            <rect x="587.85" y="367.12" width="32.36" height="1.43"/>
        </g>
        <g transform="matrix(0.999973,0.0048672,-0.00865173,0.735348,2.08434,91.5714)">
            <rect x="587.85" y="369.62" width="32.36" height="1.43"/>
        </g>
        <g transform="matrix(0.999973,0.0048672,-0.00865173,0.735348,2.08434,91.5714)">
            <rect x="587.85" y="372.12" width="32.36" height="1.43"/>
        </g>
        <g transform="matrix(0.999973,0.0048672,-0.00865173,0.735348,2.14963,86.0223)">
            <rect x="587.85" y="367.12" width="32.36" height="1.43"/>
        </g>
        <g transform="matrix(0.999973,0.0048672,-0.00865173,0.735348,2.14963,86.0223)">
            <rect x="587.85" y="369.62" width="32.36" height="1.43"/>
        </g>
        <g transform="matrix(0.999973,0.0048672,-0.00865173,0.735348,2.14963,86.0223)">
            <rect x="587.85" y="372.12" width="32.36" height="1.43"/>
        </g>
    </g>
    <path d="M55.087,20.334L41.574,28L35.075,28L52.333,18.209L55.087,20.334ZM55.087,20.334L55.089,20.333L55.087,20.334Z" style="fill:rgb(58,58,70);fill-rule:nonzero;"/>
    <path d="M14.64,28L23.082,28L51.451,12.611L49.093,8.455L14.64,28Z" style="fill:rgb(58,58,70);fill-rule:nonzero;"/>
    <path d="M22.291,28L40.65,17.691L52.212,2.094L52.71,17.996L35.075,28L22.291,28Z" style="fill:rgb(78,78,94);fill-rule:nonzero;"/>
    <g transform="matrix(0.293318,-0.201553,0.296404,0.431352,-273.877,-9.95546)">
        <path d="M738.67,369.78L729.68,379.01L683.46,384.28L675.31,380.72L738.67,369.78Z" style="fill:rgb(58,58,70);fill-rule:nonzero;"/>
    </g>
    <g transform="matrix(1,0,0,0.555556,0,11.1111)">
        <rect x="-1" y="25" width="62" height="9" style="fill:rgb(76,123,173);"/>
    </g>
</svg>
