<?xml version="1.0" encoding="UTF-8" standalone="no"?>
<!DOCTYPE svg PUBLIC "-//W3C//DTD SVG 1.1//EN" "http://www.w3.org/Graphics/SVG/1.1/DTD/svg11.dtd">
<svg width="100%" height="100%" viewBox="0 0 90 30" version="1.1" xmlns="http://www.w3.org/2000/svg" xmlns:xlink="http://www.w3.org/1999/xlink" xml:space="preserve" xmlns:serif="http://www.serif.com/" style="fill-rule:evenodd;clip-rule:evenodd;stroke-linejoin:round;stroke-miterlimit:2;">
    <g transform="matrix(0.373253,0,0,0.381723,-105.484,-86.7591)">
        <g transform="matrix(0.867511,-0.486379,0.508703,0.867511,-110.878,257.195)">
            <path d="M416.29,271.14L393.59,271.14C392.6,271.14 391.79,270.33 391.79,269.34C391.79,268.35 392.6,267.54 393.59,267.54L416.29,267.54C417.28,267.54 418.09,268.34 418.09,269.34C418.09,270.34 417.29,271.14 416.29,271.14Z" style="fill:rgb(58,58,70);fill-rule:nonzero;"/>
        </g>
        <g transform="matrix(0.867511,-0.486379,0.508703,0.867511,-110.878,257.195)">
            <path d="M451.65,271.14L428.95,271.14C427.96,271.14 427.15,270.33 427.15,269.34C427.15,268.35 427.95,267.54 428.95,267.54L451.65,267.54C452.64,267.54 453.45,268.34 453.45,269.34C453.45,270.34 452.65,271.14 451.65,271.14Z" style="fill:rgb(58,58,70);fill-rule:nonzero;"/>
        </g>
        <g transform="matrix(0.867511,-0.486379,0.508703,0.867511,-110.878,257.195)">
            <path d="M487,271.14L464.3,271.14C463.31,271.14 462.5,270.33 462.5,269.34C462.5,268.35 463.31,267.54 464.3,267.54L487,267.54C487.99,267.54 488.8,268.34 488.8,269.34C488.8,270.34 488,271.14 487,271.14Z" style="fill:rgb(58,58,70);fill-rule:nonzero;"/>
        </g>
        <g transform="matrix(0.867511,-0.486379,0.741548,1.26459,-170.136,156.139)">
            <path d="M419.93,237.33L395.8,237.33C393.58,237.33 391.78,239.13 391.78,241.35L391.78,254.5L448.47,254.5L443.58,248.53C437.77,241.44 429.09,237.33 419.93,237.33Z" style="fill:rgb(58,58,70);fill-rule:nonzero;"/>
        </g>
        <g transform="matrix(0.867511,-0.486379,0.508703,0.867511,-110.878,257.195)">
            <rect x="357.31" y="251.4" width="50.62" height="3.1" style="fill:rgb(58,58,70);"/>
        </g>
        <g transform="matrix(0.867511,-0.486379,0.508703,0.867511,-110.878,257.195)">
            <rect x="444.08" y="250.35" width="48.29" height="0.54" style="fill:rgb(58,58,70);"/>
        </g>
        <g transform="matrix(0.867511,-0.486379,0.508703,0.867511,-110.878,257.195)">
            <rect x="461.58" y="250.89" width="0.38" height="3.87" style="fill:rgb(58,58,70);"/>
        </g>
        <g transform="matrix(0.867511,-0.486379,0.508703,0.867511,-110.878,257.195)">
            <rect x="464.12" y="250.89" width="0.38" height="3.87" style="fill:rgb(58,58,70);"/>
        </g>
        <g transform="matrix(0.867511,-0.486379,0.508703,0.867511,-110.878,257.195)">
            <rect x="466.65" y="250.89" width="0.38" height="3.87" style="fill:rgb(58,58,70);"/>
        </g>
        <g transform="matrix(0.867511,-0.486379,0.508703,0.867511,-110.878,257.195)">
            <rect x="469.19" y="250.89" width="0.38" height="3.87" style="fill:rgb(58,58,70);"/>
        </g>
        <g transform="matrix(0.867511,-0.486379,0.508703,0.867511,-110.878,257.195)">
            <rect x="451.49" y="250.89" width="0.38" height="3.87" style="fill:rgb(58,58,70);"/>
        </g>
        <g transform="matrix(0.867511,-0.486379,0.508703,0.867511,-110.878,257.195)">
            <rect x="448.77" y="250.89" width="0.38" height="3.87" style="fill:rgb(58,58,70);"/>
        </g>
        <g transform="matrix(0.867511,-0.486379,0.508703,0.867511,-110.878,257.195)">
            <rect x="454.03" y="250.89" width="0.38" height="3.87" style="fill:rgb(58,58,70);"/>
        </g>
        <g transform="matrix(0.867511,-0.486379,0.508703,0.867511,-110.878,257.195)">
            <rect x="456.56" y="250.89" width="0.38" height="3.87" style="fill:rgb(58,58,70);"/>
        </g>
        <g transform="matrix(0.867511,-0.486379,0.508703,0.867511,-110.878,257.195)">
            <rect x="459.1" y="250.89" width="0.38" height="3.87" style="fill:rgb(58,58,70);"/>
        </g>
        <g transform="matrix(0.867511,-0.486379,0.508703,0.867511,-110.878,257.195)">
            <rect x="471.72" y="250.89" width="0.38" height="3.87" style="fill:rgb(58,58,70);"/>
        </g>
        <g transform="matrix(0.867511,-0.486379,0.508703,0.867511,-110.878,257.195)">
            <rect x="474.26" y="250.89" width="0.38" height="3.87" style="fill:rgb(58,58,70);"/>
        </g>
        <g transform="matrix(0.867511,-0.486379,0.508703,0.867511,-110.878,257.195)">
            <rect x="476.79" y="250.89" width="0.38" height="3.87" style="fill:rgb(58,58,70);"/>
        </g>
        <g transform="matrix(0.867511,-0.486379,0.508703,0.867511,-110.878,257.195)">
            <rect x="479.33" y="250.89" width="0.38" height="3.87" style="fill:rgb(58,58,70);"/>
        </g>
        <g transform="matrix(0.867511,-0.486379,0.508703,0.867511,-110.878,257.195)">
            <rect x="481.86" y="250.89" width="0.38" height="3.87" style="fill:rgb(58,58,70);"/>
        </g>
        <g transform="matrix(0.867511,-0.486379,0.508703,0.867511,-110.878,257.195)">
            <rect x="484.39" y="250.89" width="0.38" height="3.87" style="fill:rgb(58,58,70);"/>
        </g>
        <g transform="matrix(0.867511,-0.486379,0.508703,0.867511,-110.878,257.195)">
            <rect x="486.93" y="250.89" width="0.38" height="3.87" style="fill:rgb(58,58,70);"/>
        </g>
        <g transform="matrix(0.867511,-0.486379,0.508703,0.867511,-110.878,257.195)">
            <rect x="489.46" y="250.89" width="0.38" height="3.87" style="fill:rgb(58,58,70);"/>
        </g>
        <g transform="matrix(0.867511,-0.486379,0.508703,0.867511,-110.878,257.195)">
            <rect x="492" y="250.89" width="0.38" height="3.87" style="fill:rgb(58,58,70);"/>
        </g>
        <g transform="matrix(0.867511,-0.486379,0.508703,0.867511,-110.878,257.195)">
            <rect x="357.4" y="246.98" width="47.92" height="0.54" style="fill:rgb(58,58,70);"/>
        </g>
        <g transform="matrix(-0.867511,0.486379,-0.508703,-0.867511,815.714,312.808)">
            <rect x="387.59" y="247.52" width="0.37" height="3.87" style="fill:rgb(58,58,70);"/>
        </g>
        <g transform="matrix(-0.867511,0.486379,-0.508703,-0.867511,811.35,315.254)">
            <rect x="385.07" y="247.52" width="0.37" height="3.87" style="fill:rgb(58,58,70);"/>
        </g>
        <g transform="matrix(-0.867511,0.486379,-0.508703,-0.867511,806.987,317.701)">
            <rect x="382.56" y="247.52" width="0.37" height="3.87" style="fill:rgb(58,58,70);"/>
        </g>
        <g transform="matrix(-0.867511,0.486379,-0.508703,-0.867511,802.623,320.147)">
            <rect x="380.04" y="247.52" width="0.37" height="3.87" style="fill:rgb(58,58,70);"/>
        </g>
        <g transform="matrix(-0.867511,0.486379,-0.508703,-0.867511,833.09,303.066)">
            <rect x="397.6" y="247.52" width="0.37" height="3.87" style="fill:rgb(58,58,70);"/>
        </g>
        <g transform="matrix(-0.867511,0.486379,-0.508703,-0.867511,837.766,300.444)">
            <rect x="400.29" y="247.52" width="0.37" height="3.87" style="fill:rgb(58,58,70);"/>
        </g>
        <g transform="matrix(-0.867511,0.486379,-0.508703,-0.867511,828.727,305.512)">
            <rect x="395.08" y="247.52" width="0.37" height="3.87" style="fill:rgb(58,58,70);"/>
        </g>
        <g transform="matrix(-0.867511,0.486379,-0.508703,-0.867511,824.363,307.958)">
            <rect x="392.57" y="247.52" width="0.37" height="3.87" style="fill:rgb(58,58,70);"/>
        </g>
        <g transform="matrix(-0.867511,0.486379,-0.508703,-0.867511,819.999,310.405)">
            <rect x="390.05" y="247.52" width="0.37" height="3.87" style="fill:rgb(58,58,70);"/>
        </g>
        <g transform="matrix(-0.867511,0.486379,-0.508703,-0.867511,798.26,322.594)">
            <rect x="377.53" y="247.52" width="0.37" height="3.87" style="fill:rgb(58,58,70);"/>
        </g>
        <g transform="matrix(-0.867511,0.486379,-0.508703,-0.867511,793.896,325.04)">
            <rect x="375.01" y="247.52" width="0.37" height="3.87" style="fill:rgb(58,58,70);"/>
        </g>
        <g transform="matrix(-0.867511,0.486379,-0.508703,-0.867511,789.532,327.487)">
            <rect x="372.49" y="247.52" width="0.37" height="3.87" style="fill:rgb(58,58,70);"/>
        </g>
        <g transform="matrix(-0.867511,0.486379,-0.508703,-0.867511,785.169,329.933)">
            <rect x="369.98" y="247.52" width="0.37" height="3.87" style="fill:rgb(58,58,70);"/>
        </g>
        <g transform="matrix(-0.867511,0.486379,-0.508703,-0.867511,780.805,332.38)">
            <rect x="367.46" y="247.52" width="0.37" height="3.87" style="fill:rgb(58,58,70);"/>
        </g>
        <g transform="matrix(-0.867511,0.486379,-0.508703,-0.867511,776.442,334.826)">
            <rect x="364.95" y="247.52" width="0.37" height="3.87" style="fill:rgb(58,58,70);"/>
        </g>
        <g transform="matrix(-0.867511,0.486379,-0.508703,-0.867511,772.078,337.273)">
            <rect x="362.43" y="247.52" width="0.37" height="3.87" style="fill:rgb(58,58,70);"/>
        </g>
        <g transform="matrix(-0.867511,0.486379,-0.508703,-0.867511,767.715,339.719)">
            <rect x="359.92" y="247.52" width="0.37" height="3.87" style="fill:rgb(58,58,70);"/>
        </g>
        <g transform="matrix(-0.867511,0.486379,-0.508703,-0.867511,763.351,342.165)">
            <rect x="357.4" y="247.52" width="0.37" height="3.87" style="fill:rgb(58,58,70);"/>
        </g>
        <g transform="matrix(2.67915,0,0,2.6197,282.607,227.283)">
            <path d="M22.998,26L43.019,26L74.326,8.05C74.452,7.031 74.333,6.074 73.872,5.269C71.869,1.776 64.217,2.366 60.801,4.324L22.998,26Z" style="fill:rgb(78,78,94);fill-rule:nonzero;"/>
        </g>
        <g transform="matrix(2.67915,0,0,2.6197,282.607,227.283)">
            <path d="M43.019,26L52.436,26L68.081,17.029C70.707,15.523 73.901,11.444 74.322,8.051L43.019,26Z" style="fill:rgb(58,58,70);fill-rule:nonzero;"/>
        </g>
    </g>
    <g transform="matrix(1.46774,0,0,0.555556,0.467742,11.1111)">
        <rect x="-1" y="25" width="62" height="9" style="fill:rgb(76,123,173);"/>
    </g>
</svg>
