<?xml version="1.0" encoding="UTF-8" standalone="no"?>
<!DOCTYPE svg PUBLIC "-//W3C//DTD SVG 1.1//EN" "http://www.w3.org/Graphics/SVG/1.1/DTD/svg11.dtd">
<svg width="100%" height="100%" viewBox="0 0 150 30" version="1.1" xmlns="http://www.w3.org/2000/svg" xmlns:xlink="http://www.w3.org/1999/xlink" xml:space="preserve" xmlns:serif="http://www.serif.com/" style="fill-rule:evenodd;clip-rule:evenodd;stroke-linejoin:round;stroke-miterlimit:2;">
    <g transform="matrix(0.542998,0,0,0.542998,-251.201,-64.9443)">
        <g transform="matrix(0.866025,-0.5,0.5,0.866025,-30.0365,363.362)">
            <path d="M695.73,151.28L729.85,151.28L726.16,146.26L699.42,146.26L695.73,151.28Z" style="fill:rgb(153,116,97);fill-rule:nonzero;"/>
        </g>
        <g transform="matrix(0.866025,-0.5,0.5,0.866025,-30.0365,363.362)">
            <g transform="matrix(0.96579,-0.259325,0.259325,0.96579,-12.16,193.02)">
                <rect x="721.09" y="142.13" width="8.91" height="0.92" style="fill:rgb(153,116,97);"/>
            </g>
            <path d="M717.4,142.21L722.57,142.21L723.8,146.26L716.17,146.26L717.4,142.21Z" style="fill:rgb(153,116,97);fill-rule:nonzero;"/>
        </g>
        <g transform="matrix(0.866025,-0.5,0.5,0.866025,-30.0365,363.362)">
            <g transform="matrix(0.96579,-0.259325,0.259325,0.96579,-12.63,189.47)">
                <rect x="707.41" y="142.13" width="8.91" height="0.92" style="fill:rgb(153,116,97);"/>
            </g>
            <path d="M703.72,142.21L708.89,142.21L710.12,146.26L702.49,146.26L703.72,142.21Z" style="fill:rgb(153,116,97);fill-rule:nonzero;"/>
        </g>
    </g>
    <g transform="matrix(0.542998,0,0,0.542998,-251.201,-70.9443)">
        <g transform="matrix(0.866025,-0.5,0.5,0.866025,-35.5614,364.843)">
            <rect x="587.13" y="133.43" width="0.93" height="12.97" style="fill:rgb(58,58,70);"/>
        </g>
        <g transform="matrix(0.866025,-0.5,0.5,0.866025,-35.5614,364.843)">
            <rect x="570.83" y="133.43" width="25.6" height="3.29" style="fill:rgb(153,116,97);"/>
        </g>
        <g transform="matrix(0.866025,-0.5,0.5,0.866025,-35.5614,364.843)">
            <path d="M595.72,134.44L570.36,134.44C570.08,134.44 569.86,134.22 569.86,133.94C569.86,133.66 570.08,133.44 570.36,133.44L596.55,133.44L595.71,134.44L595.72,134.44Z" style="fill:rgb(58,58,70);fill-rule:nonzero;"/>
        </g>
        <g transform="matrix(0.866025,-0.5,0.5,0.866025,-35.5614,364.843)">
            <path d="M598.98,130.58L658.45,130.58C661.51,130.58 664.38,132.04 666.19,134.5L674.92,146.4L585.62,146.4L598.98,130.58Z" style="fill:rgb(108,71,51);fill-rule:nonzero;"/>
        </g>
        <g transform="matrix(0.866025,-0.5,0.5,0.866025,-35.5614,364.843)">
            <path d="M678.75,146.4L670.02,134.5C670.02,134.5 669.97,134.43 669.94,134.39C669.47,133.77 668.74,133.43 667.97,133.43L600.41,133.43L589.46,146.4L678.76,146.4L678.75,146.4Z" style="fill:rgb(153,116,97);fill-rule:nonzero;"/>
        </g>
        <g transform="matrix(0.866025,-0.5,0.5,0.866025,-35.5614,364.843)">
            <path d="M671.2,135.78L674.27,140.14L661.22,140.14L661.22,134.9L669.52,134.9C670.19,134.9 670.82,135.23 671.2,135.77L671.2,135.78Z" style="fill-rule:nonzero;"/>
            <rect x="651.18" y="134.91" width="7.74" height="5.24"/>
            <rect x="641.05" y="134.91" width="7.74" height="5.24"/>
            <rect x="630.92" y="134.91" width="7.74" height="5.24"/>
            <rect x="617.66" y="134.91" width="10.88" height="5.24"/>
        </g>
        <g transform="matrix(0.866025,-0.5,0.5,0.866025,-35.5614,364.843)">
            <path d="M609.18,146.47L608.88,146.47L608.88,134.29L616.41,134.29L616.41,146.33L616.11,146.33L616.11,134.58L609.18,134.58L609.18,146.47Z" style="fill:rgb(78,78,94);fill-rule:nonzero;"/>
            <path d="M610.73,137.53C610.73,136.47 611.59,135.61 612.65,135.61C613.71,135.61 614.57,136.47 614.57,137.53C614.57,138.59 613.71,139.45 612.65,139.45C611.59,139.45 610.73,138.59 610.73,137.53Z" style="fill-rule:nonzero;"/>
        </g>
        <g transform="matrix(0.866025,-0.5,0.5,0.866025,-35.5614,364.843)">
            <path d="M600.97,134.91L597.29,140.14L607.49,140.14L607.49,134.91L600.97,134.91Z" style="fill-rule:nonzero;"/>
        </g>
        <g transform="matrix(0.866025,-0.5,0.5,0.866025,-35.5614,364.843)">
            <path d="M590.82,144.76L677.55,144.76L678.75,146.4L589.45,146.4L590.82,144.76Z" style="fill:rgb(108,71,51);fill-rule:nonzero;"/>
        </g>
    </g>
    <g transform="matrix(0.47025,-0.271499,0.271499,0.47025,-270.511,127.165)">
        <rect x="604.58" y="128.58" width="8.06" height="2.01" style="fill:rgb(121,121,145);"/>
    </g>
    <g transform="matrix(0.47025,-0.271499,0.271499,0.47025,-270.511,127.165)">
        <rect x="604.58" y="128.58" width="8.06" height="0.78" style="fill:rgb(78,78,94);"/>
    </g>
    <g transform="matrix(0.542998,0,0,0.542998,-251.201,-70.9443)">
        <g transform="matrix(0.866025,-0.5,0.5,0.866025,-35.5614,364.843)">
            <rect x="565.68" y="142.5" width="121.39" height="0.48" style="fill:rgb(58,58,70);"/>
        </g>
        <g transform="matrix(0.866025,-0.5,0.5,0.866025,-35.5614,364.843)">
            <rect x="601.66" y="142.98" width="0.33" height="3.4" style="fill:rgb(58,58,70);"/>
        </g>
        <g transform="matrix(0.866025,-0.5,0.5,0.866025,-35.5614,364.843)">
            <rect x="603.88" y="142.98" width="0.33" height="3.4" style="fill:rgb(58,58,70);"/>
        </g>
        <g transform="matrix(0.866025,-0.5,0.5,0.866025,-35.5614,364.843)">
            <rect x="606.1" y="142.98" width="0.33" height="3.4" style="fill:rgb(58,58,70);"/>
        </g>
        <g transform="matrix(0.866025,-0.5,0.5,0.866025,-35.5614,364.843)">
            <rect x="608.32" y="142.98" width="0.33" height="3.4" style="fill:rgb(58,58,70);"/>
        </g>
        <g transform="matrix(0.866025,-0.5,0.5,0.866025,-35.5614,364.843)">
            <rect x="610.54" y="142.98" width="0.33" height="3.4" style="fill:rgb(58,58,70);"/>
        </g>
        <g transform="matrix(0.866025,-0.5,0.5,0.866025,-35.5614,364.843)">
            <rect x="612.76" y="142.98" width="0.33" height="3.4" style="fill:rgb(58,58,70);"/>
        </g>
        <g transform="matrix(0.866025,-0.5,0.5,0.866025,-35.5614,364.843)">
            <rect x="614.99" y="142.98" width="0.33" height="3.4" style="fill:rgb(58,58,70);"/>
        </g>
        <g transform="matrix(0.866025,-0.5,0.5,0.866025,-35.5614,364.843)">
            <rect x="617.21" y="142.98" width="0.33" height="3.4" style="fill:rgb(58,58,70);"/>
        </g>
        <g transform="matrix(0.866025,-0.5,0.5,0.866025,-35.5614,364.843)">
            <rect x="619.43" y="142.98" width="0.33" height="3.4" style="fill:rgb(58,58,70);"/>
        </g>
        <g transform="matrix(0.866025,-0.5,0.5,0.866025,-35.5614,364.843)">
            <rect x="621.65" y="142.98" width="0.33" height="3.4" style="fill:rgb(58,58,70);"/>
        </g>
        <g transform="matrix(0.866025,-0.5,0.5,0.866025,-35.5614,364.843)">
            <rect x="623.91" y="142.98" width="0.33" height="3.4" style="fill:rgb(58,58,70);"/>
        </g>
        <g transform="matrix(0.866025,-0.5,0.5,0.866025,-35.5614,364.843)">
            <rect x="626.14" y="142.98" width="0.33" height="3.4" style="fill:rgb(58,58,70);"/>
        </g>
        <g transform="matrix(0.866025,-0.5,0.5,0.866025,-35.5614,364.843)">
            <rect x="628.36" y="142.98" width="0.33" height="3.4" style="fill:rgb(58,58,70);"/>
        </g>
        <g transform="matrix(0.866025,-0.5,0.5,0.866025,-35.5614,364.843)">
            <rect x="630.58" y="142.98" width="0.33" height="3.4" style="fill:rgb(58,58,70);"/>
        </g>
        <g transform="matrix(0.866025,-0.5,0.5,0.866025,-35.5614,364.843)">
            <rect x="632.8" y="142.98" width="0.33" height="3.4" style="fill:rgb(58,58,70);"/>
        </g>
        <g transform="matrix(0.866025,-0.5,0.5,0.866025,-35.5614,364.843)">
            <rect x="635.02" y="142.98" width="0.33" height="3.4" style="fill:rgb(58,58,70);"/>
        </g>
        <g transform="matrix(0.866025,-0.5,0.5,0.866025,-35.5614,364.843)">
            <rect x="637.24" y="142.98" width="0.33" height="3.4" style="fill:rgb(58,58,70);"/>
        </g>
        <g transform="matrix(0.866025,-0.5,0.5,0.866025,-35.5614,364.843)">
            <rect x="639.46" y="142.98" width="0.33" height="3.4" style="fill:rgb(58,58,70);"/>
        </g>
        <g transform="matrix(0.866025,-0.5,0.5,0.866025,-35.5614,364.843)">
            <rect x="641.68" y="142.98" width="0.33" height="3.4" style="fill:rgb(58,58,70);"/>
        </g>
        <g transform="matrix(0.866025,-0.5,0.5,0.866025,-35.5614,364.843)">
            <rect x="643.91" y="142.98" width="0.33" height="3.4" style="fill:rgb(58,58,70);"/>
        </g>
        <g transform="matrix(0.866025,-0.5,0.5,0.866025,-35.5614,364.843)">
            <rect x="646.13" y="142.98" width="0.33" height="3.4" style="fill:rgb(58,58,70);"/>
        </g>
        <g transform="matrix(0.866025,-0.5,0.5,0.866025,-35.5614,364.843)">
            <rect x="648.35" y="142.98" width="0.33" height="3.4" style="fill:rgb(58,58,70);"/>
        </g>
        <g transform="matrix(0.866025,-0.5,0.5,0.866025,-35.5614,364.843)">
            <rect x="650.57" y="142.98" width="0.33" height="3.4" style="fill:rgb(58,58,70);"/>
        </g>
        <g transform="matrix(0.866025,-0.5,0.5,0.866025,-35.5614,364.843)">
            <rect x="652.84" y="142.98" width="0.33" height="3.4" style="fill:rgb(58,58,70);"/>
        </g>
        <g transform="matrix(0.866025,-0.5,0.5,0.866025,-35.5614,364.843)">
            <rect x="655.06" y="142.98" width="0.33" height="3.4" style="fill:rgb(58,58,70);"/>
        </g>
        <g transform="matrix(0.866025,-0.5,0.5,0.866025,-35.5614,364.843)">
            <rect x="657.28" y="142.98" width="0.33" height="3.4" style="fill:rgb(58,58,70);"/>
        </g>
        <g transform="matrix(0.866025,-0.5,0.5,0.866025,-35.5614,364.843)">
            <rect x="659.5" y="142.98" width="0.33" height="3.4" style="fill:rgb(58,58,70);"/>
        </g>
        <g transform="matrix(0.866025,-0.5,0.5,0.866025,-35.5614,364.843)">
            <rect x="661.72" y="142.98" width="0.33" height="3.4" style="fill:rgb(58,58,70);"/>
        </g>
        <g transform="matrix(0.866025,-0.5,0.5,0.866025,-35.5614,364.843)">
            <rect x="663.94" y="142.98" width="0.33" height="3.4" style="fill:rgb(58,58,70);"/>
        </g>
        <g transform="matrix(0.866025,-0.5,0.5,0.866025,-35.5614,364.843)">
            <rect x="666.16" y="142.98" width="0.33" height="3.4" style="fill:rgb(58,58,70);"/>
        </g>
        <g transform="matrix(0.866025,-0.5,0.5,0.866025,-35.5614,364.843)">
            <rect x="668.38" y="142.98" width="0.33" height="3.4" style="fill:rgb(58,58,70);"/>
        </g>
        <g transform="matrix(0.866025,-0.5,0.5,0.866025,-35.5614,364.843)">
            <rect x="670.6" y="142.98" width="0.33" height="3.4" style="fill:rgb(58,58,70);"/>
        </g>
        <g transform="matrix(0.866025,-0.5,0.5,0.866025,-35.5614,364.843)">
            <rect x="672.83" y="142.98" width="0.33" height="3.4" style="fill:rgb(58,58,70);"/>
        </g>
        <g transform="matrix(0.866025,-0.5,0.5,0.866025,-35.5614,364.843)">
            <rect x="675.05" y="142.98" width="0.33" height="3.4" style="fill:rgb(58,58,70);"/>
        </g>
        <g transform="matrix(0.866025,-0.5,0.5,0.866025,-35.5614,364.843)">
            <rect x="677.27" y="142.98" width="0.33" height="3.4" style="fill:rgb(58,58,70);"/>
        </g>
        <g transform="matrix(0.866025,-0.5,0.5,0.866025,-35.5614,364.843)">
            <rect x="679.49" y="142.98" width="0.33" height="3.4" style="fill:rgb(58,58,70);"/>
        </g>
        <g transform="matrix(0.866025,-0.5,0.5,0.866025,-35.5614,364.843)">
            <rect x="681.76" y="142.98" width="0.33" height="3.4" style="fill:rgb(58,58,70);"/>
        </g>
        <g transform="matrix(0.866025,-0.5,0.5,0.866025,-35.5614,364.843)">
            <rect x="683.98" y="142.98" width="0.33" height="3.4" style="fill:rgb(58,58,70);"/>
        </g>
        <g transform="matrix(0.866025,-0.5,0.5,0.866025,-35.5614,364.843)">
            <rect x="686.2" y="142.98" width="0.33" height="3.4" style="fill:rgb(58,58,70);"/>
        </g>
    </g>
    <g transform="matrix(0.47025,-0.271499,0.472842,0.818986,-299.979,76.1239)">
        <path d="M564.46,146.36L679.392,146.36L697.35,161.26L564.46,161.26L564.46,146.36Z" style="fill:rgb(153,116,97);fill-rule:nonzero;"/>
    </g>
    <g transform="matrix(0.47025,-0.271499,0.271499,0.47025,-267.511,132.361)">
        <path d="M686.13,159.03L564.49,159.03L564.49,161.26L683.74,161.26L686.13,159.03Z" style="fill:rgb(108,71,51);fill-rule:nonzero;"/>
    </g>
    <g transform="matrix(0.542998,0,0,0.542998,-251.201,-64.9443)">
        <g transform="matrix(0.866025,-0.5,0.5,0.866025,-30.0365,363.362)">
            <path d="M686.73,151.03L689.19,154.52C689.39,154.81 689.19,155.21 688.83,155.21L677.06,155.21C676.82,155.21 676.62,155.01 676.62,154.77L676.62,150.41C676.62,150.17 676.82,149.97 677.06,149.97L684.69,149.97C685.5,149.97 686.26,150.36 686.73,151.03Z" style="fill-rule:nonzero;"/>
        </g>
        <g transform="matrix(0.866025,-0.5,0.5,0.866025,-30.0365,363.362)">
            <path d="M674.32,150.79C674.32,150.343 673.957,149.98 673.51,149.98L667.39,149.98C666.943,149.98 666.58,150.343 666.58,150.79L666.58,154.41C666.58,154.857 666.943,155.22 667.39,155.22L673.51,155.22C673.957,155.22 674.32,154.857 674.32,154.41L674.32,150.79Z"/>
        </g>
        <g transform="matrix(0.866025,-0.5,0.5,0.866025,-30.0365,363.362)">
            <path d="M664.19,150.79C664.19,150.343 663.827,149.98 663.38,149.98L657.26,149.98C656.813,149.98 656.45,150.343 656.45,150.79L656.45,154.41C656.45,154.857 656.813,155.22 657.26,155.22L663.38,155.22C663.827,155.22 664.19,154.857 664.19,154.41L664.19,150.79Z"/>
        </g>
        <g transform="matrix(0.866025,-0.5,0.5,0.866025,-30.0365,363.362)">
            <path d="M654.06,150.79C654.06,150.343 653.697,149.98 653.25,149.98L647.13,149.98C646.683,149.98 646.32,150.343 646.32,150.79L646.32,154.41C646.32,154.857 646.683,155.22 647.13,155.22L653.25,155.22C653.697,155.22 654.06,154.857 654.06,154.41L654.06,150.79Z"/>
        </g>
        <g transform="matrix(0.866025,-0.5,0.5,0.866025,-30.0365,363.362)">
            <path d="M643.94,150.79C643.94,150.343 643.577,149.98 643.13,149.98L633.87,149.98C633.423,149.98 633.06,150.343 633.06,150.79L633.06,154.41C633.06,154.857 633.423,155.22 633.87,155.22L643.13,155.22C643.577,155.22 643.94,154.857 643.94,154.41L643.94,150.79Z"/>
        </g>
    </g>
    <g transform="matrix(0.542998,0,0,0.542998,-251.201,-64.9443)">
        <g transform="matrix(0.866025,-0.5,0.5,0.866025,-35.5614,353.793)">
            <path d="M626.12,152.59C626.12,151.53 626.98,150.67 628.04,150.67C629.1,150.67 629.96,151.53 629.96,152.59C629.96,153.65 629.1,154.51 628.04,154.51C626.98,154.51 626.12,153.65 626.12,152.59Z" style="fill-rule:nonzero;"/>
        </g>
        <g transform="matrix(0.866025,-0.5,0.5,0.866025,-27.5869,349.189)">
            <path d="M626.12,152.59C626.12,151.53 626.98,150.67 628.04,150.67C629.1,150.67 629.96,151.53 629.96,152.59C629.96,153.65 629.1,154.51 628.04,154.51C626.98,154.51 626.12,153.65 626.12,152.59Z" style="fill-rule:nonzero;"/>
        </g>
        <g transform="matrix(0.866025,-0.5,0.5,0.866025,-43.5359,358.397)">
            <path d="M626.12,152.59C626.12,151.53 626.98,150.67 628.04,150.67C629.1,150.67 629.96,151.53 629.96,152.59C629.96,153.65 629.1,154.51 628.04,154.51C626.98,154.51 626.12,153.65 626.12,152.59Z" style="fill-rule:nonzero;"/>
        </g>
        <g transform="matrix(0.866025,-0.5,0.5,0.866025,-19.6124,344.585)">
            <path d="M626.12,152.59C626.12,151.53 626.98,150.67 628.04,150.67C629.1,150.67 629.96,151.53 629.96,152.59C629.96,153.65 629.1,154.51 628.04,154.51C626.98,154.51 626.12,153.65 626.12,152.59Z" style="fill-rule:nonzero;"/>
        </g>
        <g transform="matrix(0.866025,-0.5,0.5,0.866025,-11.638,339.981)">
            <path d="M626.12,152.59C626.12,151.53 626.98,150.67 628.04,150.67C629.1,150.67 629.96,151.53 629.96,152.59C629.96,153.65 629.1,154.51 628.04,154.51C626.98,154.51 626.12,153.65 626.12,152.59Z" style="fill-rule:nonzero;"/>
        </g>
        <g transform="matrix(0.866025,-0.5,0.5,0.866025,-3.66353,335.377)">
            <path d="M626.12,152.59C626.12,151.53 626.98,150.67 628.04,150.67C629.1,150.67 629.96,151.53 629.96,152.59C629.96,153.65 629.1,154.51 628.04,154.51C626.98,154.51 626.12,153.65 626.12,152.59Z" style="fill-rule:nonzero;"/>
        </g>
        <g transform="matrix(0.866025,-0.5,0.5,0.866025,4.311,330.773)">
            <path d="M626.12,152.59C626.12,151.53 626.98,150.67 628.04,150.67C629.1,150.67 629.96,151.53 629.96,152.59C629.96,153.65 629.1,154.51 628.04,154.51C626.98,154.51 626.12,153.65 626.12,152.59Z" style="fill-rule:nonzero;"/>
        </g>
    </g>
    <g transform="matrix(0.47025,-0.271499,0.271499,0.47025,-270.511,127.165)">
        <rect x="564.46" y="146.36" width="125.57" height="0.85" style="fill:rgb(58,58,70);"/>
    </g>
    <g transform="matrix(0.542998,0,0,0.542998,-251.201,-64.9443)">
        <g transform="matrix(0.866025,-0.5,0.5,0.866025,-30.0365,363.362)">
            <path d="M463.85,162.45L658.42,162.45L658.42,175.7L473.89,175.7L463.85,162.45Z" style="fill:rgb(108,71,51);fill-rule:nonzero;"/>
        </g>
        <g transform="matrix(0.866025,-0.5,0.5,0.866025,-30.0365,363.362)">
            <rect x="684.09" y="151.66" width="4.29" height="2.64"/>
        </g>
        <g transform="matrix(0.866025,-0.5,0.5,0.866025,-30.0365,363.362)">
            <rect x="677.62" y="151.66" width="4.29" height="2.64"/>
        </g>
        <g transform="matrix(0.866025,-0.5,0.5,0.866025,-30.0365,363.362)">
            <rect x="671.15" y="151.66" width="4.29" height="2.64"/>
        </g>
        <g transform="matrix(0.866025,-0.5,0.5,0.866025,-30.0365,363.362)">
            <path d="M631.97,175.7L705.96,175.7L738.66,149.19L686.39,149.19C672.34,149.19 658.71,154.02 647.8,162.87L631.97,175.7Z" style="fill:rgb(108,71,51);fill-rule:nonzero;"/>
        </g>
        <g transform="matrix(0.866025,-0.5,0.5,0.866025,-30.0365,363.362)">
            <path d="M688.15,150.05L737.6,150.05L738.66,149.19L686.39,149.19C672.34,149.19 658.71,154.02 647.8,162.87L631.97,175.7L633.73,175.7L649.56,163.29C660.48,154.73 674.1,150.06 688.15,150.06L688.15,150.05Z" style="fill:rgb(21,21,26);fill-rule:nonzero;"/>
        </g>
        <g transform="matrix(0.866025,-0.5,0.5,0.866025,-30.0365,363.362)">
            <path d="M707.21,165.4L700.87,170.11C700.42,170.44 699.79,170.63 699.14,170.63L684.57,170.63C689.65,167.27 696.41,165.4 703.45,165.4L707.21,165.4Z" style="fill:rgb(44,44,54);fill-rule:nonzero;"/>
        </g>
        <g transform="matrix(0.866025,-0.5,0.5,0.866025,-30.0365,363.362)">
            <path d="M707.74,165.4C709.01,165.4 709.58,166.83 708.6,167.56L705.17,170.11C704.72,170.44 704.09,170.63 703.44,170.63L688.87,170.63C693.95,167.27 700.71,165.4 707.75,165.4L707.74,165.4Z" style="fill:rgb(21,21,26);fill-rule:nonzero;"/>
        </g>
    </g>
    <g transform="matrix(0.47025,-0.271499,0.271499,0.47025,-267.511,132.361)">
        <path d="M680.76,155.52L721.07,155.52C721.77,155.52 722.34,154.95 722.34,154.25C722.34,153.55 721.77,152.98 721.07,152.98L680.76,152.98C680.06,152.98 679.49,153.55 679.49,154.25C679.49,154.95 680.06,155.52 680.76,155.52Z" style="fill-rule:nonzero;"/>
    </g>
    <g transform="matrix(0.47025,-0.271499,0.271499,0.47025,-267.511,132.361)">
        <path d="M679.82,169.29C679.82,168.589 679.251,168.02 678.55,168.02L647.59,168.02C646.889,168.02 646.32,168.589 646.32,169.29C646.32,169.991 646.889,170.56 647.59,170.56L678.55,170.56C679.251,170.56 679.82,169.991 679.82,169.29Z"/>
    </g>
    <g transform="matrix(2.45161,0,0,0.555556,1.45161,11.1111)">
        <rect x="-1" y="25" width="62" height="9" style="fill:rgb(76,123,173);"/>
    </g>
</svg>
