<?xml version="1.0" encoding="UTF-8" standalone="no"?>
<!DOCTYPE svg PUBLIC "-//W3C//DTD SVG 1.1//EN" "http://www.w3.org/Graphics/SVG/1.1/DTD/svg11.dtd">
<svg width="100%" height="100%" viewBox="0 0 90 30" version="1.1" xmlns="http://www.w3.org/2000/svg" xmlns:xlink="http://www.w3.org/1999/xlink" xml:space="preserve" xmlns:serif="http://www.serif.com/" style="fill-rule:evenodd;clip-rule:evenodd;stroke-linejoin:round;stroke-miterlimit:2;">
    <g transform="matrix(0.372809,0,0,0.372809,-1,-81.8545)">
        <g transform="matrix(0.866025,-0.5,0.5,0.866025,-132.73,128.165)">
            <path d="M99.01,222.15L97.89,222.15L93.68,210.35L94.8,210.35L99.01,222.15Z" style="fill:rgb(89,49,30);fill-rule:nonzero;"/>
        </g>
        <g transform="matrix(0.866025,-0.5,0.5,0.866025,-132.73,128.165)">
            <path d="M106.08,239.53L103.83,239.53L95.4,215.94L97.64,215.94L106.08,239.53Z" style="fill:rgb(89,49,30);fill-rule:nonzero;"/>
        </g>
        <g transform="matrix(0.866025,-0.5,0.5,0.866025,-132.73,128.165)">
            <rect x="96.67" y="220.85" width="11.81" height="1.29" style="fill:rgb(89,49,30);"/>
        </g>
        <g transform="matrix(0.866025,-0.5,0.5,0.866025,-132.73,128.165)">
            <rect x="98.02" y="224.63" width="11.81" height="1.29" style="fill:rgb(89,49,30);"/>
        </g>
        <g transform="matrix(0.866025,-0.5,0.5,0.866025,-132.73,128.165)">
            <rect x="99.51" y="228.59" width="11.81" height="1.29" style="fill:rgb(89,49,30);"/>
        </g>
    </g>
    <g transform="matrix(0.322862,-0.186405,0.186405,0.322862,-50.483,-34.0736)">
        <path d="M118.41,239.05L104.52,239.05L106.6,220.85L114.79,220.85L118.41,239.05Z" style="fill:rgb(89,49,30);fill-rule:nonzero;"/>
    </g>
    <g transform="matrix(0.322862,-0.186405,0.186405,0.322862,-50.483,-34.0736)">
        <path d="M135.06,239.05L113.87,239.05L117.04,231.94L135.06,231.94L135.06,239.05Z" style="fill:rgb(152,114,95);fill-rule:nonzero;"/>
    </g>
    <g transform="matrix(0.322862,-0.186405,0.186405,0.322862,-50.483,-34.0736)">
        <path d="M240.81,259.86L3.63,259.86L7.4,273.46L35.7,282.2L198.99,280.82L224.63,274.44L240.81,259.86Z" style="fill:rgb(109,71,52);fill-rule:nonzero;"/>
    </g>
    <g transform="matrix(0.322862,-0.186405,0.186405,0.322862,-50.483,-34.0736)">
        <path d="M139.55,249.81L87.84,249.81L95.57,239.04L136.59,239.04L139.55,249.81Z" style="fill:rgb(133,96,78);fill-rule:nonzero;"/>
    </g>
    <g transform="matrix(0.356957,-0.206089,0.186404,0.322862,-51.3618,-32.4115)">
        <path d="M191.1,282.2L40.44,282.2L40.44,277.4L192.84,277.54L191.1,282.2Z" style="fill:rgb(89,49,30);fill-rule:nonzero;"/>
    </g>
    <g transform="matrix(0.322862,-0.186405,0.186405,0.322862,-50.483,-34.0736)">
        <path d="M119.42,238.35L135.06,238.35L135.06,237.02L119.98,237.02L119.42,238.35Z" style="fill:rgb(109,76,57);fill-rule:nonzero;"/>
    </g>
    <g transform="matrix(0.322862,-0.186405,0.228228,0.395302,-61.3512,-52.8979)">
        <path d="M33.75,283.77L205.54,283.77L215.67,279.08L70.49,279.22L7.4,273.46L33.75,283.77Z" style="fill:rgb(89,49,30);fill-rule:nonzero;"/>
    </g>
    <g transform="matrix(0.322862,-0.186405,0.186405,0.322862,-50.483,-34.0736)">
        <rect x="118.2" y="230.72" width="4.91" height="1.22" style="fill:rgb(109,76,57);"/>
    </g>
    <g transform="matrix(0.322862,-0.186405,0.186405,0.322862,-50.483,-34.0736)">
        <rect x="117.55" y="229.5" width="6.22" height="1.22" style="fill:rgb(152,114,95);"/>
    </g>
    <g transform="matrix(0.322862,-0.186405,0.186405,0.322862,-50.483,-34.0736)">
        <rect x="118.2" y="230.72" width="4.91" height="0.48" style="fill:rgb(109,76,57);"/>
    </g>
    <g transform="matrix(0.322862,-0.186405,0.186405,0.322862,-50.483,-34.0736)">
        <path d="M120.98,234.5L135.06,234.5L135.06,233.17L121.54,233.17L120.98,234.5Z" style="fill:rgb(109,76,57);fill-rule:nonzero;"/>
    </g>
    <g transform="matrix(0.322862,-0.186405,0.186405,0.322862,-50.483,-34.0736)">
        <path d="M120.19,236.4L135.06,236.4L135.06,235.07L120.75,235.07L120.19,236.4Z" style="fill:rgb(109,76,57);fill-rule:nonzero;"/>
    </g>
    <g transform="matrix(0.322862,-0.186405,0.296416,0.513407,-81.1997,-87.2765)">
        <path d="M44.75,292.82L196.13,292.85C196.92,292.85 197.33,292.06 196.78,291.58C195.17,290.16 177.98,289.28 182.97,287.44L205.53,283.76L33.75,283.76L44.75,292.82Z" style="fill:rgb(89,49,30);fill-rule:nonzero;"/>
    </g>
    <g transform="matrix(0.322862,-0.186405,0.186405,0.322862,-50.483,-34.0736)">
        <path d="M154.95,259.86L66.51,259.86L79.73,249.09L149.87,249.09L154.95,259.86Z" style="fill:rgb(152,114,95);fill-rule:nonzero;"/>
    </g>
    <g transform="matrix(0.322862,-0.186405,0.186405,0.322862,-50.483,-34.0736)">
        <path d="M94.82,241.94L108.91,241.94L109.37,240.62L95.84,240.62L94.82,241.94Z" style="fill:rgb(109,76,57);fill-rule:nonzero;"/>
    </g>
    <g transform="matrix(0.322862,-0.186405,0.186405,0.322862,-50.483,-34.0736)">
        <path d="M93.38,243.85L108.26,243.85L108.71,242.52L94.4,242.52L93.38,243.85Z" style="fill:rgb(109,76,57);fill-rule:nonzero;"/>
    </g>
    <g transform="matrix(0.322862,-0.186405,0.186405,0.322862,-50.483,-34.0736)">
        <path d="M91.94,245.8L107.59,245.8L108.04,244.47L92.96,244.47L91.94,245.8Z" style="fill:rgb(109,76,57);fill-rule:nonzero;"/>
    </g>
    <g transform="matrix(0.322862,-0.186405,0.228228,0.395302,-61.3512,-52.8979)">
        <path d="M224.63,274.44L215.68,279.06L205.54,283.77L176.66,279.12L224.63,274.44Z" style="fill:rgb(89,49,30);fill-rule:nonzero;"/>
    </g>
    <g transform="matrix(0.322862,-0.186405,0.186405,0.322862,-50.483,-34.0736)">
        <path d="M231.98,267.82L5.83,267.82L5.2,265.53L234.52,265.53L231.98,267.82Z" style="fill:rgb(89,49,30);fill-rule:nonzero;"/>
    </g>
    <g transform="matrix(0.322862,-0.186405,0.228228,0.395302,-61.3512,-52.8979)">
        <path d="M240.81,259.86L224.63,274.44L192.84,277.54L222.27,271.03L240.81,259.86Z" style="fill:rgb(89,49,30);fill-rule:nonzero;"/>
    </g>
    <g transform="matrix(0.322862,-0.186405,0.186405,0.322862,-50.483,-34.0736)">
        <circle cx="122.1" cy="271.03" r="1.78" style="fill:rgb(89,49,30);"/>
    </g>
    <g transform="matrix(0.322862,-0.186405,0.186405,0.322862,-50.483,-34.0736)">
        <path d="M146.32,271.03C146.32,270.05 147.12,269.25 148.1,269.25C149.08,269.25 149.88,270.05 149.88,271.03C149.88,272.01 149.08,272.81 148.1,272.81C147.12,272.81 146.32,272.01 146.32,271.03Z" style="fill:rgb(89,49,30);fill-rule:nonzero;"/>
    </g>
    <g transform="matrix(0.322862,-0.186405,0.186405,0.322862,-50.483,-34.0736)">
        <path d="M153.17,271.03C153.17,270.05 153.97,269.25 154.95,269.25C155.93,269.25 156.73,270.05 156.73,271.03C156.73,272.01 155.93,272.81 154.95,272.81C153.97,272.81 153.17,272.01 153.17,271.03Z" style="fill:rgb(89,49,30);fill-rule:nonzero;"/>
    </g>
    <g transform="matrix(0.322862,-0.186405,0.186405,0.322862,-50.483,-34.0736)">
        <circle cx="161.8" cy="271.03" r="1.78" style="fill:rgb(89,49,30);"/>
    </g>
    <g transform="matrix(0.322862,-0.186405,0.186405,0.322862,-50.483,-34.0736)">
        <circle cx="168.65" cy="271.03" r="1.78" style="fill:rgb(89,49,30);"/>
    </g>
    <g transform="matrix(0.322862,-0.186405,0.186405,0.322862,-50.483,-34.0736)">
        <path d="M173.73,271.03C173.73,270.05 174.53,269.25 175.51,269.25C176.49,269.25 177.29,270.05 177.29,271.03C177.29,272.01 176.49,272.81 175.51,272.81C174.53,272.81 173.73,272.01 173.73,271.03Z" style="fill:rgb(89,49,30);fill-rule:nonzero;"/>
    </g>
    <g transform="matrix(0.322862,-0.186405,0.186405,0.322862,-50.483,-34.0736)">
        <path d="M180.59,271.03C180.59,270.05 181.39,269.25 182.37,269.25C183.35,269.25 184.15,270.05 184.15,271.03C184.15,272.01 183.35,272.81 182.37,272.81C181.39,272.81 180.59,272.01 180.59,271.03Z" style="fill:rgb(89,49,30);fill-rule:nonzero;"/>
    </g>
    <g transform="matrix(0.322862,-0.186405,0.186405,0.322862,-50.483,-34.0736)">
        <path d="M164.2,285.21L51.64,285.21C50.69,285.21 49.92,284.44 49.92,283.49C49.92,282.54 50.69,281.77 51.64,281.77L164.2,281.77C165.15,281.77 165.92,282.54 165.92,283.49C165.92,284.44 165.15,285.21 164.2,285.21Z" style="fill:rgb(109,71,52);fill-rule:nonzero;"/>
    </g>
    <g transform="matrix(0.322862,-0.186405,0.186405,0.322862,-50.483,-34.0736)">
        <path d="M98.21,259.86L54.42,259.86L59.58,255.08L87.84,255.08L98.21,259.86Z" style="fill:rgb(133,96,78);fill-rule:nonzero;"/>
    </g>
    <g transform="matrix(0.322862,-0.186405,0.186405,0.322862,-50.483,-34.0736)">
        <path d="M144.63,257.47L99.89,257.47C98.96,257.47 98.2,256.71 98.2,255.78C98.2,254.85 98.96,254.09 99.89,254.09L144.63,254.09C145.56,254.09 146.32,254.85 146.32,255.78C146.32,256.71 145.56,257.47 144.63,257.47Z" style="fill:rgb(133,96,78);fill-rule:nonzero;"/>
    </g>
    <g transform="matrix(0.372809,0,0,0.372809,-1,-81.8545)">
        <g transform="matrix(0.866025,-0.5,0.5,0.866025,-132.73,128.165)">
            <path d="M168.27,259.85L196.45,259.85L193.4,255.7L171.32,255.7L168.27,259.85Z" style="fill:rgb(89,49,30);fill-rule:nonzero;"/>
        </g>
        <g transform="matrix(0.866025,-0.5,0.5,0.866025,-132.73,128.165)">
            <g transform="matrix(0.966016,-0.258482,0.258482,0.966016,-58.76,58.45)">
                <rect x="189.22" y="252.3" width="7.36" height="0.76" style="fill:rgb(134,97,78);"/>
            </g>
            <path d="M186.17,252.36L190.44,252.36L191.46,255.7L185.15,255.7L186.17,252.36Z" style="fill:rgb(134,97,78);fill-rule:nonzero;"/>
        </g>
        <g transform="matrix(0.866025,-0.5,0.5,0.866025,-132.73,128.165)">
            <g transform="matrix(0.966016,-0.258482,0.258482,0.966016,-59.14,55.53)">
                <rect x="177.92" y="252.3" width="7.36" height="0.76" style="fill:rgb(134,97,78);"/>
            </g>
            <path d="M174.87,252.36L179.15,252.36L180.16,255.7L173.86,255.7L174.87,252.36Z" style="fill:rgb(134,97,78);fill-rule:nonzero;"/>
        </g>
    </g>
    <g transform="matrix(0.372809,0,0,0.372809,-1,-81.8545)">
        <g transform="matrix(0.866025,-0.5,0.5,0.866025,-132.73,128.165)">
            <path d="M203.98,259.85L232.16,259.85L229.11,255.7L207.03,255.7L203.98,259.85Z" style="fill:rgb(89,49,30);fill-rule:nonzero;"/>
        </g>
        <g transform="matrix(0.866025,-0.5,0.5,0.866025,-132.73,128.165)">
            <g transform="matrix(0.966061,-0.258313,0.258313,0.966061,-57.52,67.64)">
                <rect x="224.92" y="252.3" width="7.36" height="0.76" style="fill:rgb(134,97,78);"/>
            </g>
            <path d="M221.88,252.36L226.15,252.36L227.17,255.7L220.86,255.7L221.88,252.36Z" style="fill:rgb(134,97,78);fill-rule:nonzero;"/>
        </g>
        <g transform="matrix(0.866025,-0.5,0.5,0.866025,-132.73,128.165)">
            <g transform="matrix(0.966061,-0.258313,0.258313,0.966061,-57.88,64.69)">
                <rect x="213.63" y="252.3" width="7.36" height="0.76" style="fill:rgb(134,97,78);"/>
            </g>
            <path d="M210.58,252.36L214.85,252.36L215.87,255.7L209.57,255.7L210.58,252.36Z" style="fill:rgb(134,97,78);fill-rule:nonzero;"/>
        </g>
    </g>
    <g transform="matrix(0.322862,-0.186405,0.186405,0.322862,-50.483,-34.0736)">
        <rect x="150.31" y="258.3" width="42.59" height="1.57" style="fill:rgb(89,49,30);"/>
    </g>
    <g transform="matrix(0.322862,-0.186405,0.186405,0.322862,-50.483,-34.0736)">
        <path d="M209.86,254.69L219.9,254.69L219.9,255.7L207.03,255.7L209.86,254.69Z" style="fill:rgb(134,97,78);fill-rule:nonzero;"/>
    </g>
    <g transform="matrix(0.322862,-0.186405,0.186405,0.322862,-50.483,-34.0736)">
        <path d="M225.43,257.27L235.47,257.27L235.47,258.28L222.6,258.28L225.43,257.27Z" style="fill:rgb(89,49,30);fill-rule:nonzero;"/>
    </g>
    <g transform="matrix(0.245483,-0.14173,0.186405,0.322862,-34.9499,-43.0416)">
        <path d="M201.52,258.3L255.92,258.3C256.35,258.3 256.7,258.65 256.7,259.08C256.7,259.51 256.35,259.86 255.92,259.86L201.52,259.86C201.09,259.86 200.74,259.51 200.74,259.08C200.74,258.65 201.09,258.3 201.52,258.3Z" style="fill:rgb(89,49,30);fill-rule:nonzero;"/>
    </g>
    <g transform="matrix(0.372809,0,0,0.372809,-1,-81.8545)">
        <g transform="matrix(0.707353,-0.70686,0.70686,0.707353,-160.978,196.758)">
            <rect x="139.13" y="245.71" width="7.36" height="0.76" style="fill:rgb(89,49,30);"/>
        </g>
        <g transform="matrix(0.866025,-0.5,0.5,0.866025,-132.73,128.165)">
            <path d="M136.08,245.77L140.35,245.77L141.37,249.11L135.06,249.11L136.08,245.77Z" style="fill:rgb(89,49,30);fill-rule:nonzero;"/>
        </g>
    </g>
    <g transform="matrix(0.372809,0,0,0.372809,-1,-81.8545)">
        <g transform="matrix(0.707477,-0.706736,0.706736,0.707477,-162.867,194.246)">
            <rect x="127.17" y="245.71" width="7.36" height="0.76" style="fill:rgb(89,49,30);"/>
        </g>
        <g transform="matrix(0.866025,-0.5,0.5,0.866025,-132.73,128.165)">
            <path d="M124.12,245.77L128.4,245.77L129.41,249.11L123.11,249.11L124.12,245.77Z" style="fill:rgb(89,49,30);fill-rule:nonzero;"/>
        </g>
    </g>
    <g transform="matrix(0.372809,0,0,0.372809,-1,-81.8545)">
        <g transform="matrix(0.707477,-0.706736,0.706736,0.707477,-164.831,191.685)">
            <rect x="114.79" y="245.71" width="7.36" height="0.76" style="fill:rgb(89,49,30);"/>
        </g>
        <g transform="matrix(0.866025,-0.5,0.5,0.866025,-132.73,128.165)">
            <path d="M111.74,245.77L116.02,245.77L117.03,249.11L110.73,249.11L111.74,245.77Z" style="fill:rgb(89,49,30);fill-rule:nonzero;"/>
        </g>
    </g>
    <g transform="matrix(1.5,0,0,0.555556,0.5,11.1111)">
        <rect x="-1" y="25" width="62" height="9" style="fill:rgb(76,123,173);"/>
    </g>
</svg>
