<?xml version="1.0" encoding="UTF-8" standalone="no"?>
<!DOCTYPE svg PUBLIC "-//W3C//DTD SVG 1.1//EN" "http://www.w3.org/Graphics/SVG/1.1/DTD/svg11.dtd">
<svg width="100%" height="100%" viewBox="0 0 90 30" version="1.1" xmlns="http://www.w3.org/2000/svg" xmlns:xlink="http://www.w3.org/1999/xlink" xml:space="preserve" xmlns:serif="http://www.serif.com/" style="fill-rule:evenodd;clip-rule:evenodd;stroke-linejoin:round;stroke-miterlimit:2;">
    <g transform="matrix(0.372809,0,0,0.372809,-1,-81.8545)">
        <path d="M99.01,222.15L97.89,222.15L93.68,210.35L94.8,210.35L99.01,222.15Z" style="fill:rgb(89,49,30);fill-rule:nonzero;"/>
        <path d="M106.08,239.53L103.83,239.53L95.4,215.94L97.64,215.94L106.08,239.53Z" style="fill:rgb(89,49,30);fill-rule:nonzero;"/>
        <rect x="96.67" y="220.85" width="11.81" height="1.29" style="fill:rgb(89,49,30);"/>
        <rect x="98.02" y="224.63" width="11.81" height="1.29" style="fill:rgb(89,49,30);"/>
        <rect x="99.51" y="228.59" width="11.81" height="1.29" style="fill:rgb(89,49,30);"/>
    </g>
    <g transform="matrix(0.372809,0,0,0.372809,-1,-81.8545)">
        <path d="M118.41,239.05L104.52,239.05L106.6,220.85L114.79,220.85L118.41,239.05Z" style="fill:rgb(89,49,30);fill-rule:nonzero;"/>
    </g>
    <g transform="matrix(0.372809,0,0,0.372809,-1,-81.8545)">
        <path d="M135.06,239.05L113.87,239.05L117.04,231.94L135.06,231.94L135.06,239.05Z" style="fill:rgb(152,114,95);fill-rule:nonzero;"/>
    </g>
    <g transform="matrix(0.372809,0,0,0.372809,-1,-81.8545)">
        <path d="M240.81,259.86L3.63,259.86L7.4,273.46L35.7,282.2L198.99,280.82L224.63,274.44L240.81,259.86Z" style="fill:rgb(109,71,52);fill-rule:nonzero;"/>
    </g>
    <g transform="matrix(0.372809,0,0,0.372809,-1,-81.8545)">
        <path d="M139.55,249.81L87.84,249.81L95.57,239.04L136.59,239.04L139.55,249.81Z" style="fill:rgb(133,96,78);fill-rule:nonzero;"/>
    </g>
    <g transform="matrix(0.412179,0,0,0.372809,-2.59213,-80.8545)">
        <path d="M191.1,282.2L40.44,282.2L40.44,277.4L192.84,277.54L191.1,282.2Z" style="fill:rgb(89,49,30);fill-rule:nonzero;"/>
    </g>
    <g transform="matrix(0.372809,0,0,0.372809,-1,-81.8545)">
        <path d="M119.42,238.35L135.06,238.35L135.06,237.02L119.98,237.02L119.42,238.35Z" style="fill:rgb(109,76,57);fill-rule:nonzero;"/>
    </g>
    <g transform="matrix(0.372809,0,0,0.456456,-1,-103.591)">
        <path d="M33.75,283.77L205.54,283.77L215.67,279.08L70.49,279.22L7.4,273.46L33.75,283.77Z" style="fill:rgb(89,49,30);fill-rule:nonzero;"/>
    </g>
    <g transform="matrix(0.372809,0,0,0.372809,-1,-81.8545)">
        <rect x="118.2" y="230.72" width="4.91" height="1.22" style="fill:rgb(109,76,57);"/>
    </g>
    <g transform="matrix(0.372809,0,0,0.372809,-1,-81.8545)">
        <rect x="117.55" y="229.5" width="6.22" height="1.22" style="fill:rgb(152,114,95);"/>
    </g>
    <g transform="matrix(0.372809,0,0,0.372809,-1,-81.8545)">
        <rect x="118.2" y="230.72" width="4.91" height="0.48" style="fill:rgb(109,76,57);"/>
    </g>
    <g transform="matrix(0.372809,0,0,0.372809,-1,-81.8545)">
        <path d="M120.98,234.5L135.06,234.5L135.06,233.17L121.54,233.17L120.98,234.5Z" style="fill:rgb(109,76,57);fill-rule:nonzero;"/>
    </g>
    <g transform="matrix(0.372809,0,0,0.372809,-1,-81.8545)">
        <path d="M120.19,236.4L135.06,236.4L135.06,235.07L120.75,235.07L120.19,236.4Z" style="fill:rgb(109,76,57);fill-rule:nonzero;"/>
    </g>
    <g transform="matrix(0.372809,0,0,0.592831,-1,-143.288)">
        <path d="M44.75,292.82L196.13,292.85C196.92,292.85 197.33,292.06 196.78,291.58C195.17,290.16 177.98,289.28 182.97,287.44L205.53,283.76L33.75,283.76L44.75,292.82Z" style="fill:rgb(89,49,30);fill-rule:nonzero;"/>
    </g>
    <g transform="matrix(0.372809,0,0,0.372809,-1,-81.8545)">
        <path d="M63.16,259.86L28.13,259.86L33.36,252.76L63.16,252.76L63.16,259.86Z" style="fill:rgb(134,97,78);fill-rule:nonzero;"/>
    </g>
    <g transform="matrix(0.372809,0,0,0.372809,-1,-81.8545)">
        <path d="M154.95,259.86L66.51,259.86L79.73,249.09L149.87,249.09L154.95,259.86Z" style="fill:rgb(152,114,95);fill-rule:nonzero;"/>
    </g>
    <g transform="matrix(0.372809,0,0,0.372809,-1,-81.8545)">
        <path d="M63.16,252.76L41.97,252.76L45.14,245.65L63.16,245.65L63.16,252.76Z" style="fill:rgb(104,104,125);fill-rule:nonzero;"/>
        <path d="M63.16,252.76L41.97,252.76L45.14,245.65L63.16,245.65L63.16,252.76Z" style="fill:rgb(134,97,78);fill-rule:nonzero;"/>
    </g>
    <g transform="matrix(0.372809,0,0,0.372809,-1,-81.8545)">
        <path d="M94.82,241.94L108.91,241.94L109.37,240.62L95.84,240.62L94.82,241.94Z" style="fill:rgb(109,76,57);fill-rule:nonzero;"/>
    </g>
    <g transform="matrix(0.372809,0,0,0.372809,-1,-81.8545)">
        <path d="M93.38,243.85L108.26,243.85L108.71,242.52L94.4,242.52L93.38,243.85Z" style="fill:rgb(109,76,57);fill-rule:nonzero;"/>
    </g>
    <g transform="matrix(0.372809,0,0,0.372809,-1,-81.8545)">
        <path d="M91.94,245.8L107.59,245.8L108.04,244.47L92.96,244.47L91.94,245.8Z" style="fill:rgb(109,76,57);fill-rule:nonzero;"/>
    </g>
    <g transform="matrix(0.372809,0,0,0.372809,-1,-81.8545)">
        <rect x="46.3" y="244.43" width="4.91" height="1.22" style="fill:rgb(134,97,78);"/>
    </g>
    <g transform="matrix(0.372809,0,0,0.372809,-1,-81.8545)">
        <rect x="45.65" y="243.21" width="6.22" height="1.22" style="fill:rgb(134,97,78);"/>
    </g>
    <g transform="matrix(0.372809,0,0,0.372809,-1,-81.8545)">
        <rect x="46.3" y="244.43" width="4.91" height="0.48" style="fill:rgb(134,97,78);"/>
    </g>
    <g transform="matrix(0.372809,0,0,0.372809,-1,-81.8545)">
        <path d="M49.07,248.21L63.16,248.21L63.16,246.88L49.64,246.88L49.07,248.21Z" style="fill:rgb(109,76,57);fill-rule:nonzero;"/>
    </g>
    <g transform="matrix(0.372809,0,0,0.372809,-1,-81.8545)">
        <path d="M48.29,250.11L63.16,250.11L63.16,248.78L48.85,248.78L48.29,250.11Z" style="fill:rgb(109,76,57);fill-rule:nonzero;"/>
    </g>
    <g transform="matrix(0.372809,0,0,0.372809,-1,-81.8545)">
        <path d="M47.52,252.06L63.16,252.06L63.16,250.73L48.08,250.73L47.52,252.06Z" style="fill:rgb(109,76,57);fill-rule:nonzero;"/>
    </g>
    <g transform="matrix(0.372809,0,0,0.372809,-1,-81.8545)">
        <rect x="35.69" y="254.1" width="22.23" height="0.98" style="fill:rgb(109,76,57);"/>
    </g>
    <g transform="matrix(0.372809,0,0,0.372809,-1,-81.8545)">
        <rect x="35.69" y="255.82" width="22.23" height="0.98" style="fill:rgb(109,76,57);"/>
    </g>
    <g transform="matrix(0.372809,0,0,0.372809,-1,-81.8545)">
        <rect x="35.69" y="257.54" width="22.23" height="0.98" style="fill:rgb(109,76,57);"/>
    </g>
    <g transform="matrix(0.372809,0,0,0.456456,-1,-103.591)">
        <path d="M7.4,273.46L16.35,278.32L33.75,283.77L70.49,279.22L7.4,273.46Z" style="fill:rgb(89,49,30);fill-rule:nonzero;"/>
    </g>
    <g transform="matrix(0.372809,0,0,0.456456,-1,-103.591)">
        <path d="M224.63,274.44L215.68,279.06L205.54,283.77L176.66,279.12L224.63,274.44Z" style="fill:rgb(89,49,30);fill-rule:nonzero;"/>
    </g>
    <g transform="matrix(0.372809,0,0,0.372809,-1,-81.8545)">
        <path d="M231.98,267.82L5.83,267.82L5.2,265.53L234.52,265.53L231.98,267.82Z" style="fill:rgb(89,49,30);fill-rule:nonzero;"/>
    </g>
    <g transform="matrix(0.372809,0,0,0.456456,-1,-103.591)">
        <path d="M3.63,259.86L11.59,271.03L39.95,277.34L7.4,273.46L3.63,259.86Z" style="fill:rgb(89,49,30);fill-rule:nonzero;"/>
    </g>
    <g transform="matrix(0.372809,0,0,0.456456,-1,-103.591)">
        <path d="M240.81,259.86L224.63,274.44L192.84,277.54L222.27,271.03L240.81,259.86Z" style="fill:rgb(89,49,30);fill-rule:nonzero;"/>
    </g>
    <g transform="matrix(0.372809,0,0,0.372809,-1,-81.8545)">
        <path d="M25.8,271.03C25.8,270.05 26.6,269.25 27.58,269.25C28.56,269.25 29.36,270.05 29.36,271.03C29.36,272.01 28.56,272.81 27.58,272.81C26.6,272.81 25.8,272.01 25.8,271.03Z" style="fill:rgb(89,49,30);fill-rule:nonzero;"/>
    </g>
    <g transform="matrix(0.372809,0,0,0.372809,-1,-81.8545)">
        <path d="M32.66,271.03C32.66,270.05 33.46,269.25 34.44,269.25C35.42,269.25 36.22,270.05 36.22,271.03C36.22,272.01 35.42,272.81 34.44,272.81C33.46,272.81 32.66,272.01 32.66,271.03Z" style="fill:rgb(89,49,30);fill-rule:nonzero;"/>
    </g>
    <g transform="matrix(0.372809,0,0,0.372809,-1,-81.8545)">
        <circle cx="41.29" cy="271.03" r="1.78" style="fill:rgb(89,49,30);"/>
    </g>
    <g transform="matrix(0.372809,0,0,0.372809,-1,-81.8545)">
        <circle cx="48.14" cy="271.03" r="1.78" style="fill:rgb(89,49,30);"/>
    </g>
    <g transform="matrix(0.372809,0,0,0.372809,-1,-81.8545)">
        <path d="M53.22,271.03C53.22,270.05 54.02,269.25 55,269.25C55.98,269.25 56.78,270.05 56.78,271.03C56.78,272.01 55.98,272.81 55,272.81C54.02,272.81 53.22,272.01 53.22,271.03Z" style="fill:rgb(89,49,30);fill-rule:nonzero;"/>
    </g>
    <g transform="matrix(0.372809,0,0,0.372809,-1,-81.8545)">
        <circle cx="61.85" cy="271.03" r="1.78" style="fill:rgb(89,49,30);"/>
    </g>
    <g transform="matrix(0.372809,0,0,0.372809,-1,-81.8545)">
        <path d="M86.06,271.03C86.06,270.05 86.86,269.25 87.84,269.25C88.82,269.25 89.62,270.05 89.62,271.03C89.62,272.01 88.82,272.81 87.84,272.81C86.86,272.81 86.06,272.01 86.06,271.03Z" style="fill:rgb(89,49,30);fill-rule:nonzero;"/>
    </g>
    <g transform="matrix(0.372809,0,0,0.372809,-1,-81.8545)">
        <circle cx="94.69" cy="271.03" r="1.78" style="fill:rgb(89,49,30);"/>
    </g>
    <g transform="matrix(0.372809,0,0,0.372809,-1,-81.8545)">
        <path d="M99.77,271.03C99.77,270.05 100.57,269.25 101.55,269.25C102.53,269.25 103.33,270.05 103.33,271.03C103.33,272.01 102.53,272.81 101.55,272.81C100.57,272.81 99.77,272.01 99.77,271.03Z" style="fill:rgb(89,49,30);fill-rule:nonzero;"/>
    </g>
    <g transform="matrix(0.372809,0,0,0.372809,-1,-81.8545)">
        <path d="M106.62,271.03C106.62,270.05 107.42,269.25 108.4,269.25C109.38,269.25 110.18,270.05 110.18,271.03C110.18,272.01 109.38,272.81 108.4,272.81C107.42,272.81 106.62,272.01 106.62,271.03Z" style="fill:rgb(89,49,30);fill-rule:nonzero;"/>
    </g>
    <g transform="matrix(0.372809,0,0,0.372809,-1,-81.8545)">
        <path d="M113.47,271.03C113.47,270.05 114.27,269.25 115.25,269.25C116.23,269.25 117.03,270.05 117.03,271.03C117.03,272.01 116.23,272.81 115.25,272.81C114.27,272.81 113.47,272.01 113.47,271.03Z" style="fill:rgb(89,49,30);fill-rule:nonzero;"/>
    </g>
    <g transform="matrix(0.372809,0,0,0.372809,-1,-81.8545)">
        <circle cx="122.1" cy="271.03" r="1.78" style="fill:rgb(89,49,30);"/>
    </g>
    <g transform="matrix(0.372809,0,0,0.372809,-1,-81.8545)">
        <path d="M146.32,271.03C146.32,270.05 147.12,269.25 148.1,269.25C149.08,269.25 149.88,270.05 149.88,271.03C149.88,272.01 149.08,272.81 148.1,272.81C147.12,272.81 146.32,272.01 146.32,271.03Z" style="fill:rgb(89,49,30);fill-rule:nonzero;"/>
    </g>
    <g transform="matrix(0.372809,0,0,0.372809,-1,-81.8545)">
        <path d="M153.17,271.03C153.17,270.05 153.97,269.25 154.95,269.25C155.93,269.25 156.73,270.05 156.73,271.03C156.73,272.01 155.93,272.81 154.95,272.81C153.97,272.81 153.17,272.01 153.17,271.03Z" style="fill:rgb(89,49,30);fill-rule:nonzero;"/>
    </g>
    <g transform="matrix(0.372809,0,0,0.372809,-1,-81.8545)">
        <circle cx="161.8" cy="271.03" r="1.78" style="fill:rgb(89,49,30);"/>
    </g>
    <g transform="matrix(0.372809,0,0,0.372809,-1,-81.8545)">
        <circle cx="168.65" cy="271.03" r="1.78" style="fill:rgb(89,49,30);"/>
    </g>
    <g transform="matrix(0.372809,0,0,0.372809,-1,-81.8545)">
        <path d="M173.73,271.03C173.73,270.05 174.53,269.25 175.51,269.25C176.49,269.25 177.29,270.05 177.29,271.03C177.29,272.01 176.49,272.81 175.51,272.81C174.53,272.81 173.73,272.01 173.73,271.03Z" style="fill:rgb(89,49,30);fill-rule:nonzero;"/>
    </g>
    <g transform="matrix(0.372809,0,0,0.372809,-1,-81.8545)">
        <path d="M180.59,271.03C180.59,270.05 181.39,269.25 182.37,269.25C183.35,269.25 184.15,270.05 184.15,271.03C184.15,272.01 183.35,272.81 182.37,272.81C181.39,272.81 180.59,272.01 180.59,271.03Z" style="fill:rgb(89,49,30);fill-rule:nonzero;"/>
    </g>
    <g transform="matrix(0.372809,0,0,0.372809,-1,-81.8545)">
        <path d="M164.2,285.21L51.64,285.21C50.69,285.21 49.92,284.44 49.92,283.49C49.92,282.54 50.69,281.77 51.64,281.77L164.2,281.77C165.15,281.77 165.92,282.54 165.92,283.49C165.92,284.44 165.15,285.21 164.2,285.21Z" style="fill:rgb(109,71,52);fill-rule:nonzero;"/>
    </g>
    <g transform="matrix(0.372809,0,0,0.372809,-1,-81.8545)">
        <path d="M98.21,259.86L54.42,259.86L59.58,255.08L87.84,255.08L98.21,259.86Z" style="fill:rgb(133,96,78);fill-rule:nonzero;"/>
    </g>
    <g transform="matrix(0.372809,0,0,0.372809,-1,-81.8545)">
        <path d="M144.63,257.47L99.89,257.47C98.96,257.47 98.2,256.71 98.2,255.78C98.2,254.85 98.96,254.09 99.89,254.09L144.63,254.09C145.56,254.09 146.32,254.85 146.32,255.78C146.32,256.71 145.56,257.47 144.63,257.47Z" style="fill:rgb(133,96,78);fill-rule:nonzero;"/>
    </g>
    <g transform="matrix(0.372809,0,0,0.372809,-1,-81.8545)">
        <path d="M168.27,259.85L196.45,259.85L193.4,255.7L171.32,255.7L168.27,259.85Z" style="fill:rgb(89,49,30);fill-rule:nonzero;"/>
        <g>
            <g transform="matrix(0.966016,-0.258482,0.258482,0.966016,-58.76,58.45)">
                <rect x="189.22" y="252.3" width="7.36" height="0.76" style="fill:rgb(134,97,78);"/>
            </g>
            <path d="M186.17,252.36L190.44,252.36L191.46,255.7L185.15,255.7L186.17,252.36Z" style="fill:rgb(134,97,78);fill-rule:nonzero;"/>
        </g>
        <g>
            <g transform="matrix(0.966016,-0.258482,0.258482,0.966016,-59.14,55.53)">
                <rect x="177.92" y="252.3" width="7.36" height="0.76" style="fill:rgb(134,97,78);"/>
            </g>
            <path d="M174.87,252.36L179.15,252.36L180.16,255.7L173.86,255.7L174.87,252.36Z" style="fill:rgb(134,97,78);fill-rule:nonzero;"/>
        </g>
    </g>
    <g transform="matrix(0.372809,0,0,0.372809,-1,-81.8545)">
        <path d="M203.98,259.85L232.16,259.85L229.11,255.7L207.03,255.7L203.98,259.85Z" style="fill:rgb(89,49,30);fill-rule:nonzero;"/>
        <g>
            <g transform="matrix(0.966061,-0.258313,0.258313,0.966061,-57.52,67.64)">
                <rect x="224.92" y="252.3" width="7.36" height="0.76" style="fill:rgb(134,97,78);"/>
            </g>
            <path d="M221.88,252.36L226.15,252.36L227.17,255.7L220.86,255.7L221.88,252.36Z" style="fill:rgb(134,97,78);fill-rule:nonzero;"/>
        </g>
        <g>
            <g transform="matrix(0.966061,-0.258313,0.258313,0.966061,-57.88,64.69)">
                <rect x="213.63" y="252.3" width="7.36" height="0.76" style="fill:rgb(134,97,78);"/>
            </g>
            <path d="M210.58,252.36L214.85,252.36L215.87,255.7L209.57,255.7L210.58,252.36Z" style="fill:rgb(134,97,78);fill-rule:nonzero;"/>
        </g>
    </g>
    <g transform="matrix(0.372809,0,0,0.372809,-1,-81.8545)">
        <rect x="150.31" y="258.3" width="42.59" height="1.57" style="fill:rgb(89,49,30);"/>
    </g>
    <g transform="matrix(0.372809,0,0,0.372809,-1,-81.8545)">
        <path d="M34.14,259.85L6.41,259.85L9.41,255.7L31.15,255.7L34.14,259.85Z" style="fill:rgb(89,49,30);fill-rule:nonzero;"/>
        <g>
            <g transform="matrix(0.262526,-0.964925,0.964925,0.262526,-236.51,195.9)">
                <rect x="9.53" y="249.05" width="0.76" height="7.25" style="fill:rgb(134,97,78);"/>
            </g>
            <path d="M16.53,252.36L12.32,252.36L11.32,255.7L17.53,255.7L16.53,252.36Z" style="fill:rgb(134,97,78);fill-rule:nonzero;"/>
        </g>
        <g>
            <g transform="matrix(0.262526,-0.964925,0.964925,0.262526,-228.31,206.63)">
                <rect x="20.65" y="249.05" width="0.76" height="7.25" style="fill:rgb(134,97,78);"/>
            </g>
            <path d="M27.65,252.36L23.44,252.36L22.44,255.7L28.65,255.7L27.65,252.36Z" style="fill:rgb(134,97,78);fill-rule:nonzero;"/>
        </g>
    </g>
    <g transform="matrix(-0.372809,-2.85465e-16,2.85465e-16,-0.372809,22.0135,111.32)">
        <rect x="9.91" y="258.3" width="41.92" height="1.57" style="fill:rgb(89,49,30);"/>
    </g>
    <g transform="matrix(0.372809,0,0,0.372809,-1,-81.8545)">
        <path d="M209.86,254.69L219.9,254.69L219.9,255.7L207.03,255.7L209.86,254.69Z" style="fill:rgb(134,97,78);fill-rule:nonzero;"/>
    </g>
    <g transform="matrix(0.372809,0,0,0.372809,-1,-81.8545)">
        <path d="M225.43,257.27L235.47,257.27L235.47,258.28L222.6,258.28L225.43,257.27Z" style="fill:rgb(89,49,30);fill-rule:nonzero;"/>
    </g>
    <g transform="matrix(0.372809,0,0,0.372809,-1,-81.8545)">
        <path d="M201.52,258.3L255.92,258.3C256.35,258.3 256.7,258.65 256.7,259.08C256.7,259.51 256.35,259.86 255.92,259.86L201.52,259.86C201.09,259.86 200.74,259.51 200.74,259.08C200.74,258.65 201.09,258.3 201.52,258.3Z" style="fill:rgb(89,49,30);fill-rule:nonzero;"/>
    </g>
    <g transform="matrix(0.372809,0,0,0.372809,-1,-81.8545)">
        <g transform="matrix(0.966016,-0.258482,0.258482,0.966016,-58.76,45.28)">
            <rect x="139.13" y="245.71" width="7.36" height="0.76" style="fill:rgb(89,49,30);"/>
        </g>
        <path d="M136.08,245.77L140.35,245.77L141.37,249.11L135.06,249.11L136.08,245.77Z" style="fill:rgb(89,49,30);fill-rule:nonzero;"/>
    </g>
    <g transform="matrix(0.372809,0,0,0.372809,-1,-81.8545)">
        <g transform="matrix(0.966061,-0.258313,0.258313,0.966061,-59.14,42.16)">
            <rect x="127.17" y="245.71" width="7.36" height="0.76" style="fill:rgb(89,49,30);"/>
        </g>
        <path d="M124.12,245.77L128.4,245.77L129.41,249.11L123.11,249.11L124.12,245.77Z" style="fill:rgb(89,49,30);fill-rule:nonzero;"/>
    </g>
    <g transform="matrix(0.372809,0,0,0.372809,-1,-81.8545)">
        <g transform="matrix(0.966061,-0.258313,0.258313,0.966061,-59.56,38.96)">
            <rect x="114.79" y="245.71" width="7.36" height="0.76" style="fill:rgb(89,49,30);"/>
        </g>
        <path d="M111.74,245.77L116.02,245.77L117.03,249.11L110.73,249.11L111.74,245.77Z" style="fill:rgb(89,49,30);fill-rule:nonzero;"/>
    </g>
</svg>
