<?xml version="1.0" encoding="UTF-8" standalone="no"?>
<!DOCTYPE svg PUBLIC "-//W3C//DTD SVG 1.1//EN" "http://www.w3.org/Graphics/SVG/1.1/DTD/svg11.dtd">
<svg width="100%" height="100%" viewBox="0 0 60 30" version="1.1" xmlns="http://www.w3.org/2000/svg" xmlns:xlink="http://www.w3.org/1999/xlink" xml:space="preserve" xmlns:serif="http://www.serif.com/" style="fill-rule:evenodd;clip-rule:evenodd;stroke-linejoin:round;stroke-miterlimit:2;">
    <g transform="matrix(0.30112,-0.173852,0.161322,0.279417,-223.344,26.3293)">
        <path d="M648.12,376.2L644.85,376.2L632.57,341.85L635.84,341.85L648.12,376.2Z" style="fill:rgb(134,97,78);fill-rule:nonzero;"/>
    </g>
    <g transform="matrix(0.30112,-0.173852,0.198773,0.344285,-237.434,1.9256)">
        <rect x="634.43" y="349.01" width="17.2" height="1.88" style="fill:rgb(134,97,78);"/>
    </g>
    <g transform="matrix(0.30112,-0.173852,0.198773,0.344285,-237.434,1.9256)">
        <rect x="636.39" y="354.5" width="17.2" height="1.88" style="fill:rgb(134,97,78);"/>
    </g>
    <g transform="matrix(0.30112,-0.173852,0.198773,0.344285,-237.434,1.9256)">
        <rect x="638.55" y="360.28" width="17.2" height="1.88" style="fill:rgb(134,97,78);"/>
    </g>
    <g transform="matrix(0.30112,-0.173852,0.270304,0.46818,-264.294,-44.5982)">
        <path d="M554.21,382.5L705.49,384.35L705.49,375.51L563.392,375.51L554.21,382.5Z" style="fill:rgb(88,51,31);fill-rule:nonzero;"/>
    </g>
    <g transform="matrix(0.242653,-0.140096,0.359269,0.622271,-259.375,-124.445)">
        <path d="M712.21,389.37L539.7,389.37L529.53,380.47L675.31,380.72L738.67,369.78L712.21,389.37Z" style="fill:rgb(108,71,50);fill-rule:nonzero;"/>
    </g>
    <g transform="matrix(0.241409,-0.139377,0.146563,0.253855,-176.1,18.7431)">
        <path d="M717.29,400.31L564.61,400.31C563.82,400.31 563.41,399.36 563.95,398.79C565.57,397.08 564.66,394.25 562.35,393.8L539.69,389.37L712.45,389.37L717.28,400.31L717.29,400.31Z" style="fill:rgb(88,51,31);fill-rule:nonzero;"/>
    </g>
    <g transform="matrix(0.30112,-0.173852,0.536935,0.929999,-364.418,-218.017)">
        <path d="M627.86,375.51L576.85,375.51L584.47,365.16L627.86,365.16L627.86,375.51Z" style="fill:rgb(153,116,98);fill-rule:nonzero;"/>
    </g>
    <g transform="matrix(0.30112,-0.173852,0.198773,0.344285,-240.934,-4.13658)">
        <path d="M627.86,365.16L597,365.16L601.61,354.81L627.86,354.81L627.86,365.16Z" style="fill:rgb(128,91,72);fill-rule:nonzero;"/>
    </g>
    <g transform="matrix(0.30112,-0.173852,0.198773,0.344285,-237.434,1.9256)">
        <path d="M666.07,375.51L645.85,375.51L648.87,349L660.81,349L666.07,375.51Z" style="fill:rgb(134,97,78);fill-rule:nonzero;"/>
    </g>
    <g transform="matrix(0.30112,-0.173852,0.198773,0.344285,-237.434,1.9256)">
        <path d="M640.3,375.51L619.54,375.51L622.64,368.55L640.3,368.55L640.3,375.51Z" style="fill:rgb(128,91,72);fill-rule:nonzero;"/>
    </g>
    <g transform="matrix(0.30112,-0.173852,0.198773,0.344285,-240.934,-4.13658)">
        <rect x="603.31" y="353.04" width="7.14" height="1.78" style="fill:rgb(128,91,72);"/>
    </g>
    <g transform="matrix(0.30112,-0.173852,0.198773,0.344285,-240.934,-4.13658)">
        <rect x="602.36" y="351.26" width="9.05" height="1.78" style="fill:rgb(128,91,72);"/>
    </g>
    <g transform="matrix(0.30112,-0.173852,0.198773,0.344285,-240.934,-4.13658)">
        <rect x="603.31" y="353.04" width="7.14" height="0.69" style="fill:rgb(128,91,72);"/>
    </g>
    <g transform="matrix(0.30112,-0.173852,0.198773,0.344285,-240.934,-4.13658)">
        <path d="M607.35,358.53L627.86,358.53L627.86,356.61L608.17,356.61L607.35,358.53Z" style="fill:rgb(109,76,57);fill-rule:nonzero;"/>
    </g>
    <g transform="matrix(0.30112,-0.173852,0.198773,0.344285,-240.934,-4.13658)">
        <path d="M606.21,361.3L627.86,361.3L627.86,359.37L607.03,359.37L606.21,361.3Z" style="fill:rgb(109,76,57);fill-rule:nonzero;"/>
    </g>
    <g transform="matrix(0.30112,-0.173852,0.198773,0.344285,-240.934,-4.13658)">
        <path d="M605.08,364.15L627.86,364.15L627.86,362.22L605.9,362.22L605.08,364.15Z" style="fill:rgb(109,76,57);fill-rule:nonzero;"/>
    </g>
    <g transform="matrix(0.30112,-0.173852,0.198773,0.344285,-237.434,1.9256)">
        <path d="M690.33,375.5L659.46,375.5L664.08,365.15L690.33,365.15L690.33,375.5Z" style="fill:rgb(151,114,98);fill-rule:nonzero;"/>
    </g>
    <g transform="matrix(0.30112,-0.173852,0.198773,0.344285,-237.434,1.9256)">
        <rect x="665.77" y="363.37" width="7.14" height="1.78" style="fill:rgb(151,114,98);"/>
    </g>
    <g transform="matrix(0.30112,-0.173852,0.198773,0.344285,-237.434,1.9256)">
        <rect x="665.77" y="363.37" width="7.14" height="0.69" style="fill:rgb(151,114,98);"/>
    </g>
    <g transform="matrix(0.30112,-0.173852,0.198773,0.344285,-237.434,1.9256)">
        <path d="M669.81,368.87L690.33,368.87L690.33,366.94L670.63,366.94L669.81,368.87Z" style="fill:rgb(107,74,55);fill-rule:nonzero;"/>
    </g>
    <g transform="matrix(0.30112,-0.173852,0.198773,0.344285,-237.434,1.9256)">
        <path d="M668.67,371.64L690.33,371.64L690.33,369.71L669.49,369.71L668.67,371.64Z" style="fill:rgb(107,74,55);fill-rule:nonzero;"/>
    </g>
    <g transform="matrix(0.30112,-0.173852,0.198773,0.344285,-237.434,1.9256)">
        <path d="M667.55,374.48L690.33,374.48L690.33,372.55L668.36,372.55L667.55,374.48Z" style="fill:rgb(107,74,55);fill-rule:nonzero;"/>
    </g>
    <g transform="matrix(0.30112,-0.173852,0.198773,0.344285,-238.434,0.193547)">
        <rect x="587.85" y="367.12" width="32.36" height="1.43" style="fill:rgb(109,76,57);"/>
    </g>
    <g transform="matrix(0.30112,-0.173852,0.198773,0.344285,-238.434,0.193547)">
        <rect x="587.85" y="369.62" width="32.36" height="1.43" style="fill:rgb(109,76,57);"/>
    </g>
    <g transform="matrix(0.30112,-0.173852,0.198773,0.344285,-238.434,0.193547)">
        <rect x="587.85" y="372.12" width="32.36" height="1.43" style="fill:rgb(109,76,57);"/>
    </g>
    <g transform="matrix(0.30112,-0.173852,0.198773,0.344285,-239.934,-2.40453)">
        <rect x="587.85" y="367.12" width="32.36" height="1.43" style="fill:rgb(109,76,57);"/>
    </g>
    <g transform="matrix(0.30112,-0.173852,0.198773,0.344285,-239.934,-2.40453)">
        <rect x="587.85" y="369.62" width="32.36" height="1.43" style="fill:rgb(109,76,57);"/>
    </g>
    <g transform="matrix(0.30112,-0.173852,0.198773,0.344285,-239.934,-2.40453)">
        <rect x="587.85" y="372.12" width="32.36" height="1.43" style="fill:rgb(109,76,57);"/>
    </g>
    <g transform="matrix(0.291784,-0.203767,0.299659,0.429097,-273.455,-7.40847)">
        <path d="M738.67,369.78L729.68,379.01L683.46,384.28L675.31,380.72L738.67,369.78Z" style="fill:rgb(88,51,31);fill-rule:nonzero;"/>
    </g>
    <g transform="matrix(1,0,0,0.555556,0,11.1111)">
        <rect x="-1" y="25" width="62" height="9" style="fill:rgb(76,123,173);"/>
    </g>
</svg>
